<?xml version="1.0" encoding="UTF-8" standalone="no"?>
<!DOCTYPE svg PUBLIC "-//W3C//DTD SVG 1.0//EN" "http://www.w3.org/TR/2001/REC-SVG-20010904/DTD/svg10.dtd">
<!-- Generated by Microsoft Visio 11.0, SVG Export, v1.0 Confusion.svg Page-1 -->
<svg xmlns="http://www.w3.org/2000/svg" xmlns:xlink="http://www.w3.org/1999/xlink" xmlns:ev="http://www.w3.org/2001/xml-events"
		xmlns:v="http://schemas.microsoft.com/visio/2003/SVGExtensions/" width="10.2092in" height="7.50194in"
		viewBox="0 0 735.059 540.14" xml:space="preserve" color-interpolation-filters="sRGB" class="st39">
	<v:documentProperties v:langID="1033" v:viewMarkup="false"/>

	<style type="text/css">
	<![CDATA[
		.st1 {fill:#000000;fill-opacity:0;stroke:none;stroke-linecap:round;stroke-linejoin:round;stroke-width:0.75}
		.st2 {fill:#cc6633}
		.st3 {stroke:none;stroke-linecap:round;stroke-linejoin:round;stroke-width:0.75}
		.st4 {fill:url(#grad30-10)}
		.st5 {fill:url(#grad36-15);stroke:none;stroke-linecap:round;stroke-linejoin:round;stroke-width:0.75}
		.st6 {fill:#cc6633;stroke:#cc6633;stroke-linecap:butt;stroke-width:0.2175}
		.st7 {fill:url(#grad32-21);stroke:#295687;stroke-linecap:round;stroke-linejoin:round;stroke-width:0.375}
		.st8 {fill:url(#grad33-27)}
		.st9 {fill:url(#grad25-34)}
		.st10 {fill:url(#grad31-39)}
		.st11 {fill:#658eb8;stroke:none;stroke-linecap:round;stroke-linejoin:round;stroke-width:0.75}
		.st12 {fill:url(#grad38-48);stroke:none;stroke-linecap:round;stroke-linejoin:round;stroke-width:0.75}
		.st13 {fill:url(#grad25-52)}
		.st14 {fill:#7bb4d2;stroke:none;stroke-linecap:round;stroke-linejoin:round;stroke-width:0.75}
		.st15 {fill:#7bb4d2}
		.st16 {fill:url(#grad40-62)}
		.st17 {stroke:#d75139;stroke-linecap:butt;stroke-width:0.375}
		.st18 {fill:#ffffff}
		.st19 {fill:none}
		.st20 {stroke:#295687;stroke-linecap:round;stroke-linejoin:round;stroke-width:0.375}
		.st21 {fill:#295687}
		.st22 {stroke:#295687;stroke-linecap:butt;stroke-width:0.2175}
		.st23 {fill:url(#grad25-34);stroke:none;stroke-linecap:round;stroke-linejoin:round;stroke-width:0.75}
		.st24 {fill:url(#grad36-79);stroke:#295687;stroke-linecap:butt;stroke-width:0.375}
		.st25 {fill:url(#grad31-83);stroke:#295687;stroke-linecap:butt;stroke-width:0.375}
		.st26 {fill:#295687;stroke:#295687;stroke-linecap:butt;stroke-width:0.3732}
		.st27 {fill:none;stroke:#000000;stroke-linecap:round;stroke-linejoin:round;stroke-width:0.72}
		.st28 {fill:none;stroke:none;stroke-linecap:round;stroke-linejoin:round;stroke-width:0.75}
		.st29 {fill:#000000;font-family:Calibri;font-size:4.99999em}
		.st30 {fill:#dde2cd;stroke:#000000;stroke-linecap:round;stroke-linejoin:round;stroke-width:0.24}
		.st31 {fill:#000000;font-family:Calibri;font-size:1.99999em}
		.st32 {fill:#000000;font-family:Calibri;font-size:2.50001em}
		.st33 {font-size:1em}
		.st34 {fill:#00b050;font-family:Calibri;font-size:1.99999em}
		.st35 {fill:#fdebdd;stroke:#000000;stroke-linecap:round;stroke-linejoin:round;stroke-width:0.24}
		.st36 {fill:#000000;font-family:Calibri;font-size:1.66667em}
		.st37 {fill:#000000;font-family:Calibri;font-size:1.5em}
		.st38 {fill:#0070c0;font-family:Calibri;font-size:1.5em}
		.st39 {fill:none;fill-rule:evenodd;font-size:12px;overflow:visible;stroke-linecap:square;stroke-miterlimit:3}
	]]>
	</style>

	<defs id="Patterns_And_Gradients">
		<linearGradient id="grad30-10" v:fillPattern="30" v:foreground="#f6f8b0" v:background="#dab971" x1="0" y1="1" x2="0" y2="0">
			<stop offset="0" style="stop-color:#f6f8b0;stop-opacity:1"/>
			<stop offset="1" style="stop-color:#dab971;stop-opacity:1"/>
		</linearGradient>
		<radialGradient id="grad36-15" v:fillPattern="36" v:foreground="#f6f8b0" v:background="#dab971" cx="0" cy="0" r="1">
			<stop offset="0" style="stop-color:#f6f8b0;stop-opacity:1"/>
			<stop offset="1" style="stop-color:#dab971;stop-opacity:1"/>
		</radialGradient>
		<pattern id="grad32-21" v:fillPattern="32" v:foreground="#ffffff" v:background="#b8e6ef" x="0" y="0" width="1" height="1"
				patternContentUnits="objectBoundingBox">
			<path d="M 0 1 L 0 0 L 1 0 z" style="fill:url(#grad27-22)"/>
			<path d="M 0 1 L 1 1 L 1 0 z" style="fill:url(#grad28-23)"/>
		</pattern>
		<linearGradient id="grad27-22" v:fillPattern="32" v:foreground="#ffffff" v:background="#b8e6ef" x1="1" y1="0" x2="0" y2="0">
			<stop offset="0" style="stop-color:#ffffff;stop-opacity:1"/>
			<stop offset="1" style="stop-color:#b8e6ef;stop-opacity:1"/>
		</linearGradient>
		<linearGradient id="grad28-23" v:fillPattern="32" v:foreground="#ffffff" v:background="#b8e6ef" x1="0" y1="0" x2="0" y2="1">
			<stop offset="0" style="stop-color:#ffffff;stop-opacity:1"/>
			<stop offset="1" style="stop-color:#b8e6ef;stop-opacity:1"/>
		</linearGradient>
		<pattern id="grad33-27" v:fillPattern="33" v:foreground="#e3f5f9" v:background="#7bb4d2" x="0" y="0" width="1" height="1"
				patternContentUnits="objectBoundingBox">
			<path d="M 0 1 L 0 0 L 1 0 z" style="fill:url(#grad30-28)"/>
			<path d="M 0 1 L 1 1 L 1 0 z" style="fill:url(#grad25-29)"/>
		</pattern>
		<linearGradient id="grad30-28" v:fillPattern="33" v:foreground="#e3f5f9" v:background="#7bb4d2" x1="0" y1="1" x2="0" y2="0">
			<stop offset="0" style="stop-color:#e3f5f9;stop-opacity:1"/>
			<stop offset="1" style="stop-color:#7bb4d2;stop-opacity:1"/>
		</linearGradient>
		<linearGradient id="grad25-29" v:fillPattern="33" v:foreground="#e3f5f9" v:background="#7bb4d2" x1="0" y1="0" x2="1" y2="0">
			<stop offset="0" style="stop-color:#e3f5f9;stop-opacity:1"/>
			<stop offset="1" style="stop-color:#7bb4d2;stop-opacity:1"/>
		</linearGradient>
		<linearGradient id="grad25-34" v:fillPattern="25" v:foreground="#f7f3e8" v:background="#b8e6ef" x1="0" y1="0" x2="1" y2="0">
			<stop offset="0" style="stop-color:#f7f3e8;stop-opacity:1"/>
			<stop offset="1" style="stop-color:#b8e6ef;stop-opacity:1"/>
		</linearGradient>
		<pattern id="grad31-39" v:fillPattern="31" v:foreground="#b8e6ef" v:background="#7bb4d2" x="0" y="0" width="1" height="1"
				patternContentUnits="objectBoundingBox">
			<path d="M 0 0 L 0 1 L 1 1 z" style="fill:url(#grad28-40)"/>
			<path d="M 0 0 L 1 0 L 1 1 z" style="fill:url(#grad25-41)"/>
		</pattern>
		<linearGradient id="grad28-40" v:fillPattern="31" v:foreground="#b8e6ef" v:background="#7bb4d2" x1="0" y1="0" x2="0" y2="1">
			<stop offset="0" style="stop-color:#b8e6ef;stop-opacity:1"/>
			<stop offset="1" style="stop-color:#7bb4d2;stop-opacity:1"/>
		</linearGradient>
		<linearGradient id="grad25-41" v:fillPattern="31" v:foreground="#b8e6ef" v:background="#7bb4d2" x1="0" y1="0" x2="1" y2="0">
			<stop offset="0" style="stop-color:#b8e6ef;stop-opacity:1"/>
			<stop offset="1" style="stop-color:#7bb4d2;stop-opacity:1"/>
		</linearGradient>
		<radialGradient id="grad38-48" v:fillPattern="38" v:foreground="#ffffff" v:background="#da8c36" cx="0" cy="1" r="1">
			<stop offset="0" style="stop-color:#ffffff;stop-opacity:1"/>
			<stop offset="1" style="stop-color:#da8c36;stop-opacity:1"/>
		</radialGradient>
		<linearGradient id="grad25-52" v:fillPattern="25" v:foreground="#7bb4d2" v:background="#658eb8" x1="0" y1="0" x2="1" y2="0">
			<stop offset="0" style="stop-color:#7bb4d2;stop-opacity:1"/>
			<stop offset="1" style="stop-color:#658eb8;stop-opacity:1"/>
		</linearGradient>
		<radialGradient id="grad40-62" v:fillPattern="40" v:foreground="#ffffff" v:background="#da8c36" cx="0.5" cy="0.5" r="0.5">
			<stop offset="0" style="stop-color:#ffffff;stop-opacity:1"/>
			<stop offset="1" style="stop-color:#da8c36;stop-opacity:1"/>
		</radialGradient>
		<radialGradient id="grad36-79" v:fillPattern="36" v:foreground="#ffffff" v:background="#7bb4d2" cx="0" cy="0" r="1">
			<stop offset="0" style="stop-color:#ffffff;stop-opacity:1"/>
			<stop offset="1" style="stop-color:#7bb4d2;stop-opacity:1"/>
		</radialGradient>
		<pattern id="grad31-83" v:fillPattern="31" v:foreground="#ffffff" v:background="#7bb4d2" x="0" y="0" width="1" height="1"
				patternContentUnits="objectBoundingBox">
			<path d="M 0 0 L 0 1 L 1 1 z" style="fill:url(#grad28-84)"/>
			<path d="M 0 0 L 1 0 L 1 1 z" style="fill:url(#grad25-85)"/>
		</pattern>
		<linearGradient id="grad28-84" v:fillPattern="31" v:foreground="#ffffff" v:background="#7bb4d2" x1="0" y1="0" x2="0" y2="1">
			<stop offset="0" style="stop-color:#ffffff;stop-opacity:1"/>
			<stop offset="1" style="stop-color:#7bb4d2;stop-opacity:1"/>
		</linearGradient>
		<linearGradient id="grad25-85" v:fillPattern="31" v:foreground="#ffffff" v:background="#7bb4d2" x1="0" y1="0" x2="1" y2="0">
			<stop offset="0" style="stop-color:#ffffff;stop-opacity:1"/>
			<stop offset="1" style="stop-color:#7bb4d2;stop-opacity:1"/>
		</linearGradient>
	</defs>
	<g v:mID="0" v:index="1" v:groupContext="foregroundPage">
		<title>Page-1</title>
		<v:pageProperties v:drawingScale="1" v:pageScale="1" v:drawingUnits="0" v:shadowOffsetX="9" v:shadowOffsetY="-9"/>
		<g id="group10-1" transform="translate(191.49,-22.4)" v:mID="10" v:groupContext="group">
			<v:userDefs>
				<v:ud v:nameU="SkinColor" v:prompt="" v:val="VT5(#da8c36)"/>
				<v:ud v:nameU="visVersion" v:prompt="" v:val="VT0(14):26"/>
			</v:userDefs>
			<title>Service desk</title>
			<g id="shape11-2" v:mID="11" v:groupContext="shape" transform="translate(0,-10.6442)">
				<title>Sheet.11</title>
				<path d="M191.16 338.34 L171.38 348.88 C168.56 351.1 167.81 350.74 166.33 353.61 C162.87 360.31 163.33 385.67 163.09
							 388.67 C161.32 388.87 153.08 394.07 141.2 401.13 L141.02 395.99 L140.35 389.81 L79.49 356.65 L73.67
							 359.52 L76.26 398.06 L0 441.4 L0 445.81 L167.81 540.14 L276.75 478.18 L276.75 473.75 L260.81 464.74
							 L264.09 389.11 L249.51 380.79 C245.76 365.84 243.56 359.3 220.62 342.48 C220.55 340.26 220.5 340.04
							 220.48 338 C228.47 330.73 231.93 322.26 231.19 312.77 C230.39 294.86 217.21 283.29 205.84 284.68 C190.59
							 285.8 182.08 295.37 180.55 312.37 C180.59 316.18 178.79 326.07 191.16 338.34 Z" class="st1"/>
			</g>
			<g id="shape12-4" v:mID="12" v:groupContext="shape" transform="translate(245.539,-86.0459)">
				<title>Sheet.12</title>
				<path d="M0 531.51 L1.57 454.89 L18.55 464.51 L15.27 540.14 L7.44 535.71 L0 531.51 Z" class="st2"/>
				<path d="M0 531.51 L1.57 454.89 L18.55 464.51 L15.27 540.14 L7.44 535.71" class="st3"/>
			</g>
			<g id="shape13-7" v:mID="13" v:groupContext="shape" transform="translate(249.513,-158.22)">
				<title>Sheet.13</title>
				<path d="M0 528.36 L14.57 536.69 L6.61 540.14 L0.1 536.18 L0 528.36 Z" class="st4"/>
				<path d="M0 528.36 L14.57 536.69 L6.61 540.14 L0.1 536.18" class="st3"/>
			</g>
			<g id="shape14-12" v:mID="14" v:groupContext="shape" transform="translate(0,-15.0862)">
				<title>Sheet.14</title>
				<path d="M0 445.84 L109.47 383.63 L276.75 478.19 L167.87 540.14 L0 445.84 Z" class="st5"/>
			</g>
			<g id="shape15-16" v:mID="15" v:groupContext="shape" transform="translate(0,-10.6442)">
				<title>Sheet.15</title>
				<path d="M0 445.81 L167.81 540.14 L167.87 535.7 L0 441.4 L0 445.81 ZM261.99 482.02 L167.87 535.7 L167.87 540.12 L276.75
							 478.18 L276.75 473.75 L261.99 482.02 Z" class="st6"/>
			</g>
			<g id="shape16-18" v:mID="16" v:groupContext="shape" transform="translate(110.909,-71.7287)">
				<title>Sheet.16</title>
				<path d="M25.04 492.06 L0 506.38 L57.75 540.14 L57.67 540.12 L82.6 525.74 L24.86 491.97 L25.04 492.06 Z"
						class="st7"/>
			</g>
			<g id="shape17-24" v:mID="17" v:groupContext="shape" transform="translate(163.079,-106.575)">
				<title>Sheet.17</title>
				<path d="M9.92 511.17 L9.75 511.65 L0 484.93 C-0 484.93 1.08 450.58 3.25 449.54 C3.25 449.54 10.11 437.75 31.06 448.85
							 C31.06 448.85 71.52 462.73 65.74 518.6 L64.2 540.14 L9.92 511.17 Z" class="st8"/>
				<path d="M9.92 511.17 L9.75 511.65 L0 484.93 C-0 484.93 1.08 450.58 3.25 449.54 C3.25 449.54 10.11 437.75 31.06 448.85
							 C31.06 448.85 71.52 462.73 65.74 518.6 L64.2 540.14" class="st3"/>
			</g>
			<g id="shape18-31" v:mID="18" v:groupContext="shape" transform="translate(169.978,-162.983)">
				<title>Sheet.18</title>
				<path d="M53.76 540.14 C49.63 526.54 39.77 518.16 36.33 515.26 C15.14 497.35 -0 501.99 0 501.99 L24.25 488.69 C24.25
							 488.69 39.39 484.04 60.58 501.96 C63.98 504.83 73.66 513.04 77.87 526.36 L53.76 540.14 Z" class="st9"/>
				<path d="M53.76 540.14 C49.63 526.54 39.77 518.16 36.33 515.26 C15.14 497.35 -0 501.99 0 501.99 L24.25 488.69 C24.25
							 488.69 39.39 484.04 60.58 501.96 C63.98 504.83 73.66 513.04 77.87 526.36" class="st3"/>
			</g>
			<g id="shape19-36" v:mID="19" v:groupContext="shape" transform="translate(223.742,-107.418)">
				<title>Sheet.19</title>
				<path d="M24.1 470.79 C24.98 473.58 25.62 476.59 25.92 479.82 C26.29 483.91 29.47 520.41 27.31 525.41 C25.15 530.42
							 4.4 540.14 4.4 540.14 C4.4 540.14 2.04 497.21 1.67 493.12 C1.4 490.25 0.86 487.54 0.13 485.01 C0.08
							 484.87 0.05 484.72 0 484.58 C0 484.58 4.54 466.61 24.05 470.73 L24.1 470.79 Z" class="st10"/>
				<path d="M24.1 470.79 C24.98 473.58 25.62 476.59 25.92 479.82 C26.29 483.91 29.47 520.41 27.31 525.41 C25.15 530.42
							 4.4 540.14 4.4 540.14 C4.4 540.14 2.04 497.21 1.67 493.12 C1.4 490.25 0.86 487.54 0.13 485.01 C0.08
							 484.87 0.05 484.72 0 484.58 C0 484.58 4.54 466.61 24.05 470.73" class="st3"/>
			</g>
			<g id="shape20-43" v:mID="20" v:groupContext="shape" transform="translate(225.52,-94.6778)">
				<title>Sheet.20</title>
				<path d="M0 528.82 L21.84 516.41 L20.02 540.14 L0 528.82 Z" class="st11"/>
			</g>
			<g id="shape21-45" v:mID="21" v:groupContext="shape" transform="translate(160.21,-83.7788)">
				<title>Sheet.21</title>
				<path d="M32.72 520.58 C35.13 526.58 30.29 533.94 21.92 537.04 C13.55 540.14 4.81 537.79 2.41 531.8 C0 525.81 4.84
							 518.42 13.21 515.33 C21.59 512.23 30.32 514.59 32.72 520.58 Z" class="st12"/>
			</g>
			<g id="shape22-49" v:mID="22" v:groupContext="shape" transform="translate(191.502,-199.695)">
				<title>Sheet.22</title>
				<path d="M0.72 527.84 L0.83 533.71 C0.83 533.71 -0 536.87 13.06 538.87 C13.06 538.87 27.19 540.14 29.09 536.87 L28.96
							 525.8 C28.96 525.8 18.88 535.09 1.19 527.61 L0.72 527.84 Z" class="st13"/>
				<path d="M0.72 527.84 L0.83 533.71 C0.83 533.71 -0 536.87 13.06 538.87 C13.06 538.87 27.19 540.14 29.09 536.87 L28.96
							 525.8 C28.96 525.8 18.88 535.09 1.19 527.61" class="st3"/>
			</g>
			<g id="shape23-54" v:mID="23" v:groupContext="shape" transform="translate(189.296,-86.391)">
				<title>Sheet.23</title>
				<path d="M38.59 499.13 L1.77 520.26 C1.77 520.26 8.19 526.82 0 535.43 C-0 535.43 2.13 540.14 13.88 533.82 L39.17
							 519 L38.59 499.13 Z" class="st14"/>
			</g>
			<g id="shape24-56" v:mID="24" v:groupContext="shape" transform="translate(141.923,-119.483)">
				<title>Sheet.24</title>
				<path d="M1.39 540.14 L32.19 522.88 L31.32 503.18 L0 520.38 L1.39 540.14 Z" class="st15"/>
				<path d="M1.39 540.14 L32.19 522.88 L31.32 503.18 L0 520.38" class="st3"/>
			</g>
			<g id="shape25-59" v:mID="25" v:groupContext="shape" transform="translate(180.517,-207.609)">
				<title>Sheet.25</title>
				<path d="M50.65 510.89 C50.65 527.04 39.31 540.14 25.33 540.14 C11.34 540.14 -0 527.04 0 510.89 C-0 494.75 11.34
							 481.64 25.33 481.64 C39.31 481.64 50.65 494.75 50.65 510.89 L-12.66 467.02 L50.65 510.89 Z"
						class="st16"/>
				<path d="M50.65 510.89 C50.65 527.04 39.31 540.14 25.33 540.14 C11.34 540.14 -0 527.04 0 510.89 C-0 494.75 11.34
							 481.64 25.33 481.64 C39.31 481.64 50.65 494.75 50.65 510.89" class="st17"/>
			</g>
			<g id="shape26-64" v:mID="26" v:groupContext="shape" transform="translate(141.204,-106.159)">
				<title>Sheet.26</title>
				<path d="M0 496.65 C10.49 490.77 22.33 484.06 22.33 484.06 L31.97 489.69 L0.89 507.35 L0 496.65 ZM85.94 519.25 L49.86
							 540.14 C49.86 540.14 47.39 536.23 38.68 536.35 C38.68 536.35 39.39 534.31 42.57 532.79 C45.75 531.27
							 76.3 513.63 76.3 513.63 L85.94 519.25 Z" class="st18"/>
				<path d="M0 496.65 C10.49 490.77 22.33 484.06 22.33 484.06 L31.97 489.69 L0.89 507.35M85.94 519.25 L49.86 540.14
							 C49.86 540.14 47.39 536.23 38.68 536.35 C38.68 536.35 39.39 534.31 42.57 532.79 C45.75 531.27 76.3 513.63
							 76.3 513.63 L85.94 519.25" class="st3"/>
			</g>
			<g id="shape27-67" v:mID="27" v:groupContext="shape" transform="translate(141.12,-85.1307)">
				<title>Sheet.27</title>
				<path d="M32.51 489.42 L31.59 451.98 L32.51 489.42 ZM2.22 505.77 L32.73 489.22 L2.22 505.77 ZM76.14 476.58 L76.14
							 492.57 L45.94 509.92 C40.3 513.03 39 514.98 39 514.98 C39 514.98 26.6 515.76 22.41 524.37 C18.21 532.98
							 24.18 542.92 38.39 539.46 C38.39 539.46 45.49 537.43 48.06 534.28 C48.06 534.28 52.41 538.87 67 529.91
							 L106.24 506.86 C112.28 502.82 110.74 492.5 110.74 492.5 C110.01 479.48 108.93 460.41 108.69 457.75 C106.99
							 439.07 93.7 427.79 89.59 424.32 C86.21 421.47 83.02 419.25 79.5 416.97 L79.36 412.49 C86.11 407.25 90.12
							 398.74 90.12 389.12 C90.12 372.94 79.94 359.28 64.72 359.16 C50.84 359.28 39.04 371.87 39.62 389.12
							 C39.62 398.87 43.74 407.48 50.04 412.83 L29.01 424.36 C29.01 424.36 23.71 427.07 23.13 436.6 L21.97
							 463.16 C21.5 463.12 10.15 469.56 0 475.35 L76.14 476.58 Z" class="st19"/>
				<path d="M32.51 489.42 L31.59 451.98M2.22 505.77 L32.73 489.22M76.14 476.58 L76.14 492.57 L45.94 509.92 C40.3 513.03
							 39 514.98 39 514.98 C39 514.98 26.6 515.76 22.41 524.37 C18.21 532.98 24.18 542.92 38.39 539.46 C38.39
							 539.46 45.49 537.43 48.06 534.28 C48.06 534.28 52.41 538.87 67 529.91 L106.24 506.86 C112.28 502.82
							 110.74 492.5 110.74 492.5 C110.01 479.48 108.93 460.41 108.69 457.75 C106.99 439.07 93.7 427.79 89.59
							 424.32 C86.21 421.47 83.02 419.25 79.5 416.97 L79.36 412.49 C86.11 407.25 90.12 398.74 90.12 389.12
							 C90.12 372.94 79.94 359.28 64.72 359.16 C50.84 359.28 39.04 371.87 39.62 389.12 C39.62 398.87 43.74
							 407.48 50.04 412.83 L29.01 424.36 C29.01 424.36 23.71 427.07 23.13 436.6 L21.97 463.16 C21.5 463.12
							 10.15 469.56 0 475.35" class="st20"/>
			</g>
			<g id="shape28-70" v:mID="28" v:groupContext="shape" transform="translate(110.909,-67.1138)">
				<title>Sheet.28</title>
				<path d="M28.92 518.19 L0 500.95 L0 505.72 L29.26 523.16 L29.56 527.7 L33.21 525.52 L57.69 540.1 L87.12 523.16 L82.6
							 520.68 L57.75 535.37 L34.52 521.52 L29.44 446.28 L23.5 449.62 L28.92 518.19 ZM57.67 540.12 L57.75 540.14
							 L57.69 540.1 L57.67 540.12 Z" class="st21"/>
				<path d="M28.92 518.19 L0 500.95 L0 505.72 L29.26 523.16 L29.56 527.7 L33.21 525.52 L57.69 540.1 L87.12 523.16 L82.6
							 520.68 L57.75 535.37 L34.52 521.52 L29.44 446.28 L23.5 449.62 L28.92 518.19M57.67 540.12 L57.75 540.14
							 L57.69 540.1" class="st22"/>
			</g>
			<g id="shape29-73" v:mID="29" v:groupContext="shape" transform="translate(73.6727,-157.633)">
				<title>Sheet.29</title>
				<path d="M60.74 540.14 L0 506.51 L5.82 503.64 L66.68 536.8 L60.74 540.14 Z" class="st23"/>
			</g>
			<g id="shape30-76" v:mID="30" v:groupContext="shape" transform="translate(75.0349,-68.5109)">
				<title>Sheet.30</title>
				<path d="M60.56 526.52 C60.56 534.04 47 540.14 30.27 540.14 C13.55 540.14 0 534.04 0 526.52 C-0 518.99 13.55 512.89
							 30.27 512.89 C47 512.89 60.56 518.99 60.56 526.52 Z" class="st24"/>
			</g>
			<g id="shape31-80" v:mID="31" v:groupContext="shape" transform="translate(73.7047,-79.5577)">
				<title>Sheet.31</title>
				<path d="M0 428.36 L5.14 506.09 L66.77 540.14 L60.74 461.59 L0 428.36 Z" class="st25"/>
			</g>
			<g id="shape32-86" v:mID="32" v:groupContext="shape" transform="translate(81.2218,-70.3762)">
				<title>Sheet.32</title>
				<path d="M16.9 483.44 C1.17 506.12 0 536.26 0 536.26 L9.85 540.14 C9.85 540.14 11.02 509.99 26.74 487.31 L16.9 483.44
							 Z" class="st7"/>
			</g>
			<g id="shape33-89" v:mID="33" v:groupContext="shape" transform="translate(74.9892,-62.9856)">
				<title>Sheet.33</title>
				<path d="M32.97 479.92 L36.27 521.68 L16.27 533.02 C16.27 533.02 17.45 502.87 32.97 479.92 ZM60.56 521.16 C60.56
							 528.68 47 534.79 30.28 534.79 C13.55 534.79 0 528.68 0 521.16 L0 526.52 C0 534.05 13.55 540.14 30.28
							 540.14 C47 540.14 60.57 534.05 60.57 526.52 L60.56 521.16 Z" class="st26"/>
			</g>
			<g id="shape34-91" v:mID="34" v:groupContext="shape" transform="translate(0,-10.6442)">
				<title>Sheet.34</title>
				<path d="M191.16 338.34 L171.38 348.88 C168.56 351.1 167.81 350.74 166.33 353.61 C162.87 360.31 163.33 385.67 163.09
							 388.67 C161.32 388.87 153.08 394.07 141.2 401.13 L141.02 395.99 L140.35 389.81 L79.49 356.65 L73.67
							 359.52 L76.26 398.06 L0 441.4 L0 445.81 L167.81 540.14 L276.75 478.18 L276.75 473.75 L260.81 464.74
							 L264.09 389.11 L249.51 380.79 C245.76 365.84 243.56 359.3 220.62 342.48 C220.55 340.26 220.5 340.04
							 220.48 338 C228.47 330.73 231.93 322.26 231.19 312.77 C230.39 294.86 217.21 283.29 205.84 284.68 C190.59
							 285.8 182.08 295.37 180.55 312.37 C180.59 316.18 178.79 326.07 191.16 338.34 Z" class="st27"/>
			</g>
		</g>
		<g id="shape1-93" v:mID="1" v:groupContext="shape" transform="translate(373.74,-228.5)">
			<title>Sheet.1</title>
			<desc>?</desc>
			<v:textBlock v:margins="rect(2,2,2,2)"/>
			<v:textRect cx="24.75" cy="510.44" width="49.5" height="59.4"/>
			<rect x="0" y="480.74" width="49.5" height="59.4" class="st28"/>
			<text x="10.85" y="528.44" class="st29" v:langID="1031"><v:paragraph v:horizAlign="1"/><v:tabList/>?</text>		</g>
		<g id="shape2-96" v:mID="2" v:groupContext="shape" transform="translate(414.24,-210.5)">
			<title>Sheet.2</title>
			<desc>?</desc>
			<v:textBlock v:margins="rect(2,2,2,2)"/>
			<v:textRect cx="24.75" cy="510.44" width="49.5" height="59.4"/>
			<rect x="0" y="480.74" width="49.5" height="59.4" class="st28"/>
			<text x="10.85" y="528.44" class="st29" v:langID="1031"><v:paragraph v:horizAlign="1"/><v:tabList/>?</text>		</g>
		<g id="shape3-99" v:mID="3" v:groupContext="shape" transform="translate(407.49,-264.5)">
			<title>Sheet.3</title>
			<desc>?</desc>
			<v:textBlock v:margins="rect(2,2,2,2)"/>
			<v:textRect cx="24.75" cy="510.44" width="49.5" height="59.4"/>
			<rect x="0" y="480.74" width="49.5" height="59.4" class="st28"/>
			<text x="10.85" y="528.44" class="st29" v:langID="1031"><v:paragraph v:horizAlign="1"/><v:tabList/>?</text>		</g>
		<g id="shape4-102" v:mID="4" v:groupContext="shape" transform="translate(378.24,-282.5)">
			<title>Sheet.4</title>
			<desc>?</desc>
			<v:textBlock v:margins="rect(2,2,2,2)"/>
			<v:textRect cx="24.75" cy="510.44" width="49.5" height="59.4"/>
			<rect x="0" y="480.74" width="49.5" height="59.4" class="st28"/>
			<text x="10.85" y="528.44" class="st29" v:langID="1031"><v:paragraph v:horizAlign="1"/><v:tabList/>?</text>		</g>
		<g id="shape5-105" v:mID="5" v:groupContext="shape" transform="translate(346.74,-276.2)">
			<title>Sheet.5</title>
			<desc>?</desc>
			<v:textBlock v:margins="rect(2,2,2,2)"/>
			<v:textRect cx="24.75" cy="510.44" width="49.5" height="59.4"/>
			<rect x="0" y="480.74" width="49.5" height="59.4" class="st28"/>
			<text x="10.85" y="528.44" class="st29" v:langID="1031"><v:paragraph v:horizAlign="1"/><v:tabList/>?</text>		</g>
		<g id="shape6-108" v:mID="6" v:groupContext="shape" transform="translate(330.99,-228.5)">
			<title>Sheet.6</title>
			<desc>?</desc>
			<v:textBlock v:margins="rect(2,2,2,2)"/>
			<v:textRect cx="24.75" cy="510.44" width="49.5" height="59.4"/>
			<rect x="0" y="480.74" width="49.5" height="59.4" class="st28"/>
			<text x="10.85" y="528.44" class="st29" v:langID="1031"><v:paragraph v:horizAlign="1"/><v:tabList/>?</text>		</g>
		<g id="shape7-111" v:mID="7" v:groupContext="shape" transform="translate(0.24,756.38) scale(1,-1)">
			<title>45 degree single</title>
			<desc>Process-Oriented Simulation</desc>
			<v:userDefs>
				<v:ud v:nameU="visVersion" v:val="VT0(14):26"/>
			</v:userDefs>
			<v:textBlock v:margins="rect(4,4,4,4)"/>
			<v:textRect cx="162" cy="486.14" width="324" height="108"/>
			<path d="M0 486.14 L54 432.14 L54 467.78 L324 467.78 L324 504.5 L54 504.5 L54 540.14 L0 486.14 Z" class="st30"/>
			<text x="22.95" y="-478.94" transform="scale(1,-1)" class="st31" v:langID="1031"><v:paragraph v:horizAlign="1"/><v:tabList/>Process-Oriented Simulation</text>		</g>
		<g id="shape8-114" v:mID="8" v:groupContext="shape" transform="translate(-94.4,0.24) rotate(-90) scale(-1,1)">
			<title>45 degree single.8</title>
			<desc>Event-Based Simulation</desc>
			<v:userDefs>
				<v:ud v:nameU="visVersion" v:val="VT0(14):26"/>
			</v:userDefs>
			<v:textBlock v:margins="rect(4,4,4,4)"/>
			<v:textRect cx="69.75" cy="502.452" width="313.88" height="99" transform="rotate(90)"/>
			<path d="M0 490.64 L49.5 441.14 L49.5 473.81 L191.25 473.81 L191.25 507.47 L49.5 507.47 L49.5 540.14 L0 490.64 Z"
					class="st30"/>
			<text x="358.36" y="78.75" transform="rotate(-90) scale(-1,1)" class="st32" v:langID="1031"><v:paragraph
						v:horizAlign="1"/><v:tabList/>Event-Based Simulation</text>		</g>
		<g id="shape9-117" v:mID="9" v:groupContext="shape" transform="translate(720.24,-193.4) scale(-1,1)">
			<title>45 degree single.9</title>
			<desc>Process-Interaction Simulation</desc>
			<v:userDefs>
				<v:ud v:nameU="visVersion" v:val="VT0(14):26"/>
			</v:userDefs>
			<v:textBlock v:margins="rect(4,4,4,4)"/>
			<v:textRect cx="141.75" cy="463.64" width="256.5" height="132.75"/>
			<path d="M0 463.64 L76.5 387.14 L76.5 437.63 L256.5 437.63 L256.5 489.65 L76.5 489.65 L76.5 540.14 L0 463.64 Z"
					class="st30"/>
			<text x="-236.3" y="456.44" transform="scale(-1,1)" class="st31" v:langID="1031"><v:paragraph v:horizAlign="1"/><v:tabList/>Process-Interaction <tspan
						x="-193.82" dy="1.2em" class="st33">Simulation</tspan></text>		</g>
		<g id="shape35-121" v:mID="35" v:groupContext="shape" transform="translate(275.865,-350.9)">
			<title>Sheet.35</title>
			<desc>Event Scheduling Future Events List</desc>
			<v:textBlock v:margins="rect(2,2,2,2)"/>
			<v:textRect cx="120.375" cy="494.015" width="231.75" height="56.25"/>
			<rect x="0" y="483.89" width="231.75" height="56.25" class="st28"/>
			<text x="37.15" y="486.82" class="st34" v:langID="1031"><v:paragraph v:horizAlign="1"/><v:tabList/>Event Scheduling<v:lf/><tspan
						x="33.87" dy="1.2em" class="st33">Future Events List</tspan></text>		</g>
		<g id="shape36-125" v:mID="36" v:groupContext="shape" transform="translate(57.615,-294.65)">
			<title>Sheet.36</title>
			<desc>Queuing/Processing Networks</desc>
			<v:textBlock v:margins="rect(2,2,2,2)"/>
			<v:textRect cx="151.313" cy="528.89" width="302.63" height="22.5"/>
			<rect x="0" y="517.64" width="302.625" height="22.5" class="st28"/>
			<text x="3.78" y="536.09" class="st34" v:langID="1031"><v:paragraph v:horizAlign="1"/><v:tabList/>Queuing/Processing Networks</text>		</g>
		<g id="shape37-128" v:mID="37" v:groupContext="shape" transform="translate(468.24,-218.15)">
			<title>Sheet.37</title>
			<desc>with Co-Routines</desc>
			<v:textBlock v:margins="rect(2,2,2,2)"/>
			<v:textRect cx="86.625" cy="528.89" width="173.25" height="22.5"/>
			<rect x="0" y="517.64" width="173.25" height="22.5" class="st28"/>
			<text x="2.97" y="536.09" class="st34" v:langID="1031"><v:paragraph v:horizAlign="1"/><v:tabList/>with Co-Routines</text>		</g>
		<g id="shape38-131" v:mID="38" v:groupContext="shape" transform="translate(336.652,-359.231) rotate(-43.5679) scale(-1,1)">
			<title>45 degree single.38</title>
			<desc>Petri Nets, Activity Cycle Diagrams</desc>
			<v:userDefs>
				<v:ud v:nameU="visVersion" v:val="VT0(14):26"/>
			</v:userDefs>
			<v:textBlock v:margins="rect(4,4,4,4)"/>
			<v:textRect cx="127.319" cy="527.177" width="254.64" height="25.925" transform="rotate(43.5679)"/>
			<path d="M0 527.18 L12.96 514.21 L12.96 522.77 L254.64 522.77 L254.64 531.58 L12.96 531.58 L12.96 540.14 L0 527.18 Z"
					class="st35"/>
			<text x="219.82" y="462.52" transform="rotate(-43.5679) scale(-1,1)" class="st31" v:langID="1031"><v:paragraph
						v:horizAlign="1"/><v:tabList/>Petri Nets,<v:lf/><tspan x="157.87" dy="1.2em" class="st33">Activity Cycle Diagrams</tspan></text>		</g>
		<g id="shape39-135" v:mID="39" v:groupContext="shape" transform="translate(-291.683,416.051) rotate(41.0091) scale(1,-1)">
			<title>45 degree single.39</title>
			<desc>Finite State Machines, DEVS</desc>
			<v:userDefs>
				<v:ud v:nameU="visVersion" v:val="VT0(14):26"/>
			</v:userDefs>
			<v:textBlock v:margins="rect(4,4,4,4)"/>
			<v:textRect cx="146.193" cy="516.788" width="274.32" height="53.4625" transform="rotate(-41.0091)"/>
			<path d="M0 527.18 L12.96 514.21 L12.96 522.77 L274.32 522.77 L274.32 531.58 L12.96 531.58 L12.96 540.14 L0 527.18 Z"
					class="st35"/>
			<text x="341.31" y="-301.24" transform="rotate(41.0091) scale(1,-1)" class="st31" v:langID="1031"><v:paragraph
						v:horizAlign="1"/><v:tabList/>Finite State Machines, <tspan x="423.86" dy="1.2em" class="st33">DEVS</tspan></text>		</g>
		<g id="shape40-139" v:mID="40" v:groupContext="shape" transform="translate(720.24,-89.9) scale(-1,1)">
			<title>45 degree single.40</title>
			<desc>Agent-Based Simulation</desc>
			<v:userDefs>
				<v:ud v:nameU="visVersion" v:val="VT0(14):26"/>
			</v:userDefs>
			<v:textBlock v:margins="rect(4,4,4,4)"/>
			<v:textRect cx="128.25" cy="490.64" width="234" height="99"/>
			<path d="M0 490.64 L49.5 441.14 L49.5 473.81 L234 473.81 L234 507.47 L49.5 507.47 L49.5 540.14 L0 490.64 Z"
					class="st30"/>
			<text x="-225.4" y="496.64" transform="scale(-1,1)" class="st36" v:langID="1031"><v:paragraph v:horizAlign="1"/><v:tabList/>Agent-Based Simulation</text>		</g>
		<g id="shape41-142" v:mID="41" v:groupContext="shape" transform="translate(54.24,-224.9)">
			<title>Sheet.41</title>
			<desc>= Process-Interaction Simulation?</desc>
			<v:textBlock v:margins="rect(2,2,2,2)"/>
			<v:textRect cx="128.25" cy="526.64" width="256.5" height="27"/>
			<rect x="0" y="513.14" width="256.5" height="27" class="st28"/>
			<text x="5.57" y="532.04" class="st37" v:langID="1031"><v:paragraph v:horizAlign="1"/><v:tabList/>= Process-Interaction Simulation?</text>		</g>
		<g id="shape42-145" v:mID="42" v:groupContext="shape" transform="translate(470.49,-178.212)">
			<title>Sheet.42</title>
			<desc>Simula (1966), SimPy, ...</desc>
			<v:textBlock v:margins="rect(2,2,2,2)"/>
			<v:textRect cx="64.125" cy="520.452" width="128.25" height="39.375"/>
			<rect x="0" y="500.765" width="128.25" height="39.375" class="st28"/>
			<text x="2" y="515.05" class="st38" v:langID="1031"><v:paragraph/><v:tabList/>Simula (1966), <v:lf/><tspan x="2"
						dy="1.2em" class="st33">SimPy</tspan>, ...</text>		</g>
		<g id="shape43-149" v:mID="43" v:groupContext="shape" transform="translate(57.615,-157.4)">
			<title>Sheet.43</title>
			<desc>GPSS (1961), SIMAN/Arena, ProModel, ExtendSim, Simio, AnyLogi...</desc>
			<v:textBlock v:margins="rect(2,2,2,2)"/>
			<v:textRect cx="104.625" cy="501.89" width="209.25" height="76.5"/>
			<rect x="0" y="463.64" width="209.25" height="76.5" class="st28"/>
			<text x="2" y="485.69" class="st38" v:langID="1031"><v:paragraph/><v:tabList/>GPSS (1961), SIMAN/Arena, <tspan x="2"
						dy="1.2em" class="st33">ProModel</tspan>, ExtendSim, <tspan x="2" dy="1.2em" class="st33">Simio</tspan>, AnyLogic, ...</text>		</g>
		<g id="shape44-154" v:mID="44" v:groupContext="shape" transform="translate(490.74,-78.65)">
			<title>Sheet.44</title>
			<desc>Individual-Based Simulation, Micro-Simulation</desc>
			<v:textBlock v:margins="rect(2,2,2,2)"/>
			<v:textRect cx="108" cy="521.015" width="216" height="38.25"/>
			<rect x="0" y="501.89" width="216" height="38.25" class="st28"/>
			<text x="2" y="515.61" class="st37" v:langID="1031"><v:paragraph/><v:tabList/>Individual-Based Simulation, <v:lf/><tspan
						x="2" dy="1.2em" class="st33">Micro</tspan>-Simulation</text>		</g>
		<g id="shape45-158" v:mID="45" v:groupContext="shape" transform="translate(432.24,-501.65)">
			<title>Sheet.45</title>
			<desc>SIMSCRIPT (1962)</desc>
			<v:textBlock v:margins="rect(2,2,2,2)"/>
			<v:textRect cx="68.625" cy="525.515" width="137.25" height="29.25"/>
			<rect x="0" y="510.89" width="137.25" height="29.25" class="st28"/>
			<text x="3.67" y="530.92" class="st38" v:langID="1031"><v:paragraph v:horizAlign="1"/><v:tabList/>SIMSCRIPT (1962)</text>		</g>
		<g id="shape46-161" v:mID="46" v:groupContext="shape" transform="translate(276.99,-429.65)">
			<title>Sheet.46</title>
			<desc>Event Graphs (Schruben 1983)</desc>
			<v:textBlock v:margins="rect(2,2,2,2)"/>
			<v:textRect cx="128.25" cy="526.64" width="256.5" height="27"/>
			<rect x="0" y="513.14" width="256.5" height="27" class="st28"/>
			<text x="4.85" y="532.64" class="st36" v:langID="1031"><v:paragraph v:horizAlign="1"/><v:tabList/>Event Graphs (Schruben 1983)</text>		</g>
		<g id="shape47-164" v:mID="47" v:groupContext="shape" transform="translate(46.365,-294.65)">
			<title>Sheet.47</title>
			<desc>Activities</desc>
			<v:textBlock v:margins="rect(2,2,2,2)"/>
			<v:textRect cx="60.1875" cy="506.93" width="115.88" height="40.5"/>
			<rect x="0" y="499.64" width="115.875" height="40.5" class="st28"/>
			<text x="15.79" y="514.13" class="st34" v:langID="1031"><v:paragraph v:horizAlign="1"/><v:tabList/>Activities</text>		</g>
	</g>
</svg>
