<?xml version="1.0" encoding="UTF-8" standalone="no"?>
<!DOCTYPE svg PUBLIC "-//W3C//DTD SVG 1.0//EN" "http://www.w3.org/TR/2001/REC-SVG-20010904/DTD/svg10.dtd">
<!-- Generated by Microsoft Visio 11.0, SVG Export, v1.0 ModelTransformations.svg Page-1 -->
<svg xmlns="http://www.w3.org/2000/svg" xmlns:xlink="http://www.w3.org/1999/xlink" xmlns:ev="http://www.w3.org/2001/xml-events"
		xmlns:v="http://schemas.microsoft.com/visio/2003/SVGExtensions/" width="4.23243in" height="1.97341in"
		viewBox="0 0 304.735 142.086" xml:space="preserve" color-interpolation-filters="sRGB" class="st8">
	<v:documentProperties v:langID="1033" v:metric="true" v:viewMarkup="false"/>

	<style type="text/css">
	<![CDATA[
		.st1 {fill:#dde2cd;stroke:none;stroke-linecap:round;stroke-linejoin:round;stroke-width:0.24}
		.st2 {fill:#000000;font-family:Calibri;font-size:0.666664em}
		.st3 {font-size:1em}
		.st4 {fill:#dde2cd;stroke:#000000;stroke-linecap:round;stroke-linejoin:round;stroke-width:0.24}
		.st5 {fill:#a5a5a5;stroke:#000000;stroke-linecap:round;stroke-linejoin:round;stroke-width:0.24}
		.st6 {fill:none;stroke:none;stroke-linecap:round;stroke-linejoin:round;stroke-width:0.75}
		.st7 {fill:#000000;font-family:Calibri;font-size:0.499992em}
		.st8 {fill:none;fill-rule:evenodd;font-size:12px;overflow:visible;stroke-linecap:square;stroke-miterlimit:3}
	]]>
	</style>

	<g v:mID="0" v:index="1" v:groupContext="foregroundPage">
		<title>Page-1</title>
		<v:pageProperties v:drawingScale="0.0393701" v:pageScale="0.0393701" v:drawingUnits="24" v:shadowOffsetX="8.50394"
				v:shadowOffsetY="-8.50394"/>
		<g id="shape2-1" v:mID="2" v:groupContext="shape" transform="translate(191.818,-0.24)">
			<title>Rectangle.16</title>
			<desc>Different Platforms</desc>
			<v:userDefs>
				<v:ud v:nameU="visVersion" v:val="VT0(14):26"/>
			</v:userDefs>
			<v:textBlock v:margins="rect(4,4,4,4)" v:tabSpace="42.5197" v:verticalAlign="0"/>
			<v:textRect cx="20.1969" cy="74.0541" width="40.4" height="136.063"/>
			<rect x="0" y="6.02264" width="40.3937" height="136.063" class="st1"/>
			<text x="5.56" y="17.22" class="st2" v:langID="1031"><v:paragraph v:horizAlign="1"/><v:tabList/>Different <tspan
						x="4.47" dy="1.2em" class="st3">Platforms</tspan></text>		</g>
		<g id="shape3-5" v:mID="3" v:groupContext="shape" transform="translate(80.5578,-0.24)">
			<title>Rectangle.3</title>
			<desc>Different Solutions (Design Choices)</desc>
			<v:userDefs>
				<v:ud v:nameU="visVersion" v:val="VT0(14):26"/>
			</v:userDefs>
			<v:textBlock v:margins="rect(4,4,4,4)" v:tabSpace="42.5197" v:verticalAlign="0"/>
			<v:textRect cx="19.1339" cy="74.7628" width="38.27" height="134.646"/>
			<rect x="0" y="7.43996" width="38.2677" height="134.646" class="st1"/>
			<text x="4.5" y="18.64" class="st2" v:langID="1031"><v:paragraph v:horizAlign="1"/><v:tabList/>Different <tspan
						x="4.13" dy="1.2em" class="st3">Solutions </tspan><tspan x="7" dy="1.2em" class="st3">(</tspan>Design <tspan
						x="5.41" dy="1.2em" class="st3">Choices</tspan>)</text>		</g>
		<g id="shape4-11" v:mID="4" v:groupContext="shape" transform="translate(1.18767,-27.1691)">
			<title>Star 7</title>
			<desc>Conceptual Model</desc>
			<v:userDefs>
				<v:ud v:nameU="visVersion" v:val="VT0(14):26"/>
			</v:userDefs>
			<v:textBlock v:margins="rect(4,4,4,4)" v:tabSpace="42.5197"/>
			<v:textRect cx="36.8504" cy="105.235" width="49.14" height="49.1339"/>
			<path d="M26.63 85.38 L6.54 82.98 L13.28 101.78 L-0.95 115.78 L17.95 122.23 L20.03 142.09 L36.85 131.33 L53.67 142.09
						 L55.75 122.23 L74.65 115.78 L60.42 101.78 L67.16 82.98 L47.34 85.38 L36.85 68.38 L26.63 85.38 Z"
					class="st4"/>
			<text x="18.45" y="102.84" class="st2" v:langID="1031"><v:paragraph v:horizAlign="1"/><v:tabList/>Conceptual <tspan
						x="26.31" dy="1.2em" class="st3">Model</tspan></text>		</g>
		<g id="shape5-15" v:mID="5" v:groupContext="shape" transform="translate(156.245,-12.9329) rotate(18.4349) scale(-1,1)">
			<title>45 degree single.4</title>
			<v:userDefs>
				<v:ud v:nameU="visVersion" v:val="VT0(14):26"/>
			</v:userDefs>
			<path d="M0 136.26 L5.83 130.43 L5.83 134.28 L26.89 134.28 L26.89 138.24 L5.83 138.24 L5.83 142.09 L0 136.26 Z"
					class="st5"/>
		</g>
		<g id="shape6-17" v:mID="6" v:groupContext="shape" transform="translate(237.881,-99.4526)">
			<title>Rectangle</title>
			<desc>Arena Model</desc>
			<v:userDefs>
				<v:ud v:nameU="visVersion" v:val="VT0(14):26"/>
			</v:userDefs>
			<v:textBlock v:margins="rect(4,4,4,4)" v:tabSpace="42.5197"/>
			<v:textRect cx="32.5984" cy="130.038" width="65.2" height="24.0945"/>
			<rect x="0" y="117.991" width="65.1969" height="24.0945" class="st4"/>
			<text x="11.44" y="132.44" class="st2" v:langID="1031"><v:paragraph v:horizAlign="1"/><v:tabList/>Arena Model</text>		</g>
		<g id="shape7-20" v:mID="7" v:groupContext="shape" transform="translate(57.8161,-59.2049) rotate(-23.9625) scale(-1,1)">
			<title>45 degree single.3</title>
			<v:userDefs>
				<v:ud v:nameU="visVersion" v:val="VT0(14):26"/>
			</v:userDefs>
			<path d="M0 136.26 L5.83 130.43 L5.83 134.28 L27.92 134.28 L27.92 138.24 L5.83 138.24 L5.83 142.09 L0 136.26 Z"
					class="st5"/>
		</g>
		<g id="shape8-22" v:mID="8" v:groupContext="shape" transform="translate(123.786,-70.7518)">
			<title>Rounded rectangle</title>
			<desc>Design Model 1</desc>
			<v:userDefs>
				<v:ud v:nameU="visVersion" v:val="VT0(14):26"/>
			</v:userDefs>
			<v:textBlock v:margins="rect(4,4,4,4)" v:tabSpace="42.5197"/>
			<v:textRect cx="31.8898" cy="129.153" width="63.78" height="25.8661"/>
			<path d="M50.85 142.09 A12.9332 12.9332 -180 0 0 63.78 129.15 A12.9332 12.9332 -180 0 0 50.85 116.22 L12.93 116.22 A12.9332
						 12.9332 -180 0 0 0 129.15 A12.9332 12.9332 -180 0 0 12.93 142.09 L50.85 142.09 Z" class="st4"/>
			<text x="6.6" y="131.55" class="st2" v:langID="1031"><v:paragraph v:horizAlign="1"/><v:tabList/>Design Model 1</text>		</g>
		<g id="shape9-25" v:mID="9" v:groupContext="shape" transform="translate(123.786,-3.07465)">
			<title>Rounded rectangle.6</title>
			<desc>Design Model 2</desc>
			<v:userDefs>
				<v:ud v:nameU="visVersion" v:val="VT0(14):26"/>
			</v:userDefs>
			<v:textBlock v:margins="rect(4,4,4,4)" v:tabSpace="42.5197"/>
			<v:textRect cx="31.8898" cy="129.153" width="63.78" height="25.8661"/>
			<path d="M50.85 142.09 A12.9332 12.9332 -180 0 0 63.78 129.15 A12.9332 12.9332 -180 0 0 50.85 116.22 L12.93 116.22 A12.9332
						 12.9332 -180 0 0 0 129.15 A12.9332 12.9332 -180 0 0 12.93 142.09 L50.85 142.09 Z" class="st4"/>
			<text x="6.6" y="131.55" class="st2" v:langID="1031"><v:paragraph v:horizAlign="1"/><v:tabList/>Design Model 2</text>		</g>
		<g id="shape10-28" v:mID="10" v:groupContext="shape" transform="translate(169.785,-86.134) rotate(-23.9625) scale(-1,1)">
			<title>45 degree single.8</title>
			<v:userDefs>
				<v:ud v:nameU="visVersion" v:val="VT0(14):26"/>
			</v:userDefs>
			<path d="M0 136.26 L5.83 130.43 L5.83 134.28 L27.92 134.28 L27.92 138.24 L5.83 138.24 L5.83 142.09 L0 136.26 Z"
					class="st5"/>
		</g>
		<g id="shape11-30" v:mID="11" v:groupContext="shape" transform="translate(237.881,-70.3975)">
			<title>Rectangle.9</title>
			<desc>Simio Model</desc>
			<v:userDefs>
				<v:ud v:nameU="visVersion" v:val="VT0(14):26"/>
			</v:userDefs>
			<v:textBlock v:margins="rect(4,4,4,4)" v:tabSpace="42.5197"/>
			<v:textRect cx="32.5984" cy="130.038" width="65.2" height="24.0945"/>
			<rect x="0" y="117.991" width="65.1969" height="24.0945" class="st4"/>
			<text x="12.18" y="132.44" class="st2" v:langID="1031"><v:paragraph v:horizAlign="1"/><v:tabList/>Simio Model</text>		</g>
		<g id="shape12-33" v:mID="12" v:groupContext="shape" transform="translate(237.881,-39.925)">
			<title>Rectangle.10</title>
			<desc>AnyLogic Model</desc>
			<v:userDefs>
				<v:ud v:nameU="visVersion" v:val="VT0(14):26"/>
			</v:userDefs>
			<v:textBlock v:margins="rect(4,4,4,4)" v:tabSpace="42.5197"/>
			<v:textRect cx="32.5984" cy="130.038" width="65.2" height="24.0945"/>
			<rect x="0" y="117.991" width="65.1969" height="24.0945" class="st4"/>
			<text x="6.65" y="132.44" class="st2" v:langID="1031"><v:paragraph v:horizAlign="1"/><v:tabList/>AnyLogic Model</text>		</g>
		<g id="shape13-36" v:mID="13" v:groupContext="shape" transform="translate(227.959,-75.2008) scale(-1,1)">
			<title>45 degree single.11</title>
			<v:userDefs>
				<v:ud v:nameU="visVersion" v:val="VT0(14):26"/>
			</v:userDefs>
			<path d="M0 136.26 L5.83 130.43 L5.83 134.28 L26.93 134.28 L26.93 138.24 L5.83 138.24 L5.83 142.09 L0 136.26 Z"
					class="st5"/>
		</g>
		<g id="shape14-38" v:mID="14" v:groupContext="shape" transform="translate(288.879,-33.8541) rotate(27.8973) scale(-1,1)">
			<title>45 degree single.12</title>
			<v:userDefs>
				<v:ud v:nameU="visVersion" v:val="VT0(14):26"/>
			</v:userDefs>
			<path d="M0 136.26 L5.83 130.43 L5.83 134.28 L27.26 134.28 L27.26 138.24 L5.83 138.24 L5.83 142.09 L0 136.26 Z"
					class="st5"/>
		</g>
		<g id="shape15-40" v:mID="15" v:groupContext="shape" transform="translate(239.298,-3.07465)">
			<title>Rectangle.13</title>
			<desc>JaamSim Model</desc>
			<v:userDefs>
				<v:ud v:nameU="visVersion" v:val="VT0(14):26"/>
			</v:userDefs>
			<v:textBlock v:margins="rect(4,4,4,4)" v:tabSpace="42.5197"/>
			<v:textRect cx="32.5984" cy="130.038" width="65.2" height="24.0945"/>
			<rect x="0" y="117.991" width="65.1969" height="24.0945" class="st4"/>
			<text x="6.9" y="132.44" class="st2" v:langID="1031"><v:paragraph v:horizAlign="1"/><v:tabList/>JaamSim Model</text>		</g>
		<g id="shape16-43" v:mID="16" v:groupContext="shape" transform="translate(229.377,-11.4213) scale(-1,1)">
			<title>45 degree single.14</title>
			<v:userDefs>
				<v:ud v:nameU="visVersion" v:val="VT0(14):26"/>
			</v:userDefs>
			<path d="M0 136.26 L5.83 130.43 L5.83 134.28 L28.35 134.28 L28.35 138.24 L5.83 138.24 L5.83 142.09 L0 136.26 Z"
					class="st5"/>
		</g>
		<g id="shape17-45" v:mID="17" v:groupContext="shape" transform="translate(7.56563,-4.49197)">
			<title>Sheet.17</title>
			<desc>CC-BY Gerd Wagner</desc>
			<v:textBlock v:margins="rect(4,4,4,4)" v:tabSpace="42.5197"/>
			<v:textRect cx="30.4724" cy="137.125" width="60.95" height="9.92126"/>
			<rect x="0" y="132.164" width="60.9449" height="9.92126" class="st6"/>
			<text x="6.26" y="138.93" class="st7" v:langID="1031"><v:paragraph v:horizAlign="1"/><v:tabList/>CC-BY Gerd Wagner</text>		</g>
		<g id="shape18-48" v:mID="18" v:groupContext="shape" transform="translate(237.881,-129.216)">
			<title>Sheet.18</title>
			<desc>Implementation</desc>
			<v:textBlock v:margins="rect(4,4,4,4)" v:tabSpace="42.5197"/>
			<v:textRect cx="31.1811" cy="136.416" width="62.37" height="11.3386"/>
			<rect x="0" y="130.747" width="62.3622" height="11.3386" class="st6"/>
			<text x="4.96" y="140.02" class="st2" v:langID="1031"><v:paragraph v:horizAlign="1"/><v:tabList/>Implementation</text>		</g>
		<g id="shape19-51" v:mID="19" v:groupContext="shape" transform="translate(123.077,-129.216)">
			<title>Sheet.19</title>
			<desc>Design</desc>
			<v:textBlock v:margins="rect(4,4,4,4)" v:tabSpace="42.5197"/>
			<v:textRect cx="31.1811" cy="136.416" width="62.37" height="11.3386"/>
			<rect x="0" y="130.747" width="62.3622" height="11.3386" class="st6"/>
			<text x="20.26" y="140.02" class="st2" v:langID="1031"><v:paragraph v:horizAlign="1"/><v:tabList/>Design</text>		</g>
		<g id="shape20-54" v:mID="20" v:groupContext="shape" transform="translate(4.02232,-129.216)">
			<title>Sheet.20</title>
			<desc>Conceptualization</desc>
			<v:textBlock v:margins="rect(4,4,4,4)" v:tabSpace="42.5197"/>
			<v:textRect cx="34.0157" cy="136.416" width="68.04" height="11.3386"/>
			<rect x="0" y="130.747" width="68.0315" height="11.3386" class="st6"/>
			<text x="4.73" y="140.02" class="st2" v:langID="1031"><v:paragraph v:horizAlign="1"/><v:tabList/>Conceptualization</text>		</g>
	</g>
</svg>
