<?xml version="1.0" encoding="UTF-8" standalone="no"?>
<!DOCTYPE svg PUBLIC "-//W3C//DTD SVG 1.0//EN" "http://www.w3.org/TR/2001/REC-SVG-20010904/DTD/svg10.dtd">
<!-- Generated by Microsoft Visio 11.0, SVG Export, v1.0 OES-Enlightenment.svg Page-1 -->
<svg xmlns="http://www.w3.org/2000/svg" xmlns:xlink="http://www.w3.org/1999/xlink" xmlns:ev="http://www.w3.org/2001/xml-events"
		xmlns:v="http://schemas.microsoft.com/visio/2003/SVGExtensions/" width="10.1596in" height="8.12833in"
		viewBox="0 0 731.49 585.24" xml:space="preserve" color-interpolation-filters="sRGB" class="st40">
	<v:documentProperties v:langID="1033" v:viewMarkup="false"/>

	<style type="text/css">
	<![CDATA[
		.st1 {fill:#000000;fill-opacity:0;stroke:none;stroke-linecap:round;stroke-linejoin:round;stroke-width:0.75}
		.st2 {fill:#cc6633}
		.st3 {stroke:none;stroke-linecap:round;stroke-linejoin:round;stroke-width:0.75}
		.st4 {fill:url(#grad30-10)}
		.st5 {fill:url(#grad36-15);stroke:none;stroke-linecap:round;stroke-linejoin:round;stroke-width:0.75}
		.st6 {fill:#cc6633;stroke:#cc6633;stroke-linecap:butt;stroke-width:0.2175}
		.st7 {fill:url(#grad32-21);stroke:#295687;stroke-linecap:round;stroke-linejoin:round;stroke-width:0.375}
		.st8 {fill:url(#grad33-27)}
		.st9 {fill:url(#grad25-34)}
		.st10 {fill:url(#grad31-39)}
		.st11 {fill:#658eb8;stroke:none;stroke-linecap:round;stroke-linejoin:round;stroke-width:0.75}
		.st12 {fill:url(#grad38-48);stroke:none;stroke-linecap:round;stroke-linejoin:round;stroke-width:0.75}
		.st13 {fill:url(#grad25-52)}
		.st14 {fill:#7bb4d2;stroke:none;stroke-linecap:round;stroke-linejoin:round;stroke-width:0.75}
		.st15 {fill:#7bb4d2}
		.st16 {fill:url(#grad40-62)}
		.st17 {stroke:#d75139;stroke-linecap:butt;stroke-width:0.375}
		.st18 {fill:#ffffff}
		.st19 {fill:none}
		.st20 {stroke:#295687;stroke-linecap:round;stroke-linejoin:round;stroke-width:0.375}
		.st21 {fill:#295687}
		.st22 {stroke:#295687;stroke-linecap:butt;stroke-width:0.2175}
		.st23 {fill:url(#grad25-34);stroke:none;stroke-linecap:round;stroke-linejoin:round;stroke-width:0.75}
		.st24 {fill:url(#grad36-79);stroke:#295687;stroke-linecap:butt;stroke-width:0.375}
		.st25 {fill:url(#grad31-83);stroke:#295687;stroke-linecap:butt;stroke-width:0.375}
		.st26 {fill:#295687;stroke:#295687;stroke-linecap:butt;stroke-width:0.3732}
		.st27 {fill:none;stroke:#000000;stroke-linecap:round;stroke-linejoin:round;stroke-width:0.72}
		.st28 {fill:none;stroke:none;stroke-linecap:round;stroke-linejoin:round;stroke-width:0.75}
		.st29 {fill:#000000;font-family:Calibri;font-size:4.99999em}
		.st30 {fill:#dde2cd;stroke:#000000;stroke-linecap:round;stroke-linejoin:round;stroke-width:0.24}
		.st31 {fill:#000000;font-family:Calibri;font-size:1.99999em}
		.st32 {font-size:1em}
		.st33 {fill:#000000;font-family:Calibri;font-size:2.50001em}
		.st34 {fill:#00b050;font-family:Calibri;font-size:1.99999em}
		.st35 {fill:#0070c0;font-family:Calibri;font-size:1.5em}
		.st36 {fill:#0070c0;font-family:Calibri;font-size:1.83334em}
		.st37 {fill:#000000;font-family:Calibri;font-size:1.66667em}
		.st38 {fill:#0070c0;font-family:Calibri;font-size:1.99999em}
		.st39 {fill:#1f477d;font-family:Calibri;font-size:4.99999em}
		.st40 {fill:none;fill-rule:evenodd;font-size:12px;overflow:visible;stroke-linecap:square;stroke-miterlimit:3}
	]]>
	</style>

	<defs id="Patterns_And_Gradients">
		<linearGradient id="grad30-10" v:fillPattern="30" v:foreground="#f6f8b0" v:background="#dab971" x1="0" y1="1" x2="0" y2="0">
			<stop offset="0" style="stop-color:#f6f8b0;stop-opacity:1"/>
			<stop offset="1" style="stop-color:#dab971;stop-opacity:1"/>
		</linearGradient>
		<radialGradient id="grad36-15" v:fillPattern="36" v:foreground="#f6f8b0" v:background="#dab971" cx="0" cy="0" r="1">
			<stop offset="0" style="stop-color:#f6f8b0;stop-opacity:1"/>
			<stop offset="1" style="stop-color:#dab971;stop-opacity:1"/>
		</radialGradient>
		<pattern id="grad32-21" v:fillPattern="32" v:foreground="#ffffff" v:background="#b8e6ef" x="0" y="0" width="1" height="1"
				patternContentUnits="objectBoundingBox">
			<path d="M 0 1 L 0 0 L 1 0 z" style="fill:url(#grad27-22)"/>
			<path d="M 0 1 L 1 1 L 1 0 z" style="fill:url(#grad28-23)"/>
		</pattern>
		<linearGradient id="grad27-22" v:fillPattern="32" v:foreground="#ffffff" v:background="#b8e6ef" x1="1" y1="0" x2="0" y2="0">
			<stop offset="0" style="stop-color:#ffffff;stop-opacity:1"/>
			<stop offset="1" style="stop-color:#b8e6ef;stop-opacity:1"/>
		</linearGradient>
		<linearGradient id="grad28-23" v:fillPattern="32" v:foreground="#ffffff" v:background="#b8e6ef" x1="0" y1="0" x2="0" y2="1">
			<stop offset="0" style="stop-color:#ffffff;stop-opacity:1"/>
			<stop offset="1" style="stop-color:#b8e6ef;stop-opacity:1"/>
		</linearGradient>
		<pattern id="grad33-27" v:fillPattern="33" v:foreground="#e3f5f9" v:background="#7bb4d2" x="0" y="0" width="1" height="1"
				patternContentUnits="objectBoundingBox">
			<path d="M 0 1 L 0 0 L 1 0 z" style="fill:url(#grad30-28)"/>
			<path d="M 0 1 L 1 1 L 1 0 z" style="fill:url(#grad25-29)"/>
		</pattern>
		<linearGradient id="grad30-28" v:fillPattern="33" v:foreground="#e3f5f9" v:background="#7bb4d2" x1="0" y1="1" x2="0" y2="0">
			<stop offset="0" style="stop-color:#e3f5f9;stop-opacity:1"/>
			<stop offset="1" style="stop-color:#7bb4d2;stop-opacity:1"/>
		</linearGradient>
		<linearGradient id="grad25-29" v:fillPattern="33" v:foreground="#e3f5f9" v:background="#7bb4d2" x1="0" y1="0" x2="1" y2="0">
			<stop offset="0" style="stop-color:#e3f5f9;stop-opacity:1"/>
			<stop offset="1" style="stop-color:#7bb4d2;stop-opacity:1"/>
		</linearGradient>
		<linearGradient id="grad25-34" v:fillPattern="25" v:foreground="#f7f3e8" v:background="#b8e6ef" x1="0" y1="0" x2="1" y2="0">
			<stop offset="0" style="stop-color:#f7f3e8;stop-opacity:1"/>
			<stop offset="1" style="stop-color:#b8e6ef;stop-opacity:1"/>
		</linearGradient>
		<pattern id="grad31-39" v:fillPattern="31" v:foreground="#b8e6ef" v:background="#7bb4d2" x="0" y="0" width="1" height="1"
				patternContentUnits="objectBoundingBox">
			<path d="M 0 0 L 0 1 L 1 1 z" style="fill:url(#grad28-40)"/>
			<path d="M 0 0 L 1 0 L 1 1 z" style="fill:url(#grad25-41)"/>
		</pattern>
		<linearGradient id="grad28-40" v:fillPattern="31" v:foreground="#b8e6ef" v:background="#7bb4d2" x1="0" y1="0" x2="0" y2="1">
			<stop offset="0" style="stop-color:#b8e6ef;stop-opacity:1"/>
			<stop offset="1" style="stop-color:#7bb4d2;stop-opacity:1"/>
		</linearGradient>
		<linearGradient id="grad25-41" v:fillPattern="31" v:foreground="#b8e6ef" v:background="#7bb4d2" x1="0" y1="0" x2="1" y2="0">
			<stop offset="0" style="stop-color:#b8e6ef;stop-opacity:1"/>
			<stop offset="1" style="stop-color:#7bb4d2;stop-opacity:1"/>
		</linearGradient>
		<radialGradient id="grad38-48" v:fillPattern="38" v:foreground="#ffffff" v:background="#da8c36" cx="0" cy="1" r="1">
			<stop offset="0" style="stop-color:#ffffff;stop-opacity:1"/>
			<stop offset="1" style="stop-color:#da8c36;stop-opacity:1"/>
		</radialGradient>
		<linearGradient id="grad25-52" v:fillPattern="25" v:foreground="#7bb4d2" v:background="#658eb8" x1="0" y1="0" x2="1" y2="0">
			<stop offset="0" style="stop-color:#7bb4d2;stop-opacity:1"/>
			<stop offset="1" style="stop-color:#658eb8;stop-opacity:1"/>
		</linearGradient>
		<radialGradient id="grad40-62" v:fillPattern="40" v:foreground="#ffffff" v:background="#da8c36" cx="0.5" cy="0.5" r="0.5">
			<stop offset="0" style="stop-color:#ffffff;stop-opacity:1"/>
			<stop offset="1" style="stop-color:#da8c36;stop-opacity:1"/>
		</radialGradient>
		<radialGradient id="grad36-79" v:fillPattern="36" v:foreground="#ffffff" v:background="#7bb4d2" cx="0" cy="0" r="1">
			<stop offset="0" style="stop-color:#ffffff;stop-opacity:1"/>
			<stop offset="1" style="stop-color:#7bb4d2;stop-opacity:1"/>
		</radialGradient>
		<pattern id="grad31-83" v:fillPattern="31" v:foreground="#ffffff" v:background="#7bb4d2" x="0" y="0" width="1" height="1"
				patternContentUnits="objectBoundingBox">
			<path d="M 0 0 L 0 1 L 1 1 z" style="fill:url(#grad28-84)"/>
			<path d="M 0 0 L 1 0 L 1 1 z" style="fill:url(#grad25-85)"/>
		</pattern>
		<linearGradient id="grad28-84" v:fillPattern="31" v:foreground="#ffffff" v:background="#7bb4d2" x1="0" y1="0" x2="0" y2="1">
			<stop offset="0" style="stop-color:#ffffff;stop-opacity:1"/>
			<stop offset="1" style="stop-color:#7bb4d2;stop-opacity:1"/>
		</linearGradient>
		<linearGradient id="grad25-85" v:fillPattern="31" v:foreground="#ffffff" v:background="#7bb4d2" x1="0" y1="0" x2="1" y2="0">
			<stop offset="0" style="stop-color:#ffffff;stop-opacity:1"/>
			<stop offset="1" style="stop-color:#7bb4d2;stop-opacity:1"/>
		</linearGradient>
	</defs>
	<g v:mID="0" v:index="1" v:groupContext="foregroundPage">
		<title>Page-1</title>
		<v:pageProperties v:drawingScale="1" v:pageScale="1" v:drawingUnits="0" v:shadowOffsetX="9" v:shadowOffsetY="-9"/>
		<g id="group1-1" transform="translate(213.75,0)" v:mID="1" v:groupContext="group">
			<v:userDefs>
				<v:ud v:nameU="SkinColor" v:prompt="" v:val="VT5(#da8c36)"/>
				<v:ud v:nameU="visVersion" v:prompt="" v:val="VT0(14):26"/>
			</v:userDefs>
			<title>Service desk</title>
			<g id="shape2-2" v:mID="2" v:groupContext="shape" transform="translate(0,-9.69231)">
				<title>Sheet.2</title>
				<path d="M174.07 401.49 L156.06 411.08 C153.49 413.1 152.8 412.78 151.46 415.39 C148.31 421.49 148.72 444.59 148.5
							 447.32 C146.9 447.5 139.39 452.23 128.58 458.66 L128.41 453.99 L127.8 448.36 L72.39 418.16 L67.08 420.77
							 L69.44 455.87 L0 495.33 L0 499.35 L152.8 585.24 L252 528.82 L252 524.79 L237.48 516.58 L240.47 447.72
							 L227.2 440.14 C223.78 426.53 221.78 420.57 200.89 405.26 C200.83 403.24 200.78 403.04 200.76 401.18
							 C208.04 394.56 211.19 386.85 210.52 378.21 C209.79 361.9 197.79 351.36 187.43 352.62 C173.55 353.65
							 165.8 362.36 164.41 377.84 C164.44 381.31 162.8 390.32 174.07 401.49 Z" class="st1"/>
			</g>
			<g id="shape3-4" v:mID="3" v:groupContext="shape" transform="translate(223.581,-78.3508)">
				<title>Sheet.3</title>
				<path d="M0 577.38 L1.43 507.61 L16.89 516.38 L13.9 585.24 L6.77 581.21 L0 577.38 Z" class="st2"/>
				<path d="M0 577.38 L1.43 507.61 L16.89 516.38 L13.9 585.24 L6.77 581.21" class="st3"/>
			</g>
			<g id="shape4-7" v:mID="4" v:groupContext="shape" transform="translate(227.199,-144.07)">
				<title>Sheet.4</title>
				<path d="M0 574.52 L13.27 582.1 L6.02 585.24 L0.09 581.63 L0 574.52 Z" class="st4"/>
				<path d="M0 574.52 L13.27 582.1 L6.02 585.24 L0.09 581.63" class="st3"/>
			</g>
			<g id="shape5-12" v:mID="5" v:groupContext="shape" transform="translate(0,-13.737)">
				<title>Sheet.5</title>
				<path d="M0 499.37 L99.68 442.73 L252 528.83 L152.86 585.24 L0 499.37 Z" class="st5"/>
			</g>
			<g id="shape6-16" v:mID="6" v:groupContext="shape" transform="translate(0,-9.69231)">
				<title>Sheet.6</title>
				<path d="M0 499.35 L152.8 585.24 L152.86 581.2 L0 495.33 L0 499.35 ZM238.56 532.32 L152.86 581.2 L152.86 585.22 L252
							 528.82 L252 524.79 L238.56 532.32 Z" class="st6"/>
			</g>
			<g id="shape7-18" v:mID="7" v:groupContext="shape" transform="translate(100.99,-65.3139)">
				<title>Sheet.7</title>
				<path d="M22.8 541.46 L0 554.49 L52.59 585.24 L52.51 585.22 L75.22 572.13 L22.64 541.38 L22.8 541.46 Z" class="st7"/>
			</g>
			<g id="shape8-24" v:mID="8" v:groupContext="shape" transform="translate(148.495,-97.0437)">
				<title>Sheet.8</title>
				<path d="M9.03 558.86 L8.88 559.3 L0 534.97 C0 534.97 0.99 503.69 2.96 502.74 C2.96 502.74 9.21 492.01 28.28 502.11
							 C28.28 502.11 65.12 514.75 59.86 565.62 L58.46 585.24 L9.03 558.86 Z" class="st8"/>
				<path d="M9.03 558.86 L8.88 559.3 L0 534.97 C0 534.97 0.99 503.69 2.96 502.74 C2.96 502.74 9.21 492.01 28.28 502.11
							 C28.28 502.11 65.12 514.75 59.86 565.62 L58.46 585.24" class="st3"/>
			</g>
			<g id="shape9-31" v:mID="9" v:groupContext="shape" transform="translate(154.776,-148.407)">
				<title>Sheet.9</title>
				<path d="M48.95 585.24 C45.19 572.85 36.21 565.23 33.08 562.59 C13.79 546.27 -0 550.5 0 550.5 L22.08 538.39 C22.08
							 538.39 35.87 534.16 55.16 550.48 C58.26 553.08 67.07 560.56 70.91 572.69 L48.95 585.24 Z" class="st9"/>
				<path d="M48.95 585.24 C45.19 572.85 36.21 565.23 33.08 562.59 C13.79 546.27 -0 550.5 0 550.5 L22.08 538.39 C22.08
							 538.39 35.87 534.16 55.16 550.48 C58.26 553.08 67.07 560.56 70.91 572.69" class="st3"/>
			</g>
			<g id="shape10-36" v:mID="10" v:groupContext="shape" transform="translate(203.733,-97.8117)">
				<title>Sheet.10</title>
				<path d="M21.95 522.1 C22.75 524.63 23.33 527.37 23.6 530.31 C23.94 534.04 26.84 567.27 24.87 571.82 C22.91 576.39
							 4.01 585.24 4.01 585.24 C4.01 585.24 1.86 546.15 1.52 542.43 C1.28 539.81 0.79 537.35 0.11 535.04 C0.07
							 534.91 0.04 534.78 0 534.65 C0 534.65 4.13 518.28 21.9 522.04 L21.95 522.1 Z" class="st10"/>
				<path d="M21.95 522.1 C22.75 524.63 23.33 527.37 23.6 530.31 C23.94 534.04 26.84 567.27 24.87 571.82 C22.91 576.39
							 4.01 585.24 4.01 585.24 C4.01 585.24 1.86 546.15 1.52 542.43 C1.28 539.81 0.79 537.35 0.11 535.04 C0.07
							 534.91 0.04 534.78 0 534.65 C0 534.65 4.13 518.28 21.9 522.04" class="st3"/>
			</g>
			<g id="shape11-43" v:mID="11" v:groupContext="shape" transform="translate(205.352,-86.2106)">
				<title>Sheet.11</title>
				<path d="M0 574.94 L19.88 563.63 L18.23 585.24 L0 574.94 Z" class="st11"/>
			</g>
			<g id="shape12-45" v:mID="12" v:groupContext="shape" transform="translate(145.882,-76.2864)">
				<title>Sheet.12</title>
				<path d="M29.8 567.43 C31.99 572.89 27.58 579.6 19.96 582.42 C12.34 585.24 4.38 583.1 2.19 577.65 C-0 572.19 4.41
							 565.46 12.03 562.65 C19.66 559.82 27.61 561.98 29.8 567.43 Z" class="st12"/>
			</g>
			<g id="shape13-49" v:mID="13" v:groupContext="shape" transform="translate(174.376,-181.836)">
				<title>Sheet.13</title>
				<path d="M0.65 574.04 L0.75 579.38 C0.75 579.38 0 582.27 11.89 584.08 C11.89 584.08 24.76 585.24 26.49 582.27 L26.37
							 572.18 C26.37 572.18 17.19 580.65 1.08 573.83 L0.65 574.04 Z" class="st13"/>
				<path d="M0.65 574.04 L0.75 579.38 C0.75 579.38 0 582.27 11.89 584.08 C11.89 584.08 24.76 585.24 26.49 582.27 L26.37
							 572.18 C26.37 572.18 17.19 580.65 1.08 573.83" class="st3"/>
			</g>
			<g id="shape14-54" v:mID="14" v:groupContext="shape" transform="translate(172.367,-78.6649)">
				<title>Sheet.14</title>
				<path d="M35.14 547.89 L1.61 567.14 C1.61 567.14 7.46 573.11 0 580.95 C-0 580.95 1.94 585.24 12.64 579.48 L35.67
							 565.99 L35.14 547.89 Z" class="st14"/>
			</g>
			<g id="shape15-56" v:mID="15" v:groupContext="shape" transform="translate(129.231,-108.798)">
				<title>Sheet.15</title>
				<path d="M1.26 585.24 L29.32 569.52 L28.52 551.58 L0 567.25 L1.26 585.24 Z" class="st15"/>
				<path d="M1.26 585.24 L29.32 569.52 L28.52 551.58 L0 567.25" class="st3"/>
			</g>
			<g id="shape16-59" v:mID="16" v:groupContext="shape" transform="translate(164.374,-189.042)">
				<title>Sheet.16</title>
				<path d="M46.12 558.61 C46.12 573.31 35.8 585.24 23.06 585.24 C10.32 585.24 -0 573.31 0 558.61 C-0 543.91 10.32 531.97
							 23.06 531.97 C35.8 531.97 46.12 543.91 46.12 558.61 L-11.53 518.66 L46.12 558.61 Z" class="st16"/>
				<path d="M46.12 558.61 C46.12 573.31 35.8 585.24 23.06 585.24 C10.32 585.24 -0 573.31 0 558.61 C-0 543.91 10.32 531.97
							 23.06 531.97 C35.8 531.97 46.12 543.91 46.12 558.61" class="st17"/>
			</g>
			<g id="shape17-64" v:mID="17" v:groupContext="shape" transform="translate(128.576,-96.6648)">
				<title>Sheet.17</title>
				<path d="M0 545.64 C9.55 540.28 20.33 534.18 20.33 534.18 L29.11 539.3 L0.81 555.38 L0 545.64 ZM78.25 566.21 L45.4
							 585.24 C45.4 585.24 43.15 581.68 35.22 581.79 C35.22 581.79 35.87 579.93 38.76 578.55 C41.66 577.16
							 69.47 561.1 69.47 561.1 L78.25 566.21 Z" class="st18"/>
				<path d="M0 545.64 C9.55 540.28 20.33 534.18 20.33 534.18 L29.11 539.3 L0.81 555.38M78.25 566.21 L45.4 585.24 C45.4
							 585.24 43.15 581.68 35.22 581.79 C35.22 581.79 35.87 579.93 38.76 578.55 C41.66 577.16 69.47 561.1 69.47
							 561.1 L78.25 566.21" class="st3"/>
			</g>
			<g id="shape18-67" v:mID="18" v:groupContext="shape" transform="translate(128.5,-77.5173)">
				<title>Sheet.18</title>
				<path d="M29.61 539.05 L28.77 504.97 L29.61 539.05 ZM2.02 553.95 L29.81 538.87 L2.02 553.95 ZM69.33 527.36 L69.33
							 541.92 L41.83 557.72 C36.69 560.55 35.51 562.33 35.51 562.33 C35.51 562.33 24.23 563.04 20.4 570.88
							 C16.58 578.72 22.02 587.77 34.96 584.62 C34.96 584.62 41.42 582.77 43.76 579.9 C43.76 579.9 47.73 584.08
							 61.01 575.93 L96.74 554.94 C102.24 551.26 100.84 541.86 100.84 541.86 C100.18 530.01 99.19 512.64 98.97
							 510.22 C97.42 493.21 85.32 482.94 81.58 479.78 C78.5 477.18 75.6 475.16 72.39 473.09 L72.26 469 C78.41
							 464.24 82.06 456.49 82.06 447.72 C82.06 432.99 72.79 420.56 58.94 420.45 C46.3 420.56 35.55 432.02 36.07
							 447.72 C36.07 456.6 39.83 464.45 45.57 469.31 L26.42 479.82 C26.42 479.82 21.59 482.29 21.07 490.96
							 L20 515.14 C19.58 515.1 9.24 520.97 0 526.25 L69.33 527.36 Z" class="st19"/>
				<path d="M29.61 539.05 L28.77 504.97M2.02 553.95 L29.81 538.87M69.33 527.36 L69.33 541.92 L41.83 557.72 C36.69 560.55
							 35.51 562.33 35.51 562.33 C35.51 562.33 24.23 563.04 20.4 570.88 C16.58 578.72 22.02 587.77 34.96 584.62
							 C34.96 584.62 41.42 582.77 43.76 579.9 C43.76 579.9 47.73 584.08 61.01 575.93 L96.74 554.94 C102.24
							 551.26 100.84 541.86 100.84 541.86 C100.18 530.01 99.19 512.64 98.97 510.22 C97.42 493.21 85.32 482.94
							 81.58 479.78 C78.5 477.18 75.6 475.16 72.39 473.09 L72.26 469 C78.41 464.24 82.06 456.49 82.06 447.72
							 C82.06 432.99 72.79 420.56 58.94 420.45 C46.3 420.56 35.55 432.02 36.07 447.72 C36.07 456.6 39.83 464.45
							 45.57 469.31 L26.42 479.82 C26.42 479.82 21.59 482.29 21.07 490.96 L20 515.14 C19.58 515.1 9.24 520.97
							 0 526.25" class="st20"/>
			</g>
			<g id="shape19-70" v:mID="19" v:groupContext="shape" transform="translate(100.99,-61.1117)">
				<title>Sheet.19</title>
				<path d="M26.34 565.25 L0 549.56 L0 553.9 L26.64 569.78 L26.92 573.91 L30.24 571.92 L52.53 585.2 L79.33 569.77 L75.22
							 567.52 L52.59 580.89 L31.43 568.29 L26.81 499.77 L21.4 502.82 L26.34 565.25 ZM52.51 585.22 L52.59 585.24
							 L52.53 585.2 L52.51 585.22 Z" class="st21"/>
				<path d="M26.34 565.25 L0 549.56 L0 553.9 L26.64 569.78 L26.92 573.91 L30.24 571.92 L52.53 585.2 L79.33 569.77 L75.22
							 567.52 L52.59 580.89 L31.43 568.29 L26.81 499.77 L21.4 502.82 L26.34 565.25M52.51 585.22 L52.59 585.24
							 L52.53 585.2" class="st22"/>
			</g>
			<g id="shape20-73" v:mID="20" v:groupContext="shape" transform="translate(67.084,-143.535)">
				<title>Sheet.20</title>
				<path d="M55.3 585.24 L0 554.61 L5.3 552 L60.71 582.2 L55.3 585.24 Z" class="st23"/>
			</g>
			<g id="shape21-76" v:mID="21" v:groupContext="shape" transform="translate(68.3244,-62.3839)">
				<title>Sheet.21</title>
				<path d="M55.15 572.84 C55.15 579.69 42.8 585.24 27.57 585.24 C12.34 585.24 -0 579.69 0 572.84 C0 565.98 12.34 560.43
							 27.57 560.43 C42.8 560.43 55.15 565.98 55.15 572.84 Z" class="st24"/>
			</g>
			<g id="shape22-80" v:mID="22" v:groupContext="shape" transform="translate(67.1132,-72.4428)">
				<title>Sheet.22</title>
				<path d="M0 483.46 L4.68 554.24 L60.8 585.24 L55.3 513.72 L0 483.46 Z" class="st25"/>
			</g>
			<g id="shape23-86" v:mID="23" v:groupContext="shape" transform="translate(73.9581,-64.0824)">
				<title>Sheet.23</title>
				<path d="M15.39 533.61 C1.07 554.26 -0 581.7 0 581.7 L8.97 585.24 C8.97 585.24 10.03 557.79 24.35 537.14 L15.39 533.61
							 Z" class="st7"/>
			</g>
			<g id="shape24-89" v:mID="24" v:groupContext="shape" transform="translate(68.2828,-57.3527)">
				<title>Sheet.24</title>
				<path d="M30.03 530.41 L33.02 568.43 L14.82 578.75 C14.82 578.75 15.89 551.3 30.03 530.41 ZM55.15 567.96 C55.15 574.81
							 42.8 580.36 27.57 580.36 C12.34 580.36 0 574.81 0 567.96 L0 572.84 C0 579.69 12.34 585.24 27.57 585.24
							 C42.8 585.24 55.15 579.69 55.15 572.84 L55.15 567.96 Z" class="st26"/>
			</g>
			<g id="shape25-91" v:mID="25" v:groupContext="shape" transform="translate(0,-9.69231)">
				<title>Sheet.25</title>
				<path d="M174.07 401.49 L156.06 411.08 C153.49 413.1 152.8 412.78 151.46 415.39 C148.31 421.49 148.72 444.59 148.5
							 447.32 C146.9 447.5 139.39 452.23 128.58 458.66 L128.41 453.99 L127.8 448.36 L72.39 418.16 L67.08 420.77
							 L69.44 455.87 L0 495.33 L0 499.35 L152.8 585.24 L252 528.82 L252 524.79 L237.48 516.58 L240.47 447.72
							 L227.2 440.14 C223.78 426.53 221.78 420.57 200.89 405.26 C200.83 403.24 200.78 403.04 200.76 401.18
							 C208.04 394.56 211.19 386.85 210.52 378.21 C209.79 361.9 197.79 351.36 187.43 352.62 C173.55 353.65
							 165.8 362.36 164.41 377.84 C164.44 381.31 162.8 390.32 174.07 401.49 Z" class="st27"/>
			</g>
		</g>
		<g id="shape30-93" v:mID="30" v:groupContext="shape" transform="translate(348.75,-229.5)">
			<title>Sheet.30</title>
			<desc>!</desc>
			<v:textBlock v:margins="rect(2,2,2,2)"/>
			<v:textRect cx="24.75" cy="555.54" width="49.5" height="59.4"/>
			<rect x="0" y="525.84" width="49.5" height="59.4" class="st28"/>
			<text x="14.98" y="573.54" class="st29" v:langID="1031"><v:paragraph v:horizAlign="1"/><v:tabList/>!</text>		</g>
		<g id="shape32-96" v:mID="32" v:groupContext="shape" transform="translate(-107.617,120.49) rotate(-89.1372) scale(-1,1)">
			<title>45 degree single</title>
			<desc>Processing Network Simulation</desc>
			<v:userDefs>
				<v:ud v:nameU="visVersion" v:val="VT0(14):26"/>
			</v:userDefs>
			<v:textBlock v:margins="rect(4,4,4,4)"/>
			<v:textRect cx="89.0421" cy="532.365" width="219.35" height="108" transform="rotate(90)"/>
			<path d="M0 531.24 L54 477.24 L54 512.88 L186.77 512.88 L186.77 549.6 L54 549.6 L54 585.24 L0 531.24 Z" class="st30"/>
			<text x="435.52" y="81.84" transform="rotate(-90) scale(-1,1)" class="st31" v:langID="1031"><v:paragraph
						v:horizAlign="1"/><v:tabList/>Processing Network <tspan x="480.3" dy="1.2em" class="st32">Simulation</tspan></text>		</g>
		<g id="shape33-100" v:mID="33" v:groupContext="shape" transform="translate(-390.615,128.49) rotate(-90) scale(-1,1)">
			<title>45 degree single.8</title>
			<desc>Event-Based Simulation</desc>
			<v:userDefs>
				<v:ud v:nameU="visVersion" v:val="VT0(14):26"/>
			</v:userDefs>
			<v:textBlock v:margins="rect(4,4,4,4)"/>
			<v:textRect cx="69.75" cy="547.552" width="313.88" height="99" transform="rotate(90)"/>
			<path d="M0 535.74 L49.5 486.24 L49.5 518.91 L191.25 518.91 L191.25 552.57 L49.5 552.57 L49.5 585.24 L0 535.74 Z"
					class="st30"/>
			<text x="403.46" y="78.75" transform="rotate(-90) scale(-1,1)" class="st33" v:langID="1031"><v:paragraph
						v:horizAlign="1"/><v:tabList/>Event-Based Simulation</text>		</g>
		<g id="shape35-103" v:mID="35" v:groupContext="shape" transform="translate(24.75,-258.75)">
			<title>Sheet.35</title>
			<desc>Event Scheduling Future Events List</desc>
			<v:textBlock v:margins="rect(2,2,2,2)"/>
			<v:textRect cx="120.375" cy="528.045" width="231.75" height="69.75"/>
			<rect x="0" y="515.49" width="231.75" height="69.75" class="st28"/>
			<text x="37.15" y="520.85" class="st34" v:langID="1031"><v:paragraph v:horizAlign="1"/><v:tabList/>Event Scheduling<v:lf/><tspan
						x="33.87" dy="1.2em" class="st32">Future Events List</tspan></text>		</g>
		<g id="shape40-107" v:mID="40" v:groupContext="shape" transform="translate(78.51,130.74) rotate(-90) scale(-1,1)">
			<title>45 degree single.40</title>
			<desc>Agent-Based Simulation</desc>
			<v:userDefs>
				<v:ud v:nameU="visVersion" v:val="VT0(14):26"/>
			</v:userDefs>
			<v:textBlock v:margins="rect(4,4,4,4)"/>
			<v:textRect cx="103.587" cy="535.74" width="189" height="99" transform="rotate(90)"/>
			<path d="M0 535.74 L49.5 486.24 L49.5 518.91 L189 518.91 L189 552.57 L49.5 552.57 L49.5 585.24 L0 535.74 Z"
					class="st30"/>
			<text x="473.94" y="96.39" transform="rotate(-90) scale(-1,1)" class="st31" v:langID="1031"><v:paragraph
						v:horizAlign="1"/><v:tabList/>Agent-Based<v:lf/><tspan x="483.67" dy="1.2em" class="st32">Simulation</tspan></text>		</g>
		<g id="shape43-111" v:mID="43" v:groupContext="shape" transform="translate(449.156,-220.5)">
			<title>Sheet.43</title>
			<desc>GPSS (1961), SIMAN/Arena, ProModel, ExtendSim, Simio, AnyLogi...</desc>
			<v:textBlock v:margins="rect(2,2,2,2)"/>
			<v:textRect cx="78.75" cy="528.99" width="157.5" height="112.5"/>
			<rect x="0" y="472.74" width="157.5" height="112.5" class="st28"/>
			<text x="2" y="491.19" class="st35" v:langID="1031"><v:paragraph/><v:tabList/>GPSS (1961), <v:lf/><tspan x="2"
						dy="1.2em" class="st32">SIMAN</tspan>/Arena, <v:lf/><tspan x="2" dy="1.2em" class="st32">ProModel</tspan>, <v:lf/><tspan
						x="2" dy="1.2em" class="st32">ExtendSim</tspan>, Simio, <v:lf/><tspan x="2" dy="1.2em" class="st32">AnyLogic</tspan>, ...</text>		</g>
		<g id="shape45-118" v:mID="45" v:groupContext="shape" transform="translate(181.125,-418.5)">
			<title>Sheet.45</title>
			<desc>SIMSCRIPT (1962)</desc>
			<v:textBlock v:margins="rect(2,2,2,2)"/>
			<v:textRect cx="83.8125" cy="570.615" width="167.63" height="29.25"/>
			<rect x="0" y="555.99" width="167.625" height="29.25" class="st28"/>
			<text x="4.42" y="577.22" class="st36" v:langID="1031"><v:paragraph v:horizAlign="1"/><v:tabList/>SIMSCRIPT (1962)</text>		</g>
		<g id="shape46-121" v:mID="46" v:groupContext="shape" transform="translate(25.875,-346.5)">
			<title>Sheet.46</title>
			<desc>Event Graphs (Schruben 1983)</desc>
			<v:textBlock v:margins="rect(2,2,2,2)"/>
			<v:textRect cx="128.25" cy="571.74" width="256.5" height="27"/>
			<rect x="0" y="558.24" width="256.5" height="27" class="st28"/>
			<text x="4.85" y="577.74" class="st37" v:langID="1031"><v:paragraph v:horizAlign="1"/><v:tabList/>Event Graphs (Schruben 1983)</text>		</g>
		<g id="shape26-124" v:mID="26" v:groupContext="shape" transform="translate(276.188,-285.75)">
			<title>Sheet.26</title>
			<desc>Activities</desc>
			<v:textBlock v:margins="rect(2,2,2,2)"/>
			<v:textRect cx="74.2118" cy="552.03" width="142.88" height="40.5"/>
			<rect x="0" y="544.74" width="142.875" height="40.5" class="st28"/>
			<text x="29.81" y="559.23" class="st34" v:langID="1031"><v:paragraph v:horizAlign="1"/><v:tabList/>Activities</text>		</g>
		<g id="shape31-127" v:mID="31" v:groupContext="shape" transform="translate(465.75,-535.5)">
			<title>Sheet.31</title>
			<desc>OESjs, OESpy, ...</desc>
			<v:textBlock v:margins="rect(2,2,2,2)"/>
			<v:textRect cx="83.25" cy="564.99" width="166.5" height="40.5"/>
			<rect x="0" y="544.74" width="166.5" height="40.5" class="st28"/>
			<text x="2" y="572.19" class="st38" v:langID="1031"><v:paragraph/><v:tabList/>OESjs, OESpy, ...</text>		</g>
		<g id="shape47-130" v:mID="47" v:groupContext="shape" transform="translate(731.25,-432) scale(-1,1)">
			<title>45 degree single.47</title>
			<desc>Object Event Simulation</desc>
			<v:userDefs>
				<v:ud v:nameU="visVersion" v:val="VT0(14):26"/>
			</v:userDefs>
			<v:textBlock v:margins="rect(4,4,4,4)"/>
			<v:textRect cx="355.5" cy="508.74" width="711" height="153"/>
			<path d="M0 508.74 L76.5 432.24 L76.5 482.73 L711 482.73 L711 534.75 L76.5 534.75 L76.5 585.24 L0 508.74 Z"
					class="st30"/>
			<text x="-648.63" y="526.74" transform="scale(-1,1)" class="st39" v:langID="1031"><v:paragraph v:horizAlign="1"/><v:tabList/>Object Event Simulation</text>		</g>
		<g id="shape29-133" v:mID="29" v:groupContext="shape" transform="translate(380.25,-238.5)">
			<title>Sheet.29</title>
			<desc>!</desc>
			<v:textBlock v:margins="rect(2,2,2,2)"/>
			<v:textRect cx="24.75" cy="555.54" width="49.5" height="59.4"/>
			<rect x="0" y="525.84" width="49.5" height="59.4" class="st28"/>
			<text x="14.98" y="573.54" class="st29" v:langID="1031"><v:paragraph v:horizAlign="1"/><v:tabList/>!</text>		</g>
		<g id="shape28-136" v:mID="28" v:groupContext="shape" transform="translate(409.5,-224.1)">
			<title>Sheet.28</title>
			<desc>!</desc>
			<v:textBlock v:margins="rect(2,2,2,2)"/>
			<v:textRect cx="24.75" cy="555.54" width="49.5" height="59.4"/>
			<rect x="0" y="525.84" width="49.5" height="59.4" class="st28"/>
			<text x="14.98" y="573.54" class="st29" v:langID="1031"><v:paragraph v:horizAlign="1"/><v:tabList/>!</text>		</g>
		<g id="shape27-139" v:mID="27" v:groupContext="shape" transform="translate(69.75,-531)">
			<title>Sheet.27</title>
			<desc>Objects, Events, Activities</desc>
			<v:textBlock v:margins="rect(2,2,2,2)"/>
			<v:textRect cx="140.243" cy="563.1" width="270" height="27"/>
			<rect x="0" y="558.24" width="270" height="27" class="st28"/>
			<text x="15.28" y="570.3" class="st34" v:langID="1031"><v:paragraph v:horizAlign="1"/><v:tabList/>Objects, Events, Activities</text>		</g>
	</g>
</svg>
