<?xml version="1.0" encoding="UTF-8" standalone="no"?>
<!DOCTYPE svg PUBLIC "-//W3C//DTD SVG 1.0//EN" "http://www.w3.org/TR/2001/REC-SVG-20010904/DTD/svg10.dtd">
<!-- Generated by Microsoft Visio 11.0, SVG Export, v1.0 OES-Enlightenment.svg Page-1 -->
<svg xmlns="http://www.w3.org/2000/svg" xmlns:xlink="http://www.w3.org/1999/xlink" xmlns:ev="http://www.w3.org/2001/xml-events"
		xmlns:v="http://schemas.microsoft.com/visio/2003/SVGExtensions/" width="10.1667in" height="8.27986in"
		viewBox="0 0 732 596.15" xml:space="preserve" color-interpolation-filters="sRGB" class="st40">
	<v:documentProperties v:langID="1033" v:viewMarkup="false"/>

	<style type="text/css">
	<![CDATA[
		.st1 {fill:#000000;fill-opacity:0;stroke:none;stroke-linecap:round;stroke-linejoin:round;stroke-width:0.75}
		.st2 {fill:#cc6633}
		.st3 {stroke:none;stroke-linecap:round;stroke-linejoin:round;stroke-width:0.75}
		.st4 {fill:url(#grad30-10)}
		.st5 {fill:url(#grad36-15);stroke:none;stroke-linecap:round;stroke-linejoin:round;stroke-width:0.75}
		.st6 {fill:#cc6633;stroke:#cc6633;stroke-linecap:butt;stroke-width:0.2175}
		.st7 {fill:url(#grad32-21);stroke:#295687;stroke-linecap:round;stroke-linejoin:round;stroke-width:0.375}
		.st8 {fill:url(#grad33-27)}
		.st9 {fill:url(#grad25-34)}
		.st10 {fill:url(#grad31-39)}
		.st11 {fill:#658eb8;stroke:none;stroke-linecap:round;stroke-linejoin:round;stroke-width:0.75}
		.st12 {fill:url(#grad38-48);stroke:none;stroke-linecap:round;stroke-linejoin:round;stroke-width:0.75}
		.st13 {fill:url(#grad25-52)}
		.st14 {fill:#7bb4d2;stroke:none;stroke-linecap:round;stroke-linejoin:round;stroke-width:0.75}
		.st15 {fill:#7bb4d2}
		.st16 {fill:url(#grad40-62)}
		.st17 {stroke:#d75139;stroke-linecap:butt;stroke-width:0.375}
		.st18 {fill:#ffffff}
		.st19 {fill:none}
		.st20 {stroke:#295687;stroke-linecap:round;stroke-linejoin:round;stroke-width:0.375}
		.st21 {fill:#295687}
		.st22 {stroke:#295687;stroke-linecap:butt;stroke-width:0.2175}
		.st23 {fill:url(#grad25-34);stroke:none;stroke-linecap:round;stroke-linejoin:round;stroke-width:0.75}
		.st24 {fill:url(#grad36-79);stroke:#295687;stroke-linecap:butt;stroke-width:0.375}
		.st25 {fill:url(#grad31-83);stroke:#295687;stroke-linecap:butt;stroke-width:0.375}
		.st26 {fill:#295687;stroke:#295687;stroke-linecap:butt;stroke-width:0.3732}
		.st27 {fill:none;stroke:#000000;stroke-linecap:round;stroke-linejoin:round;stroke-width:0.72}
		.st28 {fill:none;stroke:none;stroke-linecap:round;stroke-linejoin:round;stroke-width:0.75}
		.st29 {fill:#000000;font-family:Calibri;font-size:4.99999em}
		.st30 {fill:#dde2cd;stroke:#000000;stroke-linecap:round;stroke-linejoin:round;stroke-width:0.24}
		.st31 {fill:#000000;font-family:Calibri;font-size:1.99999em}
		.st32 {font-size:1em}
		.st33 {fill:#000000;font-family:Calibri;font-size:2.50001em}
		.st34 {fill:#00b050;font-family:Calibri;font-size:1.99999em}
		.st35 {fill:#0070c0;font-family:Calibri;font-size:1.5em}
		.st36 {fill:#0070c0;font-family:Calibri;font-size:1.83334em}
		.st37 {fill:#000000;font-family:Calibri;font-size:1.66667em}
		.st38 {fill:#1f477d;font-family:Calibri;font-size:4.99999em}
		.st39 {fill:#0070c0;font-family:Calibri;font-size:1.99999em}
		.st40 {fill:none;fill-rule:evenodd;font-size:12px;overflow:visible;stroke-linecap:square;stroke-miterlimit:3}
	]]>
	</style>

	<defs id="Patterns_And_Gradients">
		<linearGradient id="grad30-10" v:fillPattern="30" v:foreground="#f6f8b0" v:background="#dab971" x1="0" y1="1" x2="0" y2="0">
			<stop offset="0" style="stop-color:#f6f8b0;stop-opacity:1"/>
			<stop offset="1" style="stop-color:#dab971;stop-opacity:1"/>
		</linearGradient>
		<radialGradient id="grad36-15" v:fillPattern="36" v:foreground="#f6f8b0" v:background="#dab971" cx="0" cy="0" r="1">
			<stop offset="0" style="stop-color:#f6f8b0;stop-opacity:1"/>
			<stop offset="1" style="stop-color:#dab971;stop-opacity:1"/>
		</radialGradient>
		<pattern id="grad32-21" v:fillPattern="32" v:foreground="#ffffff" v:background="#b8e6ef" x="0" y="0" width="1" height="1"
				patternContentUnits="objectBoundingBox">
			<path d="M 0 1 L 0 0 L 1 0 z" style="fill:url(#grad27-22)"/>
			<path d="M 0 1 L 1 1 L 1 0 z" style="fill:url(#grad28-23)"/>
		</pattern>
		<linearGradient id="grad27-22" v:fillPattern="32" v:foreground="#ffffff" v:background="#b8e6ef" x1="1" y1="0" x2="0" y2="0">
			<stop offset="0" style="stop-color:#ffffff;stop-opacity:1"/>
			<stop offset="1" style="stop-color:#b8e6ef;stop-opacity:1"/>
		</linearGradient>
		<linearGradient id="grad28-23" v:fillPattern="32" v:foreground="#ffffff" v:background="#b8e6ef" x1="0" y1="0" x2="0" y2="1">
			<stop offset="0" style="stop-color:#ffffff;stop-opacity:1"/>
			<stop offset="1" style="stop-color:#b8e6ef;stop-opacity:1"/>
		</linearGradient>
		<pattern id="grad33-27" v:fillPattern="33" v:foreground="#e3f5f9" v:background="#7bb4d2" x="0" y="0" width="1" height="1"
				patternContentUnits="objectBoundingBox">
			<path d="M 0 1 L 0 0 L 1 0 z" style="fill:url(#grad30-28)"/>
			<path d="M 0 1 L 1 1 L 1 0 z" style="fill:url(#grad25-29)"/>
		</pattern>
		<linearGradient id="grad30-28" v:fillPattern="33" v:foreground="#e3f5f9" v:background="#7bb4d2" x1="0" y1="1" x2="0" y2="0">
			<stop offset="0" style="stop-color:#e3f5f9;stop-opacity:1"/>
			<stop offset="1" style="stop-color:#7bb4d2;stop-opacity:1"/>
		</linearGradient>
		<linearGradient id="grad25-29" v:fillPattern="33" v:foreground="#e3f5f9" v:background="#7bb4d2" x1="0" y1="0" x2="1" y2="0">
			<stop offset="0" style="stop-color:#e3f5f9;stop-opacity:1"/>
			<stop offset="1" style="stop-color:#7bb4d2;stop-opacity:1"/>
		</linearGradient>
		<linearGradient id="grad25-34" v:fillPattern="25" v:foreground="#f7f3e8" v:background="#b8e6ef" x1="0" y1="0" x2="1" y2="0">
			<stop offset="0" style="stop-color:#f7f3e8;stop-opacity:1"/>
			<stop offset="1" style="stop-color:#b8e6ef;stop-opacity:1"/>
		</linearGradient>
		<pattern id="grad31-39" v:fillPattern="31" v:foreground="#b8e6ef" v:background="#7bb4d2" x="0" y="0" width="1" height="1"
				patternContentUnits="objectBoundingBox">
			<path d="M 0 0 L 0 1 L 1 1 z" style="fill:url(#grad28-40)"/>
			<path d="M 0 0 L 1 0 L 1 1 z" style="fill:url(#grad25-41)"/>
		</pattern>
		<linearGradient id="grad28-40" v:fillPattern="31" v:foreground="#b8e6ef" v:background="#7bb4d2" x1="0" y1="0" x2="0" y2="1">
			<stop offset="0" style="stop-color:#b8e6ef;stop-opacity:1"/>
			<stop offset="1" style="stop-color:#7bb4d2;stop-opacity:1"/>
		</linearGradient>
		<linearGradient id="grad25-41" v:fillPattern="31" v:foreground="#b8e6ef" v:background="#7bb4d2" x1="0" y1="0" x2="1" y2="0">
			<stop offset="0" style="stop-color:#b8e6ef;stop-opacity:1"/>
			<stop offset="1" style="stop-color:#7bb4d2;stop-opacity:1"/>
		</linearGradient>
		<radialGradient id="grad38-48" v:fillPattern="38" v:foreground="#ffffff" v:background="#da8c36" cx="0" cy="1" r="1">
			<stop offset="0" style="stop-color:#ffffff;stop-opacity:1"/>
			<stop offset="1" style="stop-color:#da8c36;stop-opacity:1"/>
		</radialGradient>
		<linearGradient id="grad25-52" v:fillPattern="25" v:foreground="#7bb4d2" v:background="#658eb8" x1="0" y1="0" x2="1" y2="0">
			<stop offset="0" style="stop-color:#7bb4d2;stop-opacity:1"/>
			<stop offset="1" style="stop-color:#658eb8;stop-opacity:1"/>
		</linearGradient>
		<radialGradient id="grad40-62" v:fillPattern="40" v:foreground="#ffffff" v:background="#da8c36" cx="0.5" cy="0.5" r="0.5">
			<stop offset="0" style="stop-color:#ffffff;stop-opacity:1"/>
			<stop offset="1" style="stop-color:#da8c36;stop-opacity:1"/>
		</radialGradient>
		<radialGradient id="grad36-79" v:fillPattern="36" v:foreground="#ffffff" v:background="#7bb4d2" cx="0" cy="0" r="1">
			<stop offset="0" style="stop-color:#ffffff;stop-opacity:1"/>
			<stop offset="1" style="stop-color:#7bb4d2;stop-opacity:1"/>
		</radialGradient>
		<pattern id="grad31-83" v:fillPattern="31" v:foreground="#ffffff" v:background="#7bb4d2" x="0" y="0" width="1" height="1"
				patternContentUnits="objectBoundingBox">
			<path d="M 0 0 L 0 1 L 1 1 z" style="fill:url(#grad28-84)"/>
			<path d="M 0 0 L 1 0 L 1 1 z" style="fill:url(#grad25-85)"/>
		</pattern>
		<linearGradient id="grad28-84" v:fillPattern="31" v:foreground="#ffffff" v:background="#7bb4d2" x1="0" y1="0" x2="0" y2="1">
			<stop offset="0" style="stop-color:#ffffff;stop-opacity:1"/>
			<stop offset="1" style="stop-color:#7bb4d2;stop-opacity:1"/>
		</linearGradient>
		<linearGradient id="grad25-85" v:fillPattern="31" v:foreground="#ffffff" v:background="#7bb4d2" x1="0" y1="0" x2="1" y2="0">
			<stop offset="0" style="stop-color:#ffffff;stop-opacity:1"/>
			<stop offset="1" style="stop-color:#7bb4d2;stop-opacity:1"/>
		</linearGradient>
	</defs>
	<g v:mID="0" v:index="1" v:groupContext="foregroundPage">
		<title>Page-1</title>
		<v:pageProperties v:drawingScale="1" v:pageScale="1" v:drawingUnits="0" v:shadowOffsetX="9" v:shadowOffsetY="-9"/>
		<g id="group1-1" transform="translate(213.75,-22.4)" v:mID="1" v:groupContext="group">
			<v:userDefs>
				<v:ud v:nameU="SkinColor" v:prompt="" v:val="VT5(#da8c36)"/>
				<v:ud v:nameU="visVersion" v:prompt="" v:val="VT0(14):26"/>
			</v:userDefs>
			<title>Service desk</title>
			<g id="shape2-2" v:mID="2" v:groupContext="shape" transform="translate(0,-9.69231)">
				<title>Sheet.2</title>
				<path d="M174.07 412.4 L156.06 421.99 C153.49 424.01 152.8 423.69 151.46 426.3 C148.31 432.4 148.72 455.5 148.5 458.23
							 C146.9 458.41 139.39 463.14 128.58 469.57 L128.41 464.9 L127.8 459.27 L72.39 429.07 L67.08 431.68 L69.44
							 466.78 L0 506.24 L0 510.26 L152.8 596.15 L252 539.73 L252 535.7 L237.48 527.49 L240.47 458.63 L227.2
							 451.05 C223.78 437.44 221.78 431.48 200.89 416.17 C200.83 414.15 200.78 413.95 200.76 412.09 C208.04
							 405.47 211.19 397.76 210.52 389.12 C209.79 372.81 197.79 362.27 187.43 363.53 C173.55 364.56 165.8 373.27
							 164.41 388.75 C164.44 392.22 162.8 401.23 174.07 412.4 Z" class="st1"/>
			</g>
			<g id="shape3-4" v:mID="3" v:groupContext="shape" transform="translate(223.581,-78.3508)">
				<title>Sheet.3</title>
				<path d="M0 588.29 L1.43 518.52 L16.89 527.29 L13.9 596.15 L6.77 592.12 L0 588.29 Z" class="st2"/>
				<path d="M0 588.29 L1.43 518.52 L16.89 527.29 L13.9 596.15 L6.77 592.12" class="st3"/>
			</g>
			<g id="shape4-7" v:mID="4" v:groupContext="shape" transform="translate(227.199,-144.07)">
				<title>Sheet.4</title>
				<path d="M0 585.43 L13.27 593.01 L6.02 596.15 L0.09 592.54 L0 585.43 Z" class="st4"/>
				<path d="M0 585.43 L13.27 593.01 L6.02 596.15 L0.09 592.54" class="st3"/>
			</g>
			<g id="shape5-12" v:mID="5" v:groupContext="shape" transform="translate(0,-13.737)">
				<title>Sheet.5</title>
				<path d="M0 510.28 L99.68 453.64 L252 539.74 L152.86 596.15 L0 510.28 Z" class="st5"/>
			</g>
			<g id="shape6-16" v:mID="6" v:groupContext="shape" transform="translate(0,-9.69231)">
				<title>Sheet.6</title>
				<path d="M0 510.26 L152.8 596.15 L152.86 592.11 L0 506.24 L0 510.26 ZM238.56 543.23 L152.86 592.11 L152.86 596.13
							 L252 539.73 L252 535.7 L238.56 543.23 Z" class="st6"/>
			</g>
			<g id="shape7-18" v:mID="7" v:groupContext="shape" transform="translate(100.99,-65.3139)">
				<title>Sheet.7</title>
				<path d="M22.8 552.37 L0 565.4 L52.59 596.15 L52.51 596.13 L75.22 583.04 L22.64 552.29 L22.8 552.37 Z" class="st7"/>
			</g>
			<g id="shape8-24" v:mID="8" v:groupContext="shape" transform="translate(148.495,-97.0437)">
				<title>Sheet.8</title>
				<path d="M9.03 569.77 L8.88 570.21 L0 545.88 C0 545.88 0.99 514.6 2.96 513.65 C2.96 513.65 9.21 502.92 28.28 513.02
							 C28.28 513.02 65.12 525.66 59.86 576.53 L58.46 596.15 L9.03 569.77 Z" class="st8"/>
				<path d="M9.03 569.77 L8.88 570.21 L0 545.88 C0 545.88 0.99 514.6 2.96 513.65 C2.96 513.65 9.21 502.92 28.28 513.02
							 C28.28 513.02 65.12 525.66 59.86 576.53 L58.46 596.15" class="st3"/>
			</g>
			<g id="shape9-31" v:mID="9" v:groupContext="shape" transform="translate(154.776,-148.407)">
				<title>Sheet.9</title>
				<path d="M48.95 596.15 C45.19 583.76 36.21 576.14 33.08 573.5 C13.79 557.18 -0 561.41 0 561.41 L22.08 549.3 C22.08
							 549.3 35.87 545.07 55.16 561.39 C58.26 563.99 67.07 571.47 70.91 583.6 L48.95 596.15 Z" class="st9"/>
				<path d="M48.95 596.15 C45.19 583.76 36.21 576.14 33.08 573.5 C13.79 557.18 -0 561.41 0 561.41 L22.08 549.3 C22.08
							 549.3 35.87 545.07 55.16 561.39 C58.26 563.99 67.07 571.47 70.91 583.6" class="st3"/>
			</g>
			<g id="shape10-36" v:mID="10" v:groupContext="shape" transform="translate(203.733,-97.8117)">
				<title>Sheet.10</title>
				<path d="M21.95 533.01 C22.75 535.54 23.33 538.28 23.6 541.22 C23.94 544.95 26.84 578.18 24.87 582.73 C22.91 587.3
							 4.01 596.15 4.01 596.15 C4.01 596.15 1.86 557.06 1.52 553.34 C1.28 550.72 0.79 548.26 0.11 545.95 C0.07
							 545.82 0.04 545.69 0 545.56 C0 545.56 4.13 529.19 21.9 532.95 L21.95 533.01 Z" class="st10"/>
				<path d="M21.95 533.01 C22.75 535.54 23.33 538.28 23.6 541.22 C23.94 544.95 26.84 578.18 24.87 582.73 C22.91 587.3
							 4.01 596.15 4.01 596.15 C4.01 596.15 1.86 557.06 1.52 553.34 C1.28 550.72 0.79 548.26 0.11 545.95 C0.07
							 545.82 0.04 545.69 0 545.56 C0 545.56 4.13 529.19 21.9 532.95" class="st3"/>
			</g>
			<g id="shape11-43" v:mID="11" v:groupContext="shape" transform="translate(205.352,-86.2106)">
				<title>Sheet.11</title>
				<path d="M0 585.85 L19.88 574.54 L18.23 596.15 L0 585.85 Z" class="st11"/>
			</g>
			<g id="shape12-45" v:mID="12" v:groupContext="shape" transform="translate(145.882,-76.2864)">
				<title>Sheet.12</title>
				<path d="M29.8 578.34 C31.99 583.8 27.58 590.51 19.96 593.33 C12.34 596.15 4.38 594.01 2.19 588.56 C-0 583.1 4.41
							 576.37 12.03 573.56 C19.66 570.73 27.61 572.89 29.8 578.34 Z" class="st12"/>
			</g>
			<g id="shape13-49" v:mID="13" v:groupContext="shape" transform="translate(174.376,-181.836)">
				<title>Sheet.13</title>
				<path d="M0.65 584.95 L0.75 590.29 C0.75 590.29 0 593.18 11.89 594.99 C11.89 594.99 24.76 596.15 26.49 593.18 L26.37
							 583.09 C26.37 583.09 17.19 591.56 1.08 584.74 L0.65 584.95 Z" class="st13"/>
				<path d="M0.65 584.95 L0.75 590.29 C0.75 590.29 0 593.18 11.89 594.99 C11.89 594.99 24.76 596.15 26.49 593.18 L26.37
							 583.09 C26.37 583.09 17.19 591.56 1.08 584.74" class="st3"/>
			</g>
			<g id="shape14-54" v:mID="14" v:groupContext="shape" transform="translate(172.367,-78.6649)">
				<title>Sheet.14</title>
				<path d="M35.14 558.8 L1.61 578.05 C1.61 578.05 7.46 584.02 0 591.86 C-0 591.86 1.94 596.15 12.64 590.39 L35.67 576.9
							 L35.14 558.8 Z" class="st14"/>
			</g>
			<g id="shape15-56" v:mID="15" v:groupContext="shape" transform="translate(129.231,-108.798)">
				<title>Sheet.15</title>
				<path d="M1.26 596.15 L29.32 580.43 L28.52 562.49 L0 578.16 L1.26 596.15 Z" class="st15"/>
				<path d="M1.26 596.15 L29.32 580.43 L28.52 562.49 L0 578.16" class="st3"/>
			</g>
			<g id="shape16-59" v:mID="16" v:groupContext="shape" transform="translate(164.374,-189.042)">
				<title>Sheet.16</title>
				<path d="M46.12 569.52 C46.12 584.22 35.8 596.15 23.06 596.15 C10.32 596.15 -0 584.22 0 569.52 C-0 554.82 10.32 542.88
							 23.06 542.88 C35.8 542.88 46.12 554.82 46.12 569.52 L-11.53 529.57 L46.12 569.52 Z" class="st16"/>
				<path d="M46.12 569.52 C46.12 584.22 35.8 596.15 23.06 596.15 C10.32 596.15 -0 584.22 0 569.52 C-0 554.82 10.32 542.88
							 23.06 542.88 C35.8 542.88 46.12 554.82 46.12 569.52" class="st17"/>
			</g>
			<g id="shape17-64" v:mID="17" v:groupContext="shape" transform="translate(128.576,-96.6648)">
				<title>Sheet.17</title>
				<path d="M0 556.55 C9.55 551.19 20.33 545.09 20.33 545.09 L29.11 550.21 L0.81 566.29 L0 556.55 ZM78.25 577.12 L45.4
							 596.15 C45.4 596.15 43.15 592.59 35.22 592.7 C35.22 592.7 35.87 590.84 38.76 589.46 C41.66 588.07 69.47
							 572.01 69.47 572.01 L78.25 577.12 Z" class="st18"/>
				<path d="M0 556.55 C9.55 551.19 20.33 545.09 20.33 545.09 L29.11 550.21 L0.81 566.29M78.25 577.12 L45.4 596.15 C45.4
							 596.15 43.15 592.59 35.22 592.7 C35.22 592.7 35.87 590.84 38.76 589.46 C41.66 588.07 69.47 572.01 69.47
							 572.01 L78.25 577.12" class="st3"/>
			</g>
			<g id="shape18-67" v:mID="18" v:groupContext="shape" transform="translate(128.5,-77.5173)">
				<title>Sheet.18</title>
				<path d="M29.61 549.96 L28.77 515.88 L29.61 549.96 ZM2.02 564.86 L29.81 549.78 L2.02 564.86 ZM69.33 538.27 L69.33
							 552.83 L41.83 568.63 C36.69 571.46 35.51 573.24 35.51 573.24 C35.51 573.24 24.23 573.95 20.4 581.79
							 C16.58 589.63 22.02 598.68 34.96 595.53 C34.96 595.53 41.42 593.68 43.76 590.81 C43.76 590.81 47.73
							 594.99 61.01 586.84 L96.74 565.85 C102.24 562.17 100.84 552.77 100.84 552.77 C100.18 540.92 99.19 523.55
							 98.97 521.13 C97.42 504.12 85.32 493.85 81.58 490.69 C78.5 488.09 75.6 486.07 72.39 484 L72.26 479.91
							 C78.41 475.15 82.06 467.4 82.06 458.63 C82.06 443.9 72.79 431.47 58.94 431.36 C46.3 431.47 35.55 442.93
							 36.07 458.63 C36.07 467.51 39.83 475.36 45.57 480.22 L26.42 490.73 C26.42 490.73 21.59 493.2 21.07 501.87
							 L20 526.05 C19.58 526.01 9.24 531.88 0 537.16 L69.33 538.27 Z" class="st19"/>
				<path d="M29.61 549.96 L28.77 515.88M2.02 564.86 L29.81 549.78M69.33 538.27 L69.33 552.83 L41.83 568.63 C36.69 571.46
							 35.51 573.24 35.51 573.24 C35.51 573.24 24.23 573.95 20.4 581.79 C16.58 589.63 22.02 598.68 34.96 595.53
							 C34.96 595.53 41.42 593.68 43.76 590.81 C43.76 590.81 47.73 594.99 61.01 586.84 L96.74 565.85 C102.24
							 562.17 100.84 552.77 100.84 552.77 C100.18 540.92 99.19 523.55 98.97 521.13 C97.42 504.12 85.32 493.85
							 81.58 490.69 C78.5 488.09 75.6 486.07 72.39 484 L72.26 479.91 C78.41 475.15 82.06 467.4 82.06 458.63
							 C82.06 443.9 72.79 431.47 58.94 431.36 C46.3 431.47 35.55 442.93 36.07 458.63 C36.07 467.51 39.83 475.36
							 45.57 480.22 L26.42 490.73 C26.42 490.73 21.59 493.2 21.07 501.87 L20 526.05 C19.58 526.01 9.24 531.88
							 0 537.16" class="st20"/>
			</g>
			<g id="shape19-70" v:mID="19" v:groupContext="shape" transform="translate(100.99,-61.1117)">
				<title>Sheet.19</title>
				<path d="M26.34 576.16 L0 560.47 L0 564.81 L26.64 580.69 L26.92 584.82 L30.24 582.83 L52.53 596.11 L79.33 580.68
							 L75.22 578.43 L52.59 591.8 L31.43 579.2 L26.81 510.68 L21.4 513.73 L26.34 576.16 ZM52.51 596.13 L52.59
							 596.15 L52.53 596.11 L52.51 596.13 Z" class="st21"/>
				<path d="M26.34 576.16 L0 560.47 L0 564.81 L26.64 580.69 L26.92 584.82 L30.24 582.83 L52.53 596.11 L79.33 580.68
							 L75.22 578.43 L52.59 591.8 L31.43 579.2 L26.81 510.68 L21.4 513.73 L26.34 576.16M52.51 596.13 L52.59
							 596.15 L52.53 596.11" class="st22"/>
			</g>
			<g id="shape20-73" v:mID="20" v:groupContext="shape" transform="translate(67.084,-143.535)">
				<title>Sheet.20</title>
				<path d="M55.3 596.15 L0 565.52 L5.3 562.91 L60.71 593.11 L55.3 596.15 Z" class="st23"/>
			</g>
			<g id="shape21-76" v:mID="21" v:groupContext="shape" transform="translate(68.3244,-62.3839)">
				<title>Sheet.21</title>
				<path d="M55.15 583.75 C55.15 590.6 42.8 596.15 27.57 596.15 C12.34 596.15 -0 590.6 0 583.75 C0 576.89 12.34 571.34
							 27.57 571.34 C42.8 571.34 55.15 576.89 55.15 583.75 Z" class="st24"/>
			</g>
			<g id="shape22-80" v:mID="22" v:groupContext="shape" transform="translate(67.1132,-72.4428)">
				<title>Sheet.22</title>
				<path d="M0 494.37 L4.68 565.15 L60.8 596.15 L55.3 524.63 L0 494.37 Z" class="st25"/>
			</g>
			<g id="shape23-86" v:mID="23" v:groupContext="shape" transform="translate(73.9581,-64.0824)">
				<title>Sheet.23</title>
				<path d="M15.39 544.52 C1.07 565.17 -0 592.61 0 592.61 L8.97 596.15 C8.97 596.15 10.03 568.7 24.35 548.05 L15.39
							 544.52 Z" class="st7"/>
			</g>
			<g id="shape24-89" v:mID="24" v:groupContext="shape" transform="translate(68.2828,-57.3527)">
				<title>Sheet.24</title>
				<path d="M30.03 541.32 L33.02 579.34 L14.82 589.66 C14.82 589.66 15.89 562.21 30.03 541.32 ZM55.15 578.87 C55.15
							 585.72 42.8 591.27 27.57 591.27 C12.34 591.27 0 585.72 0 578.87 L0 583.75 C0 590.6 12.34 596.15 27.57
							 596.15 C42.8 596.15 55.15 590.6 55.15 583.75 L55.15 578.87 Z" class="st26"/>
			</g>
			<g id="shape25-91" v:mID="25" v:groupContext="shape" transform="translate(0,-9.69231)">
				<title>Sheet.25</title>
				<path d="M174.07 412.4 L156.06 421.99 C153.49 424.01 152.8 423.69 151.46 426.3 C148.31 432.4 148.72 455.5 148.5 458.23
							 C146.9 458.41 139.39 463.14 128.58 469.57 L128.41 464.9 L127.8 459.27 L72.39 429.07 L67.08 431.68 L69.44
							 466.78 L0 506.24 L0 510.26 L152.8 596.15 L252 539.73 L252 535.7 L237.48 527.49 L240.47 458.63 L227.2
							 451.05 C223.78 437.44 221.78 431.48 200.89 416.17 C200.83 414.15 200.78 413.95 200.76 412.09 C208.04
							 405.47 211.19 397.76 210.52 389.12 C209.79 372.81 197.79 362.27 187.43 363.53 C173.55 364.56 165.8 373.27
							 164.41 388.75 C164.44 392.22 162.8 401.23 174.07 412.4 Z" class="st27"/>
			</g>
		</g>
		<g id="shape28-93" v:mID="28" v:groupContext="shape" transform="translate(409.5,-246.5)">
			<title>Sheet.28</title>
			<desc>!</desc>
			<v:textBlock v:margins="rect(2,2,2,2)"/>
			<v:textRect cx="24.75" cy="566.45" width="49.5" height="59.4"/>
			<rect x="0" y="536.75" width="49.5" height="59.4" class="st28"/>
			<text x="14.98" y="584.45" class="st29" v:langID="1031"><v:paragraph v:horizAlign="1"/><v:tabList/>!</text>		</g>
		<g id="shape29-96" v:mID="29" v:groupContext="shape" transform="translate(380.25,-260.9)">
			<title>Sheet.29</title>
			<desc>!</desc>
			<v:textBlock v:margins="rect(2,2,2,2)"/>
			<v:textRect cx="24.75" cy="566.45" width="49.5" height="59.4"/>
			<rect x="0" y="536.75" width="49.5" height="59.4" class="st28"/>
			<text x="14.98" y="584.45" class="st29" v:langID="1031"><v:paragraph v:horizAlign="1"/><v:tabList/>!</text>		</g>
		<g id="shape30-99" v:mID="30" v:groupContext="shape" transform="translate(348.75,-251.9)">
			<title>Sheet.30</title>
			<desc>!</desc>
			<v:textBlock v:margins="rect(2,2,2,2)"/>
			<v:textRect cx="24.75" cy="566.45" width="49.5" height="59.4"/>
			<rect x="0" y="536.75" width="49.5" height="59.4" class="st28"/>
			<text x="14.98" y="584.45" class="st29" v:langID="1031"><v:paragraph v:horizAlign="1"/><v:tabList/>!</text>		</g>
		<g id="shape32-102" v:mID="32" v:groupContext="shape" transform="translate(-118.529,73.0281) rotate(-89.1575) scale(-1,1)">
			<title>45 degree single</title>
			<desc>Processing Network Simulation</desc>
			<v:userDefs>
				<v:ud v:nameU="visVersion" v:val="VT0(14):26"/>
			</v:userDefs>
			<v:textBlock v:margins="rect(4,4,4,4)"/>
			<v:textRect cx="91.1872" cy="543.275" width="224.64" height="108" transform="rotate(90)"/>
			<path d="M0 542.15 L54 488.15 L54 523.79 L191.27 523.79 L191.27 560.51 L54 560.51 L54 596.15 L0 542.15 Z" class="st30"/>
			<text x="446.43" y="83.99" transform="rotate(-90) scale(-1,1)" class="st31" v:langID="1031"><v:paragraph
						v:horizAlign="1"/><v:tabList/>Processing Network <tspan x="491.21" dy="1.2em" class="st32">Simulation</tspan></text>		</g>
		<g id="shape33-106" v:mID="33" v:groupContext="shape" transform="translate(-401.525,81) rotate(-90) scale(-1,1)">
			<title>45 degree single.8</title>
			<desc>Event-Based Simulation</desc>
			<v:userDefs>
				<v:ud v:nameU="visVersion" v:val="VT0(14):26"/>
			</v:userDefs>
			<v:textBlock v:margins="rect(4,4,4,4)"/>
			<v:textRect cx="69.75" cy="558.462" width="313.88" height="99" transform="rotate(90)"/>
			<path d="M0 546.65 L49.5 497.15 L49.5 529.82 L191.25 529.82 L191.25 563.48 L49.5 563.48 L49.5 596.15 L0 546.65 Z"
					class="st30"/>
			<text x="414.37" y="78.75" transform="rotate(-90) scale(-1,1)" class="st33" v:langID="1031"><v:paragraph
						v:horizAlign="1"/><v:tabList/>Event-Based Simulation</text>		</g>
		<g id="shape35-109" v:mID="35" v:groupContext="shape" transform="translate(24.75,-317.15)">
			<title>Sheet.35</title>
			<desc>Event Scheduling Future Events List</desc>
			<v:textBlock v:margins="rect(2,2,2,2)"/>
			<v:textRect cx="120.375" cy="538.955" width="231.75" height="69.75"/>
			<rect x="0" y="526.4" width="231.75" height="69.75" class="st28"/>
			<text x="37.15" y="531.76" class="st34" v:langID="1031"><v:paragraph v:horizAlign="1"/><v:tabList/>Event Scheduling<v:lf/><tspan
						x="33.87" dy="1.2em" class="st32">Future Events List</tspan></text>		</g>
		<g id="shape40-113" v:mID="40" v:groupContext="shape" transform="translate(76.6,83.25) rotate(-90) scale(-1,1)">
			<title>45 degree single.40</title>
			<desc>Agent-Based Simulation</desc>
			<v:userDefs>
				<v:ud v:nameU="visVersion" v:val="VT0(14):26"/>
			</v:userDefs>
			<v:textBlock v:margins="rect(4,4,4,4)"/>
			<v:textRect cx="103.587" cy="546.65" width="189" height="99" transform="rotate(90)"/>
			<path d="M0 546.65 L49.5 497.15 L49.5 529.82 L189 529.82 L189 563.48 L49.5 563.48 L49.5 596.15 L0 546.65 Z"
					class="st30"/>
			<text x="484.85" y="96.39" transform="rotate(-90) scale(-1,1)" class="st31" v:langID="1031"><v:paragraph
						v:horizAlign="1"/><v:tabList/>Agent-Based<v:lf/><tspan x="494.58" dy="1.2em" class="st32">Simulation</tspan></text>		</g>
		<g id="shape43-117" v:mID="43" v:groupContext="shape" transform="translate(449.156,-278.9)">
			<title>Sheet.43</title>
			<desc>GPSS (1961), SIMAN/Arena, ProModel, ExtendSim, Simio, AnyLogi...</desc>
			<v:textBlock v:margins="rect(2,2,2,2)"/>
			<v:textRect cx="78.75" cy="539.9" width="157.5" height="112.5"/>
			<rect x="0" y="483.65" width="157.5" height="112.5" class="st28"/>
			<text x="2" y="502.1" class="st35" v:langID="1031"><v:paragraph/><v:tabList/>GPSS (1961), <v:lf/><tspan x="2"
						dy="1.2em" class="st32">SIMAN</tspan>/Arena, <v:lf/><tspan x="2" dy="1.2em" class="st32">ProModel</tspan>, <v:lf/><tspan
						x="2" dy="1.2em" class="st32">ExtendSim</tspan>, Simio, <v:lf/><tspan x="2" dy="1.2em" class="st32">AnyLogic</tspan>, ...</text>		</g>
		<g id="shape45-124" v:mID="45" v:groupContext="shape" transform="translate(181.125,-476.9)">
			<title>Sheet.45</title>
			<desc>SIMSCRIPT (1962)</desc>
			<v:textBlock v:margins="rect(2,2,2,2)"/>
			<v:textRect cx="83.8125" cy="581.525" width="167.63" height="29.25"/>
			<rect x="0" y="566.9" width="167.625" height="29.25" class="st28"/>
			<text x="4.42" y="588.13" class="st36" v:langID="1031"><v:paragraph v:horizAlign="1"/><v:tabList/>SIMSCRIPT (1962)</text>		</g>
		<g id="shape46-127" v:mID="46" v:groupContext="shape" transform="translate(25.875,-404.9)">
			<title>Sheet.46</title>
			<desc>Event Graphs (Schruben 1983)</desc>
			<v:textBlock v:margins="rect(2,2,2,2)"/>
			<v:textRect cx="128.25" cy="582.65" width="256.5" height="27"/>
			<rect x="0" y="569.15" width="256.5" height="27" class="st28"/>
			<text x="4.85" y="588.65" class="st37" v:langID="1031"><v:paragraph v:horizAlign="1"/><v:tabList/>Event Graphs (Schruben 1983)</text>		</g>
		<g id="shape26-130" v:mID="26" v:groupContext="shape" transform="translate(276.188,-344.15)">
			<title>Sheet.26</title>
			<desc>Activities</desc>
			<v:textBlock v:margins="rect(2,2,2,2)"/>
			<v:textRect cx="74.2118" cy="562.94" width="142.88" height="40.5"/>
			<rect x="0" y="555.65" width="142.875" height="40.5" class="st28"/>
			<text x="29.81" y="570.14" class="st34" v:langID="1031"><v:paragraph v:horizAlign="1"/><v:tabList/>Activities</text>		</g>
		<g id="shape27-133" v:mID="27" v:groupContext="shape" transform="translate(24.75,-530.9)">
			<title>Sheet.27</title>
			<desc>Object Event Simulation</desc>
			<v:textBlock v:margins="rect(2,2,2,2)"/>
			<v:textRect cx="303.75" cy="566.9" width="607.5" height="58.5"/>
			<rect x="0" y="537.65" width="607.5" height="58.5" class="st28"/>
			<text x="10.62" y="584.9" class="st38" v:langID="1031"><v:paragraph v:horizAlign="1"/><v:tabList/>Object Event Simulation</text>		</g>
		<g id="shape31-136" v:mID="31" v:groupContext="shape" transform="translate(627.75,-526.4)">
			<title>Sheet.31</title>
			<desc>OESjs, OESpy, ...</desc>
			<v:textBlock v:margins="rect(2,2,2,2)"/>
			<v:textRect cx="51.75" cy="569.15" width="103.5" height="54"/>
			<rect x="0" y="542.15" width="103.5" height="54" class="st28"/>
			<text x="2" y="561.95" class="st39" v:langID="1031"><v:paragraph/><v:tabList/>OESjs,<v:lf/><tspan x="2" dy="1.2em"
						class="st32">OESpy</tspan>, ...</text>		</g>
	</g>
</svg>
