<?xml version="1.0" encoding="UTF-8" standalone="no"?>
<!DOCTYPE svg PUBLIC "-//W3C//DTD SVG 1.0//EN" "http://www.w3.org/TR/2001/REC-SVG-20010904/DTD/svg10.dtd">
<!-- Generated by Microsoft Visio 11.0, SVG Export, v1.0 ss.svg Page-1 -->
<svg xmlns="http://www.w3.org/2000/svg" xmlns:xlink="http://www.w3.org/1999/xlink" xmlns:ev="http://www.w3.org/2001/xml-events"
		xmlns:v="http://schemas.microsoft.com/visio/2003/SVGExtensions/" width="10.2092in" height="6.44396in"
		viewBox="0 0 735.059 463.965" xml:space="preserve" color-interpolation-filters="sRGB" class="st12">
	<v:documentProperties v:langID="1033" v:viewMarkup="false"/>

	<style type="text/css">
	<![CDATA[
		.st1 {fill:none;stroke:none;stroke-linecap:round;stroke-linejoin:round;stroke-width:0.75}
		.st2 {fill:#000000;font-family:Calibri;font-size:4.99999em}
		.st3 {fill:#dde2cd;stroke:#000000;stroke-linecap:round;stroke-linejoin:round;stroke-width:0.24}
		.st4 {fill:#000000;font-family:Calibri;font-size:1.99999em}
		.st5 {fill:#000000;font-family:Calibri;font-size:2.50001em}
		.st6 {font-size:1em}
		.st7 {fill:#00b050;font-family:Calibri;font-size:1.99999em}
		.st8 {fill:#fdebdd;stroke:#000000;stroke-linecap:round;stroke-linejoin:round;stroke-width:0.24}
		.st9 {fill:#000000;font-family:Calibri;font-size:1.66667em}
		.st10 {fill:#000000;font-family:Calibri;font-size:1.5em}
		.st11 {fill:#0070c0;font-family:Calibri;font-size:1.5em}
		.st12 {fill:none;fill-rule:evenodd;font-size:12px;overflow:visible;stroke-linecap:square;stroke-miterlimit:3}
	]]>
	</style>

	<g v:mID="0" v:index="1" v:groupContext="foregroundPage">
		<title>Page-1</title>
		<v:pageProperties v:drawingScale="1" v:pageScale="1" v:drawingUnits="0" v:shadowOffsetX="9" v:shadowOffsetY="-9"/>
		<g id="shape1-1" v:mID="1" v:groupContext="shape" transform="translate(373.74,-152.325)">
			<title>Sheet.1</title>
			<desc>?</desc>
			<v:textBlock v:margins="rect(2,2,2,2)"/>
			<v:textRect cx="24.75" cy="434.265" width="49.5" height="59.4"/>
			<rect x="0" y="404.565" width="49.5" height="59.4" class="st1"/>
			<text x="10.85" y="452.27" class="st2" v:langID="1031"><v:paragraph v:horizAlign="1"/><v:tabList/>?</text>		</g>
		<g id="shape2-4" v:mID="2" v:groupContext="shape" transform="translate(414.24,-134.325)">
			<title>Sheet.2</title>
			<desc>?</desc>
			<v:textBlock v:margins="rect(2,2,2,2)"/>
			<v:textRect cx="24.75" cy="434.265" width="49.5" height="59.4"/>
			<rect x="0" y="404.565" width="49.5" height="59.4" class="st1"/>
			<text x="10.85" y="452.27" class="st2" v:langID="1031"><v:paragraph v:horizAlign="1"/><v:tabList/>?</text>		</g>
		<g id="shape3-7" v:mID="3" v:groupContext="shape" transform="translate(407.49,-188.325)">
			<title>Sheet.3</title>
			<desc>?</desc>
			<v:textBlock v:margins="rect(2,2,2,2)"/>
			<v:textRect cx="24.75" cy="434.265" width="49.5" height="59.4"/>
			<rect x="0" y="404.565" width="49.5" height="59.4" class="st1"/>
			<text x="10.85" y="452.27" class="st2" v:langID="1031"><v:paragraph v:horizAlign="1"/><v:tabList/>?</text>		</g>
		<g id="shape4-10" v:mID="4" v:groupContext="shape" transform="translate(378.24,-206.325)">
			<title>Sheet.4</title>
			<desc>?</desc>
			<v:textBlock v:margins="rect(2,2,2,2)"/>
			<v:textRect cx="24.75" cy="434.265" width="49.5" height="59.4"/>
			<rect x="0" y="404.565" width="49.5" height="59.4" class="st1"/>
			<text x="10.85" y="452.27" class="st2" v:langID="1031"><v:paragraph v:horizAlign="1"/><v:tabList/>?</text>		</g>
		<g id="shape5-13" v:mID="5" v:groupContext="shape" transform="translate(346.74,-200.025)">
			<title>Sheet.5</title>
			<desc>?</desc>
			<v:textBlock v:margins="rect(2,2,2,2)"/>
			<v:textRect cx="24.75" cy="434.265" width="49.5" height="59.4"/>
			<rect x="0" y="404.565" width="49.5" height="59.4" class="st1"/>
			<text x="10.85" y="452.27" class="st2" v:langID="1031"><v:paragraph v:horizAlign="1"/><v:tabList/>?</text>		</g>
		<g id="shape6-16" v:mID="6" v:groupContext="shape" transform="translate(330.99,-152.325)">
			<title>Sheet.6</title>
			<desc>?</desc>
			<v:textBlock v:margins="rect(2,2,2,2)"/>
			<v:textRect cx="24.75" cy="434.265" width="49.5" height="59.4"/>
			<rect x="0" y="404.565" width="49.5" height="59.4" class="st1"/>
			<text x="10.85" y="452.27" class="st2" v:langID="1031"><v:paragraph v:horizAlign="1"/><v:tabList/>?</text>		</g>
		<g id="shape7-19" v:mID="7" v:groupContext="shape" transform="translate(0.24,680.205) scale(1,-1)">
			<title>45 degree single</title>
			<desc>Process-Oriented Simulation</desc>
			<v:userDefs>
				<v:ud v:nameU="visVersion" v:val="VT0(14):26"/>
			</v:userDefs>
			<v:textBlock v:margins="rect(4,4,4,4)"/>
			<v:textRect cx="162" cy="409.965" width="324" height="108"/>
			<path d="M0 409.96 L54 355.96 L54 391.6 L324 391.6 L324 428.32 L54 428.32 L54 463.96 L0 409.96 Z" class="st3"/>
			<text x="22.95" y="-402.76" transform="scale(1,-1)" class="st4" v:langID="1031"><v:paragraph v:horizAlign="1"/><v:tabList/>Process-Oriented Simulation</text>		</g>
		<g id="shape8-22" v:mID="8" v:groupContext="shape" transform="translate(-18.2249,0.24) rotate(-90) scale(-1,1)">
			<title>45 degree single.8</title>
			<desc>Event-Based Simulation</desc>
			<v:userDefs>
				<v:ud v:nameU="visVersion" v:val="VT0(14):26"/>
			</v:userDefs>
			<v:textBlock v:margins="rect(4,4,4,4)"/>
			<v:textRect cx="69.75" cy="426.277" width="313.88" height="99" transform="rotate(90)"/>
			<path d="M0 414.46 L49.5 364.96 L49.5 397.63 L191.25 397.63 L191.25 431.29 L49.5 431.29 L49.5 463.96 L0 414.46 Z"
					class="st3"/>
			<text x="282.19" y="78.75" transform="rotate(-90) scale(-1,1)" class="st5" v:langID="1031"><v:paragraph
						v:horizAlign="1"/><v:tabList/>Event-Based Simulation</text>		</g>
		<g id="shape9-25" v:mID="9" v:groupContext="shape" transform="translate(720.24,-117.225) scale(-1,1)">
			<title>45 degree single.9</title>
			<desc>Process Interaction Simulation</desc>
			<v:userDefs>
				<v:ud v:nameU="visVersion" v:val="VT0(14):26"/>
			</v:userDefs>
			<v:textBlock v:margins="rect(4,4,4,4)"/>
			<v:textRect cx="141.75" cy="387.465" width="256.5" height="132.75"/>
			<path d="M0 387.46 L76.5 310.96 L76.5 361.45 L256.5 361.45 L256.5 413.47 L76.5 413.47 L76.5 463.96 L0 387.46 Z"
					class="st3"/>
			<text x="-235.34" y="380.27" transform="scale(-1,1)" class="st4" v:langID="1031"><v:paragraph v:horizAlign="1"/><v:tabList/>Process Interaction <tspan
						x="-193.82" dy="1.2em" class="st6">Simulation</tspan></text>		</g>
		<g id="shape35-29" v:mID="35" v:groupContext="shape" transform="translate(275.865,-274.725)">
			<title>Sheet.35</title>
			<desc>Event Scheduling Future Events List</desc>
			<v:textBlock v:margins="rect(2,2,2,2)"/>
			<v:textRect cx="120.375" cy="417.84" width="231.75" height="56.25"/>
			<rect x="0" y="407.715" width="231.75" height="56.25" class="st1"/>
			<text x="37.15" y="410.64" class="st7" v:langID="1031"><v:paragraph v:horizAlign="1"/><v:tabList/>Event Scheduling<v:lf/><tspan
						x="33.87" dy="1.2em" class="st6">Future Events List</tspan></text>		</g>
		<g id="shape36-33" v:mID="36" v:groupContext="shape" transform="translate(57.615,-218.475)">
			<title>Sheet.36</title>
			<desc>Queing/Processing Networks</desc>
			<v:textBlock v:margins="rect(2,2,2,2)"/>
			<v:textRect cx="145.125" cy="452.715" width="290.25" height="22.5"/>
			<rect x="0" y="441.465" width="290.25" height="22.5" class="st1"/>
			<text x="3.9" y="459.92" class="st7" v:langID="1031"><v:paragraph v:horizAlign="1"/><v:tabList/>Queing/Processing Networks</text>		</g>
		<g id="shape37-36" v:mID="37" v:groupContext="shape" transform="translate(468.24,-141.975)">
			<title>Sheet.37</title>
			<desc>with Co-Routines</desc>
			<v:textBlock v:margins="rect(2,2,2,2)"/>
			<v:textRect cx="86.625" cy="452.715" width="173.25" height="22.5"/>
			<rect x="0" y="441.465" width="173.25" height="22.5" class="st1"/>
			<text x="2.97" y="459.92" class="st7" v:langID="1031"><v:paragraph v:horizAlign="1"/><v:tabList/>with Co-Routines</text>		</g>
		<g id="shape38-39" v:mID="38" v:groupContext="shape" transform="translate(389.153,-304.037) rotate(-43.5679) scale(-1,1)">
			<title>45 degree single.38</title>
			<desc>Petri Nets, Activity Cycle Diagrams</desc>
			<v:userDefs>
				<v:ud v:nameU="visVersion" v:val="VT0(14):26"/>
			</v:userDefs>
			<v:textBlock v:margins="rect(4,4,4,4)"/>
			<v:textRect cx="127.319" cy="451.002" width="254.64" height="25.925" transform="rotate(43.5679)"/>
			<path d="M0 451 L12.96 438.04 L12.96 446.6 L254.64 446.6 L254.64 455.41 L12.96 455.41 L12.96 463.96 L0 451 Z"
					class="st8"/>
			<text x="167.32" y="407.33" transform="rotate(-43.5679) scale(-1,1)" class="st4" v:langID="1031"><v:paragraph
						v:horizAlign="1"/><v:tabList/>Petri Nets,<v:lf/><tspan x="105.37" dy="1.2em" class="st6">Activity Cycle Diagrams</tspan></text>		</g>
		<g id="shape39-43" v:mID="39" v:groupContext="shape" transform="translate(-241.698,358.569) rotate(41.0091) scale(1,-1)">
			<title>45 degree single.39</title>
			<desc>Finite State Machines, DEVS</desc>
			<v:userDefs>
				<v:ud v:nameU="visVersion" v:val="VT0(14):26"/>
			</v:userDefs>
			<v:textBlock v:margins="rect(4,4,4,4)"/>
			<v:textRect cx="146.193" cy="440.612" width="274.32" height="53.4625" transform="rotate(-41.0091)"/>
			<path d="M0 451 L12.96 438.04 L12.96 446.6 L274.32 446.6 L274.32 455.41 L12.96 455.41 L12.96 463.96 L0 451 Z"
					class="st8"/>
			<text x="291.32" y="-243.76" transform="rotate(41.0091) scale(1,-1)" class="st4" v:langID="1031"><v:paragraph
						v:horizAlign="1"/><v:tabList/>Finite State Machines, <tspan x="373.87" dy="1.2em" class="st6">DEVS</tspan></text>		</g>
		<g id="shape40-47" v:mID="40" v:groupContext="shape" transform="translate(720.24,-13.7249) scale(-1,1)">
			<title>45 degree single.40</title>
			<desc>Agent-Based Simulation</desc>
			<v:userDefs>
				<v:ud v:nameU="visVersion" v:val="VT0(14):26"/>
			</v:userDefs>
			<v:textBlock v:margins="rect(4,4,4,4)"/>
			<v:textRect cx="128.25" cy="414.465" width="234" height="99"/>
			<path d="M0 414.46 L49.5 364.96 L49.5 397.63 L234 397.63 L234 431.29 L49.5 431.29 L49.5 463.96 L0 414.46 Z" class="st3"/>
			<text x="-225.4" y="420.47" transform="scale(-1,1)" class="st9" v:langID="1031"><v:paragraph v:horizAlign="1"/><v:tabList/>Agent-Based Simulation</text>		</g>
		<g id="shape41-50" v:mID="41" v:groupContext="shape" transform="translate(54.24,-148.725)">
			<title>Sheet.41</title>
			<desc>= Process-Interaction Simulation?</desc>
			<v:textBlock v:margins="rect(2,2,2,2)"/>
			<v:textRect cx="128.25" cy="450.465" width="256.5" height="27"/>
			<rect x="0" y="436.965" width="256.5" height="27" class="st1"/>
			<text x="5.57" y="455.86" class="st10" v:langID="1031"><v:paragraph v:horizAlign="1"/><v:tabList/>= Process-Interaction Simulation?</text>		</g>
		<g id="shape42-53" v:mID="42" v:groupContext="shape" transform="translate(470.49,-102.037)">
			<title>Sheet.42</title>
			<desc>Simula (1966), SimPy, ...</desc>
			<v:textBlock v:margins="rect(2,2,2,2)"/>
			<v:textRect cx="64.125" cy="444.277" width="128.25" height="39.375"/>
			<rect x="0" y="424.59" width="128.25" height="39.375" class="st1"/>
			<text x="2" y="438.88" class="st11" v:langID="1031"><v:paragraph/><v:tabList/>Simula (1966), <v:lf/><tspan x="2"
						dy="1.2em" class="st6">SimPy</tspan>, ...</text>		</g>
		<g id="shape43-57" v:mID="43" v:groupContext="shape" transform="translate(57.615,-81.2249)">
			<title>Sheet.43</title>
			<desc>GPSS (1961), SIMAN/Arena, ProModel, ExtendSim, Simio, AnyLogi...</desc>
			<v:textBlock v:margins="rect(2,2,2,2)"/>
			<v:textRect cx="104.625" cy="425.715" width="209.25" height="76.5"/>
			<rect x="0" y="387.465" width="209.25" height="76.5" class="st1"/>
			<text x="2" y="409.51" class="st11" v:langID="1031"><v:paragraph/><v:tabList/>GPSS (1961), SIMAN/Arena, <tspan x="2"
						dy="1.2em" class="st6">ProModel</tspan>, ExtendSim, <tspan x="2" dy="1.2em" class="st6">Simio</tspan>, AnyLogic, ...</text>		</g>
		<g id="shape44-62" v:mID="44" v:groupContext="shape" transform="translate(490.74,-2.47495)">
			<title>Sheet.44</title>
			<desc>Individual-Based Simulation, Micro-Simulation</desc>
			<v:textBlock v:margins="rect(2,2,2,2)"/>
			<v:textRect cx="108" cy="444.84" width="216" height="38.25"/>
			<rect x="0" y="425.715" width="216" height="38.25" class="st1"/>
			<text x="2" y="439.44" class="st10" v:langID="1031"><v:paragraph/><v:tabList/>Individual-Based Simulation, <v:lf/><tspan
						x="2" dy="1.2em" class="st6">Micro</tspan>-Simulation</text>		</g>
		<g id="shape45-66" v:mID="45" v:groupContext="shape" transform="translate(432.24,-425.475)">
			<title>Sheet.45</title>
			<desc>SIMSCRIPT (1962)</desc>
			<v:textBlock v:margins="rect(2,2,2,2)"/>
			<v:textRect cx="68.625" cy="449.34" width="137.25" height="29.25"/>
			<rect x="0" y="434.715" width="137.25" height="29.25" class="st1"/>
			<text x="3.67" y="454.74" class="st11" v:langID="1031"><v:paragraph v:horizAlign="1"/><v:tabList/>SIMSCRIPT (1962)</text>		</g>
		<g id="shape46-69" v:mID="46" v:groupContext="shape" transform="translate(276.99,-353.475)">
			<title>Sheet.46</title>
			<desc>Event Graphs (Schruben 1983)</desc>
			<v:textBlock v:margins="rect(2,2,2,2)"/>
			<v:textRect cx="128.25" cy="450.465" width="256.5" height="27"/>
			<rect x="0" y="436.965" width="256.5" height="27" class="st1"/>
			<text x="4.85" y="456.47" class="st9" v:langID="1031"><v:paragraph v:horizAlign="1"/><v:tabList/>Event Graphs (Schruben 1983)</text>		</g>
		<g id="shape47-72" v:mID="47" v:groupContext="shape" transform="translate(46.365,-218.475)">
			<title>Sheet.47</title>
			<desc>Activities</desc>
			<v:textBlock v:margins="rect(2,2,2,2)"/>
			<v:textRect cx="60.1875" cy="430.755" width="115.88" height="40.5"/>
			<rect x="0" y="423.465" width="115.875" height="40.5" class="st1"/>
			<text x="15.79" y="437.96" class="st7" v:langID="1031"><v:paragraph v:horizAlign="1"/><v:tabList/>Activities</text>		</g>
	</g>
</svg>
