<?xml version="1.0" encoding="UTF-8"?>
<!-- Generated by Microsoft Visio 11.0, SVG Export, v1.0 SingleServer_EG_Visio_withER1+2 .svg Page-1 -->
<svg class="st13" width="3.4449in" height="2.1906in" color-interpolation-filters="sRGB" version="1.1" viewBox="0 0 248.03 157.73" xml:space="preserve" xmlns="http://www.w3.org/2000/svg" xmlns:v="http://schemas.microsoft.com/visio/2003/SVGExtensions/" xmlns:xlink="http://www.w3.org/1999/xlink">
	<v:documentProperties v:langID="1033" v:viewMarkup="false">
		<v:userDefs>
			<v:ud v:nameU="msvSubprocessMaster" v:prompt="" v:val="VT4(Box)"/>
			<v:ud v:nameU="msvNoAutoConnect" v:val="VT0(1):26"/>
		</v:userDefs>
	</v:documentProperties>

	<style type="text/css">
	<![CDATA[
		.st1 {fill:none;stroke:#a5a5a5;stroke-linecap:round;stroke-linejoin:round;stroke-width:0.24}
		.st2 {fill:none;stroke:none;stroke-linecap:round;stroke-linejoin:round;stroke-width:0.75}
		.st3 {fill:#a5a5a5;font-family:Calibri;font-size:0.666664em}
		.st4 {marker-end:url(#mrkr13-24);marker-start:url(#mrkr22-22);stroke:#a5a5a5;stroke-linecap:round;stroke-linejoin:round;stroke-width:0.239976}
		.st5 {fill:#a5a5a5;fill-opacity:1;stroke:#a5a5a5;stroke-opacity:1;stroke-width:0.086948582161584}
		.st6 {marker-end:url(#mrkr13-30);stroke:#000000;stroke-linecap:round;stroke-linejoin:round;stroke-width:0.239976}
		.st7 {fill:#000000;fill-opacity:1;stroke:#000000;stroke-opacity:1;stroke-width:0.086948582161584}
		.st8 {fill:none;stroke:#164326;stroke-linecap:round;stroke-linejoin:round;stroke-width:0.24}
		.st9 {fill:#164326;font-family:Calibri;font-size:0.666664em}
		.st10 {marker-end:url(#mrkr13-30);marker-start:url(#mrkr22-72);stroke:#000000;stroke-linecap:round;stroke-linejoin:round;stroke-width:0.239976}
		.st11 {fill:#000000;font-family:Calibri;font-size:0.666664em}
		.st12 {fill:#164326;font-family:Calibri;font-size:0.833336em;font-weight:bold}
		.st13 {fill:none;fill-rule:evenodd;font-size:12px;overflow:visible;stroke-linecap:square;stroke-miterlimit:3}
	]]>
	</style>

	<defs id="Markers">
		<g id="lend22">
			<path d="M 0,0 2.25,-1.125 4.5,0 2.25,1.125 0,0" fill="none" stroke-linecap="round" stroke-linejoin="round"/>
		</g>
		<marker id="mrkr22-22" class="st5" overflow="visible" orient="auto" refX="50.254574" v:arrowSize="2" v:arrowType="22" v:setback="50.2546">
			<use transform="scale(11.501)" xlink:href="#lend22"/>
		</marker>
		<g id="lend13">
			<path d="m3 1-3-1 3-1v2"/>
		</g>
		<marker id="mrkr13-24" class="st5" overflow="visible" orient="auto" refX="-34.503151" v:arrowSize="2" v:arrowType="13" v:setback="34.5032">
			<use transform="scale(-11.501)" xlink:href="#lend13"/>
		</marker>
		<marker id="mrkr13-30" class="st7" overflow="visible" orient="auto" refX="-34.503151" v:arrowSize="2" v:arrowType="13" v:setback="34.5032">
			<use transform="scale(-11.501)" xlink:href="#lend13"/>
		</marker>
		<marker id="mrkr22-72" class="st7" overflow="visible" orient="auto" refX="50.254574" v:arrowSize="2" v:arrowType="22" v:setback="50.2546">
			<use transform="scale(11.501)" xlink:href="#lend22"/>
		</marker>
	</defs>
	<g transform="translate(-63.78 -145.58)" v:groupContext="foregroundPage" v:index="1" v:mID="0">
		<title>Page-1</title>
		<v:pageProperties v:drawingScale="0.0393701" v:drawingUnits="24" v:pageScale="0.0393701" v:shadowOffsetX="8.50394" v:shadowOffsetY="-8.50394"/>
		<v:layer v:index="0" v:name="Connector"/>
		<g transform="translate(90.709 -651.97)" v:groupContext="shape" v:mID="1">
			<title>Circle</title>
			<v:userDefs>
				<v:ud v:nameU="visVersion" v:val="VT0(14):26"/>
			</v:userDefs>
			<path class="st1" d="m0 830.55a11.34 11.34 0 0 1 22.68 0 11.34 11.34 0 1 1-22.68 0z"/>
		</g>
		<g transform="translate(86.457 -640.63)" v:groupContext="shape" v:mID="2">
			<title>Sheet.2</title>
			<desc>Arrival</desc>
			<v:textBlock v:margins="rect(4,4,4,4)" v:tabSpace="42.5197"/>
			<v:textRect width="31.19" height="11.3386" cx="15.5906" cy="836.22"/>
			<rect class="st2" y="830.55" width="31.181" height="11.339"/>
			<text class="st3" x="4.9299998" y="838.62" v:langID="1031"><v:paragraph v:horizAlign="1"/><v:tabList/>Arrival</text>		</g>
		<g transform="translate(174.33 -651.97)" v:groupContext="shape" v:mID="3">
			<title>Circle.3</title>
			<v:userDefs>
				<v:ud v:nameU="visVersion" v:val="VT0(14):26"/>
			</v:userDefs>
			<path class="st1" d="m0 830.55a11.34 11.34 0 0 1 22.68 0 11.34 11.34 0 1 1-22.68 0z"/>
		</g>
		<g transform="translate(161.58 -640.63)" v:groupContext="shape" v:mID="4">
			<title>Sheet.4</title>
			<desc>ServiceStart</desc>
			<v:textBlock v:margins="rect(4,4,4,4)" v:tabSpace="42.5197"/>
			<v:textRect width="51.03" height="11.3386" cx="25.5118" cy="836.22"/>
			<rect class="st2" y="830.55" width="51.024" height="11.339"/>
			<text class="st3" x="6.0599999" y="838.62" v:langID="1031"><v:paragraph v:horizAlign="1"/><v:tabList/>ServiceStart</text>		</g>
		<g transform="translate(259.37 -651.97)" v:groupContext="shape" v:mID="5">
			<title>Circle.5</title>
			<v:userDefs>
				<v:ud v:nameU="visVersion" v:val="VT0(14):26"/>
			</v:userDefs>
			<path class="st1" d="m0 830.55a11.34 11.34 0 0 1 22.68 0 11.34 11.34 0 1 1-22.68 0z"/>
		</g>
		<g transform="translate(246.61 -640.63)" v:groupContext="shape" v:mID="6">
			<title>Sheet.6</title>
			<desc>ServiceEnd</desc>
			<v:textBlock v:margins="rect(4,4,4,4)" v:tabSpace="42.5197"/>
			<v:textRect width="51.03" height="11.3386" cx="25.5118" cy="836.22"/>
			<rect class="st2" y="830.55" width="51.024" height="11.339"/>
			<text class="st3" x="7.73" y="838.62" v:langID="1031"><v:paragraph v:horizAlign="1"/><v:tabList/>ServiceEnd</text>		</g>
		<g transform="translate(113.39 -656.22)" v:groupContext="shape" v:layerMember="0" v:mID="7">
			<title>Dynamic connector</title>
			<path class="st4" d="m12.06 834.8h40.6"/>
		</g>
		<g transform="translate(197.01 -656.22)" v:groupContext="shape" v:layerMember="0" v:mID="8">
			<title>Dynamic connector.8</title>
			<path class="st6" d="m0 834.8h54.08"/>
		</g>
		<g transform="translate(270.71 -667.56)" v:groupContext="shape" v:layerMember="0" v:mID="9">
			<title>Dynamic connector.9</title>
			<path class="st4" d="m0 822.74v-9.48h-85.04v13.26"/>
		</g>
		<g transform="translate(86.457 -629.29)" v:groupContext="shape" v:mID="10">
			<title>Sheet.10</title>
			<desc>{Q++}</desc>
			<v:textBlock v:margins="rect(4,4,4,4)" v:tabSpace="42.5197"/>
			<v:textRect width="31.19" height="11.3386" cx="15.5906" cy="836.22"/>
			<rect class="st2" y="830.55" width="31.181" height="11.339"/>
			<text class="st3" x="6.4000001" y="838.62" v:langID="1031"><v:paragraph v:horizAlign="1"/><v:tabList/>{Q++}</text>		</g>
		<g transform="translate(194.05 -663.31)" v:groupContext="shape" v:mID="11">
			<title>Sheet.11</title>
			<desc>+serviceTime()</desc>
			<v:textBlock v:margins="rect(4,4,4,4)" v:tabSpace="42.5197"/>
			<v:textRect width="59.79" height="11.3386" cx="29.8913" cy="836.22"/>
			<rect class="st2" y="830.55" width="59.783" height="11.339"/>
			<text class="st3" x="6.0700002" y="838.62" v:langID="1031"><v:paragraph v:horizAlign="1"/><v:tabList/>+serviceTime()</text>		</g>
		<g transform="translate(167.82 -629.29)" v:groupContext="shape" v:mID="12">
			<title>Sheet.12</title>
			<desc>{B:=true}</desc>
			<v:textBlock v:margins="rect(4,4,4,4)" v:tabSpace="42.5197"/>
			<v:textRect width="38.53" height="11.3386" cx="19.2614" cy="836.22"/>
			<rect class="st2" y="830.55" width="38.523" height="11.339"/>
			<text class="st3" x="4.6799998" y="838.62" v:langID="1031"><v:paragraph v:horizAlign="1"/><v:tabList/>{B:=true}</text>		</g>
		<g transform="translate(215.43 -629.29)" v:groupContext="shape" v:mID="13">
			<title>Sheet.13</title>
			<desc>{Q--; IF Q=0 THEN B:=false}</desc>
			<v:textBlock v:margins="rect(4,4,4,4)" v:tabSpace="42.5197"/>
			<v:textRect width="96.38" height="11.3386" cx="48.189" cy="836.22"/>
			<rect class="st2" y="830.55" width="96.378" height="11.339"/>
			<text class="st3" x="4.46" y="838.62" v:langID="1031"><v:paragraph v:horizAlign="1"/><v:tabList/>{Q--; IF Q=0 THEN B:=false}</text>		</g>
		<g transform="translate(121.89 -663.31)" v:groupContext="shape" v:mID="14">
			<title>Sheet.14</title>
			<desc>[not B]</desc>
			<v:textBlock v:margins="rect(4,4,4,4)" v:tabSpace="42.5197"/>
			<v:textRect width="31.19" height="11.3386" cx="15.5906" cy="836.22"/>
			<rect class="st2" y="830.55" width="31.181" height="11.339"/>
			<text class="st3" x="4.5100002" y="838.62" v:langID="1031"><v:paragraph v:horizAlign="1"/><v:tabList/>[not B]</text>		</g>
		<g transform="translate(242.11 -683.15)" v:groupContext="shape" v:mID="15">
			<title>Sheet.15</title>
			<desc>[Q&gt;0]</desc>
			<v:textBlock v:margins="rect(4,4,4,4)" v:tabSpace="42.5197"/>
			<v:textRect width="30.02" height="11.3386" cx="15.0094" cy="836.22"/>
			<rect class="st2" y="830.55" width="30.019" height="11.339"/>
			<text class="st3" x="5.8499999" y="838.62" v:langID="1031"><v:paragraph v:horizAlign="1"/><v:tabList/>[Q&gt;0]</text>		</g>
		<g transform="translate(90.709 -600.94)" v:groupContext="shape" v:mID="16">
			<title>Circle.16</title>
			<v:userDefs>
				<v:ud v:nameU="visVersion" v:val="VT0(14):26"/>
			</v:userDefs>
			<path class="st8" d="m0 830.55a11.34 11.34 0 0 1 22.68 0 11.34 11.34 0 1 1-22.68 0z"/>
		</g>
		<g transform="translate(86.457 -589.61)" v:groupContext="shape" v:mID="17">
			<title>Sheet.17</title>
			<desc>Arrival</desc>
			<v:textBlock v:margins="rect(4,4,4,4)" v:tabSpace="42.5197"/>
			<v:textRect width="31.19" height="11.3386" cx="15.5906" cy="836.22"/>
			<rect class="st2" y="830.55" width="31.181" height="11.339"/>
			<text class="st9" x="4.9299998" y="838.62" v:langID="1031"><v:paragraph v:horizAlign="1"/><v:tabList/>Arrival</text>		</g>
		<g transform="translate(174.33 -600.94)" v:groupContext="shape" v:mID="18">
			<title>Circle.18</title>
			<v:userDefs>
				<v:ud v:nameU="visVersion" v:val="VT0(14):26"/>
			</v:userDefs>
			<path class="st8" d="m0 830.55a11.34 11.34 0 0 1 22.68 0 11.34 11.34 0 1 1-22.68 0z"/>
		</g>
		<g transform="translate(161.58 -589.61)" v:groupContext="shape" v:mID="19">
			<title>Sheet.19</title>
			<desc>ServiceStart</desc>
			<v:textBlock v:margins="rect(4,4,4,4)" v:tabSpace="42.5197"/>
			<v:textRect width="51.03" height="11.3386" cx="25.5118" cy="836.22"/>
			<rect class="st2" y="830.55" width="51.024" height="11.339"/>
			<text class="st9" x="6.0599999" y="838.62" v:langID="1031"><v:paragraph v:horizAlign="1"/><v:tabList/>ServiceStart</text>		</g>
		<g transform="translate(113.39 -605.2)" v:groupContext="shape" v:layerMember="0" v:mID="20">
			<title>Dynamic connector.20</title>
			<path class="st10" d="m12.06 834.8h40.6"/>
		</g>
		<g transform="translate(86.457 -578.27)" v:groupContext="shape" v:mID="21">
			<title>Sheet.21</title>
			<desc>{Q++}</desc>
			<v:textBlock v:margins="rect(4,4,4,4)" v:tabSpace="42.5197"/>
			<v:textRect width="31.19" height="11.3386" cx="15.5906" cy="836.22"/>
			<rect class="st2" y="830.55" width="31.181" height="11.339"/>
			<text class="st9" x="6.4000001" y="838.62" v:langID="1031"><v:paragraph v:horizAlign="1"/><v:tabList/>{Q++}</text>		</g>
		<g transform="translate(121.89 -612.28)" v:groupContext="shape" v:mID="22">
			<title>Sheet.22</title>
			<desc>[not B]</desc>
			<v:textBlock v:margins="rect(4,4,4,4)" v:tabSpace="42.5197"/>
			<v:textRect width="31.19" height="11.3386" cx="15.5906" cy="836.22"/>
			<rect class="st2" y="830.55" width="31.181" height="11.339"/>
			<text class="st11" x="4.5100002" y="838.62" v:langID="1031"><v:paragraph v:horizAlign="1"/><v:tabList/>[not B]</text>		</g>
		<g transform="translate(174.33 -561.26)" v:groupContext="shape" v:mID="23">
			<title>Circle.23</title>
			<v:userDefs>
				<v:ud v:nameU="visVersion" v:val="VT0(14):26"/>
			</v:userDefs>
			<path class="st8" d="m0 830.55a11.34 11.34 0 0 1 22.68 0 11.34 11.34 0 1 1-22.68 0z"/>
		</g>
		<g transform="translate(161.58 -549.92)" v:groupContext="shape" v:mID="24">
			<title>Sheet.24</title>
			<desc>ServiceStart</desc>
			<v:textBlock v:margins="rect(4,4,4,4)" v:tabSpace="42.5197"/>
			<v:textRect width="51.03" height="11.3386" cx="25.5118" cy="836.22"/>
			<rect class="st2" y="830.55" width="51.024" height="11.339"/>
			<text class="st9" x="6.0599999" y="838.62" v:langID="1031"><v:paragraph v:horizAlign="1"/><v:tabList/>ServiceStart</text>		</g>
		<g transform="translate(259.37,-561.26)" v:groupContext="shape" v:mID="25">
			<title>Circle.25</title>
			<v:userDefs>
				<v:ud v:nameU="visVersion" v:val="VT0(14):26"/>
			</v:userDefs>
			<path class="st8" d="m0 830.55a11.34 11.34 0 0 1 22.68 0 11.34 11.34 0 1 1-22.68 0z"/>
		</g>
		<g transform="translate(246.61 -549.92)" v:groupContext="shape" v:mID="26">
			<title>Sheet.26</title>
			<desc>ServiceEnd</desc>
			<v:textBlock v:margins="rect(4,4,4,4)" v:tabSpace="42.5197"/>
			<v:textRect width="51.03" height="11.3386" cx="25.5118" cy="836.22"/>
			<rect class="st2" y="830.55" width="51.024" height="11.339"/>
			<text class="st9" x="7.73" y="838.62" v:langID="1031"><v:paragraph v:horizAlign="1"/><v:tabList/>ServiceEnd</text>		</g>
		<g transform="translate(197.01 -565.51)" v:groupContext="shape" v:layerMember="0" v:mID="27">
			<title>Dynamic connector.27</title>
			<path class="st6" d="m0 834.8h54.08"/>
		</g>
		<g transform="translate(194.05 -572.6)" v:groupContext="shape" v:mID="28">
			<title>Sheet.28</title>
			<desc>+serviceTime()</desc>
			<v:textBlock v:margins="rect(4,4,4,4)" v:tabSpace="42.5197"/>
			<v:textRect width="59.79" height="11.3386" cx="29.8913" cy="836.22"/>
			<rect class="st2" y="830.55" width="59.783" height="11.339"/>
			<text class="st9" x="6.0700002" y="838.62" v:langID="1031"><v:paragraph v:horizAlign="1"/><v:tabList/>+serviceTime()</text>		</g>
		<g transform="translate(167.82 -538.58)" v:groupContext="shape" v:mID="29">
			<title>Sheet.29</title>
			<desc>{B:=true}</desc>
			<v:textBlock v:margins="rect(4,4,4,4)" v:tabSpace="42.5197"/>
			<v:textRect width="38.53" height="11.3386" cx="19.2614" cy="836.22"/>
			<rect class="st2" y="830.55" width="38.523" height="11.339"/>
			<text class="st9" x="4.6799998" y="838.62" v:langID="1031"><v:paragraph v:horizAlign="1"/><v:tabList/>{B:=true}</text>		</g>
		<g transform="translate(63.78 -600.94)" v:groupContext="shape" v:mID="30">
			<title>Sheet.30</title>
			<desc>ER1</desc>
			<v:textBlock v:margins="rect(4,4,4,4)" v:tabSpace="42.5197"/>
			<v:textRect width="25.52" height="17.0079" cx="12.7559" cy="833.386"/>
			<rect class="st2" y="824.88" width="25.512" height="17.008"/>
			<text class="st12" x="4.9699998" y="836.39001" v:langID="1031"><v:paragraph v:horizAlign="1"/><v:tabList/>ER1</text>		</g>
		<g transform="translate(147.4 -561.26)" v:groupContext="shape" v:mID="31">
			<title>Sheet.31</title>
			<desc>ER2</desc>
			<v:textBlock v:margins="rect(4,4,4,4)" v:tabSpace="42.5197"/>
			<v:textRect width="25.52" height="17.0079" cx="12.7559" cy="833.386"/>
			<rect class="st2" y="824.88" width="25.512" height="17.008"/>
			<text class="st12" x="4.9699998" y="836.39001" v:langID="1031"><v:paragraph v:horizAlign="1"/><v:tabList/>ER2</text>		</g>
	</g>
</svg>
