<?xml version="1.0" encoding="UTF-8" standalone="no"?>
<!DOCTYPE svg PUBLIC "-//W3C//DTD SVG 1.0//EN" "http://www.w3.org/TR/2001/REC-SVG-20010904/DTD/svg10.dtd">
<!-- Generated by Microsoft Visio 11.0, SVG Export, v1.0 SingleServer_EG_Visio_withRuleDiagrams .svg Page-1 -->
<svg xmlns="http://www.w3.org/2000/svg" xmlns:xlink="http://www.w3.org/1999/xlink" xmlns:ev="http://www.w3.org/2001/xml-events"
		xmlns:v="http://schemas.microsoft.com/visio/2003/SVGExtensions/" width="8.26772in" height="11.6929in"
		viewBox="0 0 595.276 841.89" xml:space="preserve" color-interpolation-filters="sRGB" class="st13">
	<v:documentProperties v:langID="1033" v:viewMarkup="false">
		<v:userDefs>
			<v:ud v:nameU="msvSubprocessMaster" v:prompt="" v:val="VT4(Box)"/>
			<v:ud v:nameU="msvNoAutoConnect" v:val="VT0(1):26"/>
		</v:userDefs>
	</v:documentProperties>

	<style type="text/css">
	<![CDATA[
		.st1 {fill:none;stroke:#a5a5a5;stroke-linecap:round;stroke-linejoin:round;stroke-width:0.24}
		.st2 {fill:none;stroke:none;stroke-linecap:round;stroke-linejoin:round;stroke-width:0.75}
		.st3 {fill:#a5a5a5;font-family:Calibri;font-size:0.666664em}
		.st4 {marker-end:url(#mrkr13-24);marker-start:url(#mrkr22-22);stroke:#a5a5a5;stroke-linecap:round;stroke-linejoin:round;stroke-width:0.239976}
		.st5 {fill:#a5a5a5;fill-opacity:1;stroke:#a5a5a5;stroke-opacity:1;stroke-width:0.086948582161584}
		.st6 {marker-end:url(#mrkr13-30);stroke:#000000;stroke-linecap:round;stroke-linejoin:round;stroke-width:0.239976}
		.st7 {fill:#000000;fill-opacity:1;stroke:#000000;stroke-opacity:1;stroke-width:0.086948582161584}
		.st8 {fill:none;stroke:#164326;stroke-linecap:round;stroke-linejoin:round;stroke-width:0.24}
		.st9 {fill:#164326;font-family:Calibri;font-size:0.666664em}
		.st10 {marker-end:url(#mrkr13-30);marker-start:url(#mrkr22-72);stroke:#000000;stroke-linecap:round;stroke-linejoin:round;stroke-width:0.239976}
		.st11 {fill:#000000;font-family:Calibri;font-size:0.666664em}
		.st12 {fill:#164326;font-family:Calibri;font-size:0.833336em;font-weight:bold}
		.st13 {fill:none;fill-rule:evenodd;font-size:12px;overflow:visible;stroke-linecap:square;stroke-miterlimit:3}
	]]>
	</style>

	<defs id="Markers">
		<g id="lend22">
			<path d="M 0 0 L 2.25 -1.125 L 4.5 0 L 2.25 1.125 L 0 0 " style="stroke-linecap:round;stroke-linejoin:round;fill:none"/>
		</g>
		<marker id="mrkr22-22" class="st5" v:arrowType="22" v:arrowSize="2" v:setback="50.2546" refX="50.254575457546"
				orient="auto" markerUnits="strokeWidth" overflow="visible">
			<use xlink:href="#lend22" transform="scale(11.501050105011) "/>
		</marker>
		<g id="lend13">
			<path d="M 3 1 L 0 0 L 3 -1 L 3 1 " style="stroke:none"/>
		</g>
		<marker id="mrkr13-24" class="st5" v:arrowType="13" v:arrowSize="2" v:setback="34.5032" refX="-34.503150315032"
				orient="auto" markerUnits="strokeWidth" overflow="visible">
			<use xlink:href="#lend13" transform="scale(-11.501050105011,-11.501050105011) "/>
		</marker>
		<marker id="mrkr13-30" class="st7" v:arrowType="13" v:arrowSize="2" v:setback="34.5032" refX="-34.503150315032"
				orient="auto" markerUnits="strokeWidth" overflow="visible">
			<use xlink:href="#lend13" transform="scale(-11.501050105011,-11.501050105011) "/>
		</marker>
		<marker id="mrkr22-72" class="st7" v:arrowType="22" v:arrowSize="2" v:setback="50.2546" refX="50.254575457546"
				orient="auto" markerUnits="strokeWidth" overflow="visible">
			<use xlink:href="#lend22" transform="scale(11.501050105011) "/>
		</marker>
	</defs>
	<g v:mID="0" v:index="1" v:groupContext="foregroundPage">
		<title>Page-1</title>
		<v:pageProperties v:drawingScale="0.0393701" v:pageScale="0.0393701" v:drawingUnits="24" v:shadowOffsetX="8.50394"
				v:shadowOffsetY="-8.50394"/>
		<v:layer v:name="Connector" v:index="0"/>
		<g id="shape1-1" v:mID="1" v:groupContext="shape" transform="translate(90.7087,-651.969)">
			<title>Circle</title>
			<v:userDefs>
				<v:ud v:nameU="visVersion" v:val="VT0(14):26"/>
			</v:userDefs>
			<path d="M0 830.55 A11.3386 11.3386 0 0 1 22.68 830.55 A11.3386 11.3386 0 1 1 0 830.55 Z" class="st1"/>
		</g>
		<g id="shape2-3" v:mID="2" v:groupContext="shape" transform="translate(86.4567,-640.63)">
			<title>Sheet.2</title>
			<desc>Arrival</desc>
			<v:textBlock v:margins="rect(4,4,4,4)" v:tabSpace="42.5197"/>
			<v:textRect cx="15.5906" cy="836.22" width="31.19" height="11.3386"/>
			<rect x="0" y="830.551" width="31.1811" height="11.3386" class="st2"/>
			<text x="4.93" y="838.62" class="st3" v:langID="1031"><v:paragraph v:horizAlign="1"/><v:tabList/>Arrival</text>		</g>
		<g id="shape3-6" v:mID="3" v:groupContext="shape" transform="translate(174.331,-651.969)">
			<title>Circle.3</title>
			<v:userDefs>
				<v:ud v:nameU="visVersion" v:val="VT0(14):26"/>
			</v:userDefs>
			<path d="M0 830.55 A11.3386 11.3386 0 0 1 22.68 830.55 A11.3386 11.3386 0 1 1 0 830.55 Z" class="st1"/>
		</g>
		<g id="shape4-8" v:mID="4" v:groupContext="shape" transform="translate(161.575,-640.63)">
			<title>Sheet.4</title>
			<desc>ServiceStart</desc>
			<v:textBlock v:margins="rect(4,4,4,4)" v:tabSpace="42.5197"/>
			<v:textRect cx="25.5118" cy="836.22" width="51.03" height="11.3386"/>
			<rect x="0" y="830.551" width="51.0236" height="11.3386" class="st2"/>
			<text x="6.06" y="838.62" class="st3" v:langID="1031"><v:paragraph v:horizAlign="1"/><v:tabList/>ServiceStart</text>		</g>
		<g id="shape5-11" v:mID="5" v:groupContext="shape" transform="translate(259.37,-651.969)">
			<title>Circle.5</title>
			<v:userDefs>
				<v:ud v:nameU="visVersion" v:val="VT0(14):26"/>
			</v:userDefs>
			<path d="M0 830.55 A11.3386 11.3386 0 0 1 22.68 830.55 A11.3386 11.3386 0 1 1 0 830.55 Z" class="st1"/>
		</g>
		<g id="shape6-13" v:mID="6" v:groupContext="shape" transform="translate(246.614,-640.63)">
			<title>Sheet.6</title>
			<desc>ServiceEnd</desc>
			<v:textBlock v:margins="rect(4,4,4,4)" v:tabSpace="42.5197"/>
			<v:textRect cx="25.5118" cy="836.22" width="51.03" height="11.3386"/>
			<rect x="0" y="830.551" width="51.0236" height="11.3386" class="st2"/>
			<text x="7.73" y="838.62" class="st3" v:langID="1031"><v:paragraph v:horizAlign="1"/><v:tabList/>ServiceEnd</text>		</g>
		<g id="shape7-16" v:mID="7" v:groupContext="shape" v:layerMember="0" transform="translate(113.386,-656.22)">
			<title>Dynamic connector</title>
			<path d="M12.06 834.8 L12.42 834.8 L52.66 834.8" class="st4"/>
		</g>
		<g id="shape8-25" v:mID="8" v:groupContext="shape" v:layerMember="0" transform="translate(197.008,-656.22)">
			<title>Dynamic connector.8</title>
			<path d="M0 834.8 L54.08 834.8" class="st6"/>
		</g>
		<g id="shape9-31" v:mID="9" v:groupContext="shape" v:layerMember="0" transform="translate(270.709,-667.559)">
			<title>Dynamic connector.9</title>
			<path d="M0 822.74 L0 822.38 L0 813.26 L-85.04 813.26 L-85.04 826.52" class="st4"/>
		</g>
		<g id="shape10-38" v:mID="10" v:groupContext="shape" transform="translate(86.4567,-629.291)">
			<title>Sheet.10</title>
			<desc>{Q++}</desc>
			<v:textBlock v:margins="rect(4,4,4,4)" v:tabSpace="42.5197"/>
			<v:textRect cx="15.5906" cy="836.22" width="31.19" height="11.3386"/>
			<rect x="0" y="830.551" width="31.1811" height="11.3386" class="st2"/>
			<text x="6.4" y="838.62" class="st3" v:langID="1031"><v:paragraph v:horizAlign="1"/><v:tabList/>{Q++}</text>		</g>
		<g id="shape11-41" v:mID="11" v:groupContext="shape" transform="translate(194.046,-663.307)">
			<title>Sheet.11</title>
			<desc>+serviceTime()</desc>
			<v:textBlock v:margins="rect(4,4,4,4)" v:tabSpace="42.5197"/>
			<v:textRect cx="29.8913" cy="836.22" width="59.79" height="11.3386"/>
			<rect x="0" y="830.551" width="59.7827" height="11.3386" class="st2"/>
			<text x="6.07" y="838.62" class="st3" v:langID="1031"><v:paragraph v:horizAlign="1"/><v:tabList/>+serviceTime()</text>		</g>
		<g id="shape12-44" v:mID="12" v:groupContext="shape" transform="translate(167.825,-629.291)">
			<title>Sheet.12</title>
			<desc>{B:=true}</desc>
			<v:textBlock v:margins="rect(4,4,4,4)" v:tabSpace="42.5197"/>
			<v:textRect cx="19.2614" cy="836.22" width="38.53" height="11.3386"/>
			<rect x="0" y="830.551" width="38.5228" height="11.3386" class="st2"/>
			<text x="4.68" y="838.62" class="st3" v:langID="1031"><v:paragraph v:horizAlign="1"/><v:tabList/>{B:=true}</text>		</g>
		<g id="shape13-47" v:mID="13" v:groupContext="shape" transform="translate(215.433,-629.291)">
			<title>Sheet.13</title>
			<desc>{Q--; IF Q=0 THEN B:=false}</desc>
			<v:textBlock v:margins="rect(4,4,4,4)" v:tabSpace="42.5197"/>
			<v:textRect cx="48.189" cy="836.22" width="96.38" height="11.3386"/>
			<rect x="0" y="830.551" width="96.378" height="11.3386" class="st2"/>
			<text x="4.46" y="838.62" class="st3" v:langID="1031"><v:paragraph v:horizAlign="1"/><v:tabList/>{Q--; IF Q=0 THEN B:=false}</text>		</g>
		<g id="shape14-50" v:mID="14" v:groupContext="shape" transform="translate(121.89,-663.307)">
			<title>Sheet.14</title>
			<desc>[not B]</desc>
			<v:textBlock v:margins="rect(4,4,4,4)" v:tabSpace="42.5197"/>
			<v:textRect cx="15.5906" cy="836.22" width="31.19" height="11.3386"/>
			<rect x="0" y="830.551" width="31.1811" height="11.3386" class="st2"/>
			<text x="4.51" y="838.62" class="st3" v:langID="1031"><v:paragraph v:horizAlign="1"/><v:tabList/>[not B]</text>		</g>
		<g id="shape15-53" v:mID="15" v:groupContext="shape" transform="translate(242.107,-683.15)">
			<title>Sheet.15</title>
			<desc>[Q&#62;0]</desc>
			<v:textBlock v:margins="rect(4,4,4,4)" v:tabSpace="42.5197"/>
			<v:textRect cx="15.0094" cy="836.22" width="30.02" height="11.3386"/>
			<rect x="0" y="830.551" width="30.0189" height="11.3386" class="st2"/>
			<text x="5.85" y="838.62" class="st3" v:langID="1031"><v:paragraph v:horizAlign="1"/><v:tabList/>[Q&#62;0]</text>		</g>
		<g id="shape16-56" v:mID="16" v:groupContext="shape" transform="translate(90.7087,-600.945)">
			<title>Circle.16</title>
			<v:userDefs>
				<v:ud v:nameU="visVersion" v:val="VT0(14):26"/>
			</v:userDefs>
			<path d="M0 830.55 A11.3386 11.3386 0 0 1 22.68 830.55 A11.3386 11.3386 0 1 1 0 830.55 Z" class="st8"/>
		</g>
		<g id="shape17-58" v:mID="17" v:groupContext="shape" transform="translate(86.4567,-589.606)">
			<title>Sheet.17</title>
			<desc>Arrival</desc>
			<v:textBlock v:margins="rect(4,4,4,4)" v:tabSpace="42.5197"/>
			<v:textRect cx="15.5906" cy="836.22" width="31.19" height="11.3386"/>
			<rect x="0" y="830.551" width="31.1811" height="11.3386" class="st2"/>
			<text x="4.93" y="838.62" class="st9" v:langID="1031"><v:paragraph v:horizAlign="1"/><v:tabList/>Arrival</text>		</g>
		<g id="shape18-61" v:mID="18" v:groupContext="shape" transform="translate(174.331,-600.945)">
			<title>Circle.18</title>
			<v:userDefs>
				<v:ud v:nameU="visVersion" v:val="VT0(14):26"/>
			</v:userDefs>
			<path d="M0 830.55 A11.3386 11.3386 0 0 1 22.68 830.55 A11.3386 11.3386 0 1 1 0 830.55 Z" class="st8"/>
		</g>
		<g id="shape19-63" v:mID="19" v:groupContext="shape" transform="translate(161.575,-589.606)">
			<title>Sheet.19</title>
			<desc>ServiceStart</desc>
			<v:textBlock v:margins="rect(4,4,4,4)" v:tabSpace="42.5197"/>
			<v:textRect cx="25.5118" cy="836.22" width="51.03" height="11.3386"/>
			<rect x="0" y="830.551" width="51.0236" height="11.3386" class="st2"/>
			<text x="6.06" y="838.62" class="st9" v:langID="1031"><v:paragraph v:horizAlign="1"/><v:tabList/>ServiceStart</text>		</g>
		<g id="shape20-66" v:mID="20" v:groupContext="shape" v:layerMember="0" transform="translate(113.386,-605.197)">
			<title>Dynamic connector.20</title>
			<path d="M12.06 834.8 L12.42 834.8 L52.66 834.8" class="st10"/>
		</g>
		<g id="shape21-74" v:mID="21" v:groupContext="shape" transform="translate(86.4567,-578.268)">
			<title>Sheet.21</title>
			<desc>{Q++}</desc>
			<v:textBlock v:margins="rect(4,4,4,4)" v:tabSpace="42.5197"/>
			<v:textRect cx="15.5906" cy="836.22" width="31.19" height="11.3386"/>
			<rect x="0" y="830.551" width="31.1811" height="11.3386" class="st2"/>
			<text x="6.4" y="838.62" class="st9" v:langID="1031"><v:paragraph v:horizAlign="1"/><v:tabList/>{Q++}</text>		</g>
		<g id="shape22-77" v:mID="22" v:groupContext="shape" transform="translate(121.89,-612.283)">
			<title>Sheet.22</title>
			<desc>[not B]</desc>
			<v:textBlock v:margins="rect(4,4,4,4)" v:tabSpace="42.5197"/>
			<v:textRect cx="15.5906" cy="836.22" width="31.19" height="11.3386"/>
			<rect x="0" y="830.551" width="31.1811" height="11.3386" class="st2"/>
			<text x="4.51" y="838.62" class="st11" v:langID="1031"><v:paragraph v:horizAlign="1"/><v:tabList/>[not B]</text>		</g>
		<g id="shape23-80" v:mID="23" v:groupContext="shape" transform="translate(174.331,-561.26)">
			<title>Circle.23</title>
			<v:userDefs>
				<v:ud v:nameU="visVersion" v:val="VT0(14):26"/>
			</v:userDefs>
			<path d="M0 830.55 A11.3386 11.3386 0 0 1 22.68 830.55 A11.3386 11.3386 0 1 1 0 830.55 Z" class="st8"/>
		</g>
		<g id="shape24-82" v:mID="24" v:groupContext="shape" transform="translate(161.575,-549.921)">
			<title>Sheet.24</title>
			<desc>ServiceStart</desc>
			<v:textBlock v:margins="rect(4,4,4,4)" v:tabSpace="42.5197"/>
			<v:textRect cx="25.5118" cy="836.22" width="51.03" height="11.3386"/>
			<rect x="0" y="830.551" width="51.0236" height="11.3386" class="st2"/>
			<text x="6.06" y="838.62" class="st9" v:langID="1031"><v:paragraph v:horizAlign="1"/><v:tabList/>ServiceStart</text>		</g>
		<g id="shape25-85" v:mID="25" v:groupContext="shape" transform="translate(259.37,-561.26)">
			<title>Circle.25</title>
			<v:userDefs>
				<v:ud v:nameU="visVersion" v:val="VT0(14):26"/>
			</v:userDefs>
			<path d="M0 830.55 A11.3386 11.3386 0 0 1 22.68 830.55 A11.3386 11.3386 0 1 1 0 830.55 Z" class="st8"/>
		</g>
		<g id="shape26-87" v:mID="26" v:groupContext="shape" transform="translate(246.614,-549.921)">
			<title>Sheet.26</title>
			<desc>ServiceEnd</desc>
			<v:textBlock v:margins="rect(4,4,4,4)" v:tabSpace="42.5197"/>
			<v:textRect cx="25.5118" cy="836.22" width="51.03" height="11.3386"/>
			<rect x="0" y="830.551" width="51.0236" height="11.3386" class="st2"/>
			<text x="7.73" y="838.62" class="st9" v:langID="1031"><v:paragraph v:horizAlign="1"/><v:tabList/>ServiceEnd</text>		</g>
		<g id="shape27-90" v:mID="27" v:groupContext="shape" v:layerMember="0" transform="translate(197.008,-565.512)">
			<title>Dynamic connector.27</title>
			<path d="M0 834.8 L54.08 834.8" class="st6"/>
		</g>
		<g id="shape28-95" v:mID="28" v:groupContext="shape" transform="translate(194.046,-572.598)">
			<title>Sheet.28</title>
			<desc>+serviceTime()</desc>
			<v:textBlock v:margins="rect(4,4,4,4)" v:tabSpace="42.5197"/>
			<v:textRect cx="29.8913" cy="836.22" width="59.79" height="11.3386"/>
			<rect x="0" y="830.551" width="59.7827" height="11.3386" class="st2"/>
			<text x="6.07" y="838.62" class="st9" v:langID="1031"><v:paragraph v:horizAlign="1"/><v:tabList/>+serviceTime()</text>		</g>
		<g id="shape29-98" v:mID="29" v:groupContext="shape" transform="translate(167.825,-538.583)">
			<title>Sheet.29</title>
			<desc>{B:=true}</desc>
			<v:textBlock v:margins="rect(4,4,4,4)" v:tabSpace="42.5197"/>
			<v:textRect cx="19.2614" cy="836.22" width="38.53" height="11.3386"/>
			<rect x="0" y="830.551" width="38.5228" height="11.3386" class="st2"/>
			<text x="4.68" y="838.62" class="st9" v:langID="1031"><v:paragraph v:horizAlign="1"/><v:tabList/>{B:=true}</text>		</g>
		<g id="shape30-101" v:mID="30" v:groupContext="shape" transform="translate(63.7795,-600.945)">
			<title>Sheet.30</title>
			<desc>ER1</desc>
			<v:textBlock v:margins="rect(4,4,4,4)" v:tabSpace="42.5197"/>
			<v:textRect cx="12.7559" cy="833.386" width="25.52" height="17.0079"/>
			<rect x="0" y="824.882" width="25.5118" height="17.0079" class="st2"/>
			<text x="4.97" y="836.39" class="st12" v:langID="1031"><v:paragraph v:horizAlign="1"/><v:tabList/>ER1</text>		</g>
		<g id="shape31-104" v:mID="31" v:groupContext="shape" transform="translate(147.402,-561.26)">
			<title>Sheet.31</title>
			<desc>ER2</desc>
			<v:textBlock v:margins="rect(4,4,4,4)" v:tabSpace="42.5197"/>
			<v:textRect cx="12.7559" cy="833.386" width="25.52" height="17.0079"/>
			<rect x="0" y="824.882" width="25.5118" height="17.0079" class="st2"/>
			<text x="4.97" y="836.39" class="st12" v:langID="1031"><v:paragraph v:horizAlign="1"/><v:tabList/>ER2</text>		</g>
		<g id="shape32-107" v:mID="32" v:groupContext="shape" transform="translate(174.331,-725.669)">
			<title>Circle.32</title>
			<v:userDefs>
				<v:ud v:nameU="visVersion" v:val="VT0(14):26"/>
			</v:userDefs>
			<path d="M0 830.55 A11.3386 11.3386 0 0 1 22.68 830.55 A11.3386 11.3386 0 1 1 0 830.55 Z" class="st8"/>
		</g>
		<g id="shape33-109" v:mID="33" v:groupContext="shape" transform="translate(161.575,-714.331)">
			<title>Sheet.33</title>
			<desc>ServiceStart</desc>
			<v:textBlock v:margins="rect(4,4,4,4)" v:tabSpace="42.5197"/>
			<v:textRect cx="25.5118" cy="836.22" width="51.03" height="11.3386"/>
			<rect x="0" y="830.551" width="51.0236" height="11.3386" class="st2"/>
			<text x="6.06" y="838.62" class="st9" v:langID="1031"><v:paragraph v:horizAlign="1"/><v:tabList/>ServiceStart</text>		</g>
		<g id="shape34-112" v:mID="34" v:groupContext="shape" transform="translate(259.37,-725.669)">
			<title>Circle.34</title>
			<v:userDefs>
				<v:ud v:nameU="visVersion" v:val="VT0(14):26"/>
			</v:userDefs>
			<path d="M0 830.55 A11.3386 11.3386 0 0 1 22.68 830.55 A11.3386 11.3386 0 1 1 0 830.55 Z" class="st8"/>
		</g>
		<g id="shape35-114" v:mID="35" v:groupContext="shape" transform="translate(246.614,-714.331)">
			<title>Sheet.35</title>
			<desc>ServiceEnd</desc>
			<v:textBlock v:margins="rect(4,4,4,4)" v:tabSpace="42.5197"/>
			<v:textRect cx="25.5118" cy="836.22" width="51.03" height="11.3386"/>
			<rect x="0" y="830.551" width="51.0236" height="11.3386" class="st2"/>
			<text x="7.73" y="838.62" class="st9" v:langID="1031"><v:paragraph v:horizAlign="1"/><v:tabList/>ServiceEnd</text>		</g>
		<g id="shape36-117" v:mID="36" v:groupContext="shape" v:layerMember="0" transform="translate(259.37,-729.921)">
			<title>Dynamic connector.36</title>
			<path d="M-12.06 834.8 L-12.42 834.8 L-54.08 834.8" class="st10"/>
		</g>
		<g id="shape37-124" v:mID="37" v:groupContext="shape" transform="translate(215.433,-702.992)">
			<title>Sheet.37</title>
			<desc>{Q--; IF Q=0 THEN B:=false}</desc>
			<v:textBlock v:margins="rect(4,4,4,4)" v:tabSpace="42.5197"/>
			<v:textRect cx="48.189" cy="836.22" width="96.38" height="11.3386"/>
			<rect x="0" y="830.551" width="96.378" height="11.3386" class="st2"/>
			<text x="4.46" y="838.62" class="st9" v:langID="1031"><v:paragraph v:horizAlign="1"/><v:tabList/>{Q--; IF Q=0 THEN B:=false}</text>		</g>
		<g id="shape38-127" v:mID="38" v:groupContext="shape" transform="translate(216.595,-737.008)">
			<title>Sheet.38</title>
			<desc>[Q&#62;0]</desc>
			<v:textBlock v:margins="rect(4,4,4,4)" v:tabSpace="42.5197"/>
			<v:textRect cx="19.2614" cy="836.22" width="38.53" height="11.3386"/>
			<rect x="0" y="830.551" width="38.5228" height="11.3386" class="st2"/>
			<text x="10.1" y="838.62" class="st11" v:langID="1031"><v:paragraph v:horizAlign="1"/><v:tabList/>[Q&#62;0]</text>		</g>
		<g id="shape39-130" v:mID="39" v:groupContext="shape" transform="translate(148.819,-725.669)">
			<title>Sheet.39</title>
			<desc>ER3</desc>
			<v:textBlock v:margins="rect(4,4,4,4)" v:tabSpace="42.5197"/>
			<v:textRect cx="12.7559" cy="833.386" width="25.52" height="17.0079"/>
			<rect x="0" y="824.882" width="25.5118" height="17.0079" class="st2"/>
			<text x="4.97" y="836.39" class="st12" v:langID="1031"><v:paragraph v:horizAlign="1"/><v:tabList/>ER3</text>		</g>
	</g>
</svg>
