<?xml version="1.0" encoding="UTF-8" standalone="no"?>
<!DOCTYPE svg PUBLIC "-//W3C//DTD SVG 1.0//EN" "http://www.w3.org/TR/2001/REC-SVG-20010904/DTD/svg10.dtd">
<!-- Generated by Microsoft Visio 11.0, SVG Export, v1.0 AbstractExample.svg Page-1 -->
<svg xmlns="http://www.w3.org/2000/svg" xmlns:xlink="http://www.w3.org/1999/xlink" xmlns:ev="http://www.w3.org/2001/xml-events"
		xmlns:v="http://schemas.microsoft.com/visio/2003/SVGExtensions/" width="3.72787in" height="1.16257in"
		viewBox="0 0 268.406 83.7047" xml:space="preserve" color-interpolation-filters="sRGB" class="st11">
	<v:documentProperties v:langID="1033" v:viewMarkup="false"/>

	<style type="text/css">
	<![CDATA[
		.st1 {fill:#ffffff;stroke:#000000;stroke-linecap:round;stroke-linejoin:round;stroke-width:0.72}
		.st2 {fill:none;stroke:none;stroke-linecap:round;stroke-linejoin:round;stroke-width:0.75}
		.st3 {fill:#000000;font-family:Calibri;font-size:0.666664em}
		.st4 {fill:#ffffff;stroke:#000000;stroke-linecap:round;stroke-linejoin:round;stroke-width:0.75}
		.st5 {marker-end:url(#mrkr26-16);stroke:#000000;stroke-linecap:round;stroke-linejoin:round;stroke-width:0.5}
		.st6 {fill:#000000;fill-opacity:1;stroke:#000000;stroke-opacity:1;stroke-width:0.13368983957219}
		.st7 {marker-end:url(#mrkr13-48);marker-start:url(#mrkr22-46);stroke:#000000;stroke-linecap:round;stroke-linejoin:round;stroke-width:0.5}
		.st8 {fill:#000000;fill-opacity:1;stroke:#000000;stroke-opacity:1;stroke-width:0.25773195876289}
		.st9 {fill:#000000;fill-opacity:1;stroke:#000000;stroke-opacity:1;stroke-width:0.21739130434783}
		.st10 {marker-end:url(#mrkr13-48);stroke:#000000;stroke-linecap:round;stroke-linejoin:round;stroke-width:0.5}
		.st11 {fill:none;fill-rule:evenodd;font-size:12px;overflow:visible;stroke-linecap:square;stroke-miterlimit:3}
	]]>
	</style>

	<defs id="Markers">
		<g id="lend26">
			<path d="M 1.5 -0.75 L 1.5 0.75 M 2.25 -0.75 L 2.25 0.75 M 3 -0.75 L 3 0.75 "
					style="stroke-linecap:round;stroke-linejoin:round;fill:none"/>
		</g>
		<marker id="mrkr26-16" class="st6" v:arrowType="26" v:arrowSize="3" orient="auto" markerUnits="strokeWidth"
				overflow="visible">
			<use xlink:href="#lend26" transform="scale(-7.48,-7.48) "/>
		</marker>
		<g id="lend22">
			<path d="M 0 0 L 2.25 -1.125 L 4.5 0 L 2.25 1.125 L 0 0 " style="stroke-linecap:round;stroke-linejoin:round;fill:none"/>
		</g>
		<marker id="mrkr22-46" class="st8" v:arrowType="22" v:arrowSize="0" v:setback="16.74" refX="16.74" orient="auto"
				markerUnits="strokeWidth" overflow="visible">
			<use xlink:href="#lend22" transform="scale(3.88) "/>
		</marker>
		<g id="lend13">
			<path d="M 3 1 L 0 0 L 3 -1 L 3 1 " style="stroke:none"/>
		</g>
		<marker id="mrkr13-48" class="st9" v:arrowType="13" v:arrowSize="1" v:setback="13.8" refX="-13.8" orient="auto"
				markerUnits="strokeWidth" overflow="visible">
			<use xlink:href="#lend13" transform="scale(-4.6,-4.6) "/>
		</marker>
	</defs>
	<g v:mID="0" v:index="1" v:groupContext="foregroundPage">
		<title>Page-1</title>
		<v:pageProperties v:drawingScale="0.0393701" v:pageScale="0.0393701" v:drawingUnits="24" v:shadowOffsetX="8.50394"
				v:shadowOffsetY="-8.50394"/>
		<g id="group2-1" transform="translate(39.184,-10.8215)" v:mID="2" v:groupContext="group">
			<v:userDefs>
				<v:ud v:nameU="UMLShapeType" v:val="VT0(40):26"/>
				<v:ud v:nameU="UMLObjectGUID" v:val="VT4({F9EA4391-EBF5-4833-8C73-666D21612F58})"/>
				<v:ud v:nameU="UMLError" v:val="VT0(0):26"/>
				<v:ud v:nameU="UMLPresOption1" v:val="VT0(1):26"/>
				<v:ud v:nameU="UMLSuppressOption" v:val="VT0(32):26"/>
				<v:ud v:nameU="UMLVersion" v:val="VT0(2):26"/>
				<v:ud v:nameU="UMLAutoLockTextEdit" v:val="VT0(1):26"/>
				<v:ud v:nameU="visDescription"
						v:val="VT4(Represents a condition during which an object satisfies some condition, performs an action or waits for an event.)"/>
				<v:ud v:nameU="visVersion" v:val="VT0(14):26"/>
			</v:userDefs>
			<title>State</title>
			<g id="shape3-2" v:mID="3" v:groupContext="shape">
				<title>Sheet.3</title>
				<path d="M9 83.7 L45 83.7 A9 9 -180 0 0 54 74.7 L54 67.19 A9 9 -180 0 0 45 58.19 L9 58.19 A9 9 -180 0 0 0 67.19 L0
							 74.7 A9 9 -180 0 0 9 83.7 Z" class="st1"/>
			</g>
			<g id="shape4-4" v:mID="4" v:groupContext="shape">
				<title>Transitions</title>
				<path d="M0 83.7 L53.86 83.7 L0 83.7 Z" class="st2"/>
			</g>
			<g id="shape5-6" v:mID="5" v:groupContext="shape">
				<title>Name</title>
				<desc>A1</desc>
				<v:textBlock v:margins="rect(4,4,4,4)" v:tabSpace="42.5197"/>
				<v:textRect cx="27" cy="71.1047" width="54" height="25.2"/>
				<rect x="0" y="58.5047" width="54" height="25.2" class="st2"/>
				<text x="22.66" y="73.5" class="st3" v:langID="1031"><v:paragraph v:horizAlign="1"/><v:tabList/>A1</text>			</g>
		</g>
		<g id="shape6-9" v:mID="6" v:groupContext="shape" transform="translate(0.75,-15.0735)">
			<title>Initial State</title>
			<v:userDefs>
				<v:ud v:nameU="UMLShapeType" v:val="VT0(42):26"/>
				<v:ud v:nameU="UMLObjectGUID" v:val="VT4({F0FECBA2-B73C-4137-A6BD-E91E75890DDD})"/>
				<v:ud v:nameU="UMLError" v:val="VT0(0):26"/>
				<v:ud v:nameU="UMLPresOptions" v:val="VT0(3):26"/>
				<v:ud v:nameU="UMLVersion" v:val="VT0(2):26"/>
				<v:ud v:nameU="visDescription" v:val="VT4(Represents the point at which a newly created object starts. )"/>
				<v:ud v:nameU="visVersion" v:val="VT0(14):26"/>
			</v:userDefs>
			<path d="M0 75.2 A8.50394 8.50394 0 1 1 17.01 75.2 A8.50394 8.50394 0 0 1 0 75.2 Z" class="st4"/>
		</g>
		<g id="shape7-11" v:mID="7" v:groupContext="shape" transform="translate(17.7579,-23.5774)">
			<title>Sheet.7</title>
			<path d="M0 83.7 L21.43 83.7" class="st5"/>
		</g>
		<g id="group8-17" transform="translate(117.278,-10.8344)" v:mID="8" v:groupContext="group">
			<v:userDefs>
				<v:ud v:nameU="UMLShapeType" v:val="VT0(40):26"/>
				<v:ud v:nameU="UMLObjectGUID" v:val="VT4({A5848E84-433F-4F73-88F2-7D712D541277})"/>
				<v:ud v:nameU="UMLError" v:val="VT0(0):26"/>
				<v:ud v:nameU="UMLPresOption1" v:val="VT0(1):26"/>
				<v:ud v:nameU="UMLSuppressOption" v:val="VT0(32):26"/>
				<v:ud v:nameU="UMLVersion" v:val="VT0(2):26"/>
				<v:ud v:nameU="UMLAutoLockTextEdit" v:val="VT0(1):26"/>
				<v:ud v:nameU="visDescription"
						v:val="VT4(Represents a condition during which an object satisfies some condition, performs an action or waits for an event.)"/>
				<v:ud v:nameU="visVersion" v:val="VT0(14):26"/>
			</v:userDefs>
			<title>State.9</title>
			<g id="shape9-18" v:mID="9" v:groupContext="shape">
				<title>Sheet.9</title>
				<path d="M9 83.7 L45 83.7 A9 9 -180 0 0 54 74.7 L54 67.19 A9 9 -180 0 0 45 58.19 L9 58.19 A9 9 -180 0 0 0 67.19 L0
							 74.7 A9 9 -180 0 0 9 83.7 Z" class="st1"/>
			</g>
			<g id="shape10-20" v:mID="10" v:groupContext="shape">
				<title>Transitions</title>
				<path d="M0 83.7 L53.86 83.7 L0 83.7 Z" class="st2"/>
			</g>
			<g id="shape11-22" v:mID="11" v:groupContext="shape">
				<title>Name</title>
				<desc>A2</desc>
				<v:textBlock v:margins="rect(4,4,4,4)" v:tabSpace="42.5197"/>
				<v:textRect cx="27" cy="71.1047" width="54" height="25.2"/>
				<rect x="0" y="58.5047" width="54" height="25.2" class="st2"/>
				<text x="22.66" y="73.5" class="st3" v:langID="1031"><v:paragraph v:horizAlign="1"/><v:tabList/>A2</text>			</g>
		</g>
		<g id="shape12-25" v:mID="12" v:groupContext="shape" transform="translate(93.1392,-23.5774) rotate(-0.0306758)">
			<title>Sheet.12</title>
			<path d="M0 83.7 L24.09 83.7" class="st5"/>
		</g>
		<g id="shape13-30" v:mID="13" v:groupContext="shape" transform="translate(1.05802,-0.75)">
			<title>Sheet.13</title>
			<desc>E1</desc>
			<v:textBlock v:margins="rect(4,4,4,4)" v:tabSpace="42.5197"/>
			<v:textRect cx="8.50394" cy="78.0354" width="17.01" height="11.3386"/>
			<rect x="0" y="72.3661" width="17.0079" height="11.3386" class="st2"/>
			<text x="4.52" y="80.44" class="st3" v:langID="1031"><v:paragraph v:horizAlign="1"/><v:tabList/>E1</text>		</g>
		<g id="shape14-33" v:mID="14" v:groupContext="shape" transform="translate(173.971,-61.6949)">
			<title>Initial State.14</title>
			<v:userDefs>
				<v:ud v:nameU="UMLShapeType" v:val="VT0(42):26"/>
				<v:ud v:nameU="UMLObjectGUID" v:val="VT4({EE642D12-A38E-4B2E-903F-D55C91275880})"/>
				<v:ud v:nameU="UMLError" v:val="VT0(0):26"/>
				<v:ud v:nameU="UMLPresOptions" v:val="VT0(3):26"/>
				<v:ud v:nameU="UMLVersion" v:val="VT0(2):26"/>
				<v:ud v:nameU="visDescription" v:val="VT4(Represents the point at which a newly created object starts. )"/>
				<v:ud v:nameU="visVersion" v:val="VT0(14):26"/>
			</v:userDefs>
			<path d="M0 75.2 A8.50394 8.50394 0 1 1 17.01 75.2 A8.50394 8.50394 0 0 1 0 75.2 Z" class="st4"/>
		</g>
		<g id="shape15-35" v:mID="15" v:groupContext="shape" transform="translate(192.397,-64.5295)">
			<title>Sheet.15</title>
			<desc>E3</desc>
			<v:textBlock v:margins="rect(4,4,4,4)" v:tabSpace="42.5197"/>
			<v:textRect cx="8.50394" cy="78.0354" width="17.01" height="11.3386"/>
			<rect x="0" y="72.3661" width="17.0079" height="11.3386" class="st2"/>
			<text x="4.52" y="80.44" class="st3" v:langID="1031"><v:paragraph v:horizAlign="1"/><v:tabList/>E3</text>		</g>
		<g id="shape16-38" v:mID="16" v:groupContext="shape" transform="translate(172.554,-13.5059)">
			<title>Decision.38</title>
			<v:userDefs>
				<v:ud v:nameU="UMLShapeType" v:val="VT0(62):26"/>
				<v:ud v:nameU="UMLObjectGUID" v:val="VT4({02E96566-096E-45B3-9FA6-1977A60E62C7})"/>
				<v:ud v:nameU="UMLError" v:val="VT0(0):26"/>
				<v:ud v:nameU="UMLPresOption1" v:val="VT0(3):26"/>
				<v:ud v:nameU="UMLVersion" v:val="VT0(2):26"/>
				<v:ud v:nameU="visDescription"
						v:val="VT4(Expresses a decision when guard conditions are used to indicate different possible transitions that are Boolean dependent.)"/>
				<v:ud v:nameU="visVersion" v:val="VT0(14):26"/>
			</v:userDefs>
			<path d="M9.92 63.86 L19.84 73.78 L9.92 83.7 L0 73.78 L9.92 63.86 Z" class="st1"/>
		</g>
		<g id="shape18-40" v:mID="18" v:groupContext="shape" transform="translate(-17.5205,47.1711) rotate(-89.8629)">
			<title>Sheet.18</title>
			<path d="M8.37 83.7 L8.73 83.7 L22.71 83.7" class="st7"/>
		</g>
		<g id="shape17-49" v:mID="17" v:groupContext="shape" transform="translate(98.7706,50.3563) rotate(-90)">
			<title>Sheet.17</title>
			<path d="M0 83.7 L21.45 83.7" class="st10"/>
		</g>
		<g id="group19-54" transform="translate(213.656,-10.6713)" v:mID="19" v:groupContext="group">
			<v:userDefs>
				<v:ud v:nameU="UMLShapeType" v:val="VT0(40):26"/>
				<v:ud v:nameU="UMLObjectGUID" v:val="VT4({EBADCFDB-D7AB-4FA0-B463-C73AF89E5200})"/>
				<v:ud v:nameU="UMLError" v:val="VT0(0):26"/>
				<v:ud v:nameU="UMLPresOption1" v:val="VT0(1):26"/>
				<v:ud v:nameU="UMLSuppressOption" v:val="VT0(32):26"/>
				<v:ud v:nameU="UMLVersion" v:val="VT0(2):26"/>
				<v:ud v:nameU="UMLAutoLockTextEdit" v:val="VT0(1):26"/>
				<v:ud v:nameU="visDescription"
						v:val="VT4(Represents a condition during which an object satisfies some condition, performs an action or waits for an event.)"/>
				<v:ud v:nameU="visVersion" v:val="VT0(14):26"/>
			</v:userDefs>
			<title>State.19</title>
			<g id="shape20-55" v:mID="20" v:groupContext="shape">
				<title>Sheet.20</title>
				<path d="M9 83.7 L45 83.7 A9 9 -180 0 0 54 74.7 L54 67.19 A9 9 -180 0 0 45 58.19 L9 58.19 A9 9 -180 0 0 0 67.19 L0
							 74.7 A9 9 -180 0 0 9 83.7 Z" class="st1"/>
			</g>
			<g id="shape21-57" v:mID="21" v:groupContext="shape">
				<title>Transitions</title>
				<path d="M0 83.7 L53.86 83.7 L0 83.7 Z" class="st2"/>
			</g>
			<g id="shape22-59" v:mID="22" v:groupContext="shape">
				<title>Name</title>
				<desc>A3</desc>
				<v:textBlock v:margins="rect(4,4,4,4)" v:tabSpace="42.5197"/>
				<v:textRect cx="27" cy="71.1047" width="54" height="25.2"/>
				<rect x="0" y="58.5047" width="54" height="25.2" class="st2"/>
				<text x="22.66" y="73.5" class="st3" v:langID="1031"><v:paragraph v:horizAlign="1"/><v:tabList/>A3</text>			</g>
		</g>
		<g id="shape23-62" v:mID="23" v:groupContext="shape" transform="translate(192.397,-23.4272)">
			<title>Sheet.23</title>
			<path d="M0 83.7 L21.26 83.7" class="st5"/>
		</g>
		<g id="shape24-67" v:mID="24" v:groupContext="shape" transform="translate(57.7509,-65.9469)">
			<title>Initial State.24</title>
			<v:userDefs>
				<v:ud v:nameU="UMLShapeType" v:val="VT0(42):26"/>
				<v:ud v:nameU="UMLObjectGUID" v:val="VT4({EE78D6B2-7267-4DEF-9D2C-9FB3D3AEB816})"/>
				<v:ud v:nameU="UMLError" v:val="VT0(0):26"/>
				<v:ud v:nameU="UMLPresOptions" v:val="VT0(3):26"/>
				<v:ud v:nameU="UMLVersion" v:val="VT0(2):26"/>
				<v:ud v:nameU="visDescription" v:val="VT4(Represents the point at which a newly created object starts. )"/>
				<v:ud v:nameU="visVersion" v:val="VT0(14):26"/>
			</v:userDefs>
			<path d="M0 75.2 A8.50394 8.50394 0 1 1 17.01 75.2 A8.50394 8.50394 0 0 1 0 75.2 Z" class="st4"/>
		</g>
		<g id="shape25-69" v:mID="25" v:groupContext="shape" transform="translate(76.3301,-68.7815)">
			<title>Sheet.25</title>
			<desc>E2</desc>
			<v:textBlock v:margins="rect(4,4,4,4)" v:tabSpace="42.5197"/>
			<v:textRect cx="8.50394" cy="78.0354" width="17.01" height="11.3386"/>
			<rect x="0" y="72.3661" width="17.0079" height="11.3386" class="st2"/>
			<text x="4.52" y="80.44" class="st3" v:langID="1031"><v:paragraph v:horizAlign="1"/><v:tabList/>E2</text>		</g>
	</g>
</svg>
