<svg xmlns="http://www.w3.org/2000/svg" viewBox="0 0 439.86 155.93"><defs><style>.cls-1{fill:#1a171b;}.cls-2{fill:#fff;}.cls-3{fill:none;}</style></defs><title>Element 2</title><g id="Ebene_2" data-name="Ebene 2"><g id="Ebene_1-2" data-name="Ebene 1"><path class="cls-1" d="M439.82,99.59c.31,6.57-.93,14.22-10.89,20.82-9.15,6.08-21,10.17-37.28,15.45-39.77,12.87-98.8,19.69-166.09,19.69-68.63,0-129.92-5.54-171.39-18.22-13.42-4.1-23.64-10.65-32.43-15.61C8.26,114.1,6.93,106.32,6.93,97.37c0-14.33,9.47-28.76,41.64-39C90,45.11,155.41,39.2,225.75,39.2c63.78,0,119.24,6.95,158.45,18.12,23.26,6.63,38.49,16.33,48.65,25.36C439.09,88.22,439.54,93.49,439.82,99.59Z"/><path class="cls-2" d="M28.57,34.24H65.31q13.93,0,21,3.11a35.29,35.29,0,0,1,13.06,10.5q6,7.4,9.37,19.18t3.4,29.3q0,15.77-3.56,27.43t-9,18.47a35,35,0,0,1-13.23,10.25q-7.76,3.45-19.94,3.45H28.57ZM48.66,54.82v80.52H63.77q9.7,0,14.07-1.82A17.09,17.09,0,0,0,85,128q2.77-3.69,4.61-11.65t1.82-21q0-13.52-1.87-21.31T83.73,61.79a18.53,18.53,0,0,0-9.58-5.89q-4.25-1.08-16.36-1.08Z"/><path class="cls-2" d="M129.26,155.93V34.24h32.38q18.09,0,23.65,1.74,8.88,2.82,14.65,12t5.77,23.74q0,13.2-5,22.12t-12.45,12.53Q180.81,110,162.55,110h-13.2v45.91ZM149.35,54.82V89.44H160.5q11.24,0,15.27-1.58a13.67,13.67,0,0,0,6.61-5.7A18.71,18.71,0,0,0,185,72.05a18.68,18.68,0,0,0-2.66-10.24,13.17,13.17,0,0,0-6.57-5.57q-3.91-1.41-16.56-1.42Z"/><path class="cls-2" d="M222,155.93V34.24h30.13l18.14,83.09,18-83.09h30.27V155.93H299.76V60.05l-19.89,95.88H260.49L240.74,60.05v95.88Z"/><path class="cls-2" d="M338.61,155.93V34.24H358.2L399,115.5V34.24H417.8V155.93H397.54L357.37,76.57v79.36Z"/><line class="cls-3" y2="10.53"/></g></g></svg>