<?xml version="1.0" encoding="UTF-8" standalone="no"?>
<!-- Created with Inkscape (http://www.inkscape.org/) -->
<svg
   xmlns:dc="http://purl.org/dc/elements/1.1/"
   xmlns:cc="http://web.resource.org/cc/"
   xmlns:rdf="http://www.w3.org/1999/02/22-rdf-syntax-ns#"
   xmlns:svg="http://www.w3.org/2000/svg"
   xmlns="http://www.w3.org/2000/svg"
   xmlns:sodipodi="http://sodipodi.sourceforge.net/DTD/sodipodi-0.dtd"
   xmlns:inkscape="http://www.inkscape.org/namespaces/inkscape"
   width="366.15115"
   height="237.23717"
   id="svg2372"
   sodipodi:version="0.32"
   inkscape:version="0.45.1"
   version="1.0"
   sodipodi:docname="SnEptUne_Mountain_in_Ink.svg"
   sodipodi:docbase="/Users/johnolsen/Desktop"
   inkscape:output_extension="org.inkscape.output.svg.inkscape">
  <defs
     id="defs2374" />
  <sodipodi:namedview
     id="base"
     pagecolor="#ffffff"
     bordercolor="#666666"
     borderopacity="1.0"
     gridtolerance="10000"
     guidetolerance="10"
     objecttolerance="10"
     inkscape:pageopacity="0.0"
     inkscape:pageshadow="2"
     inkscape:zoom="0.5"
     inkscape:cx="429.24151"
     inkscape:cy="207.91935"
     inkscape:document-units="px"
     inkscape:current-layer="layer1"
     inkscape:window-width="889"
     inkscape:window-height="602"
     inkscape:window-x="20"
     inkscape:window-y="42"
     width="400px"
     height="400px" />
  <metadata
     id="metadata2377">
    <rdf:RDF>
      <cc:Work
         rdf:about="">
        <dc:format>image/svg+xml</dc:format>
        <dc:type
           rdf:resource="http://purl.org/dc/dcmitype/StillImage" />
      </cc:Work>
    </rdf:RDF>
  </metadata>
  <g
     inkscape:label="Layer 1"
     inkscape:groupmode="layer"
     id="layer1"
     transform="translate(-20.06727,-89.681285)">
    <path
       style="fill:#000000;fill-opacity:1;fill-rule:nonzero;stroke:none;stroke-width:1px;stroke-linecap:butt;stroke-linejoin:miter;stroke-opacity:1"
       d="M 208.06683,89.70521 C 207.05402,89.81555 206.00397,90.31099 204.81876,91.3466 C 202.5805,93.80025 200.66006,96.40182 199.32151,99.48744 C 196.89651,104.55287 194.63807,109.69864 192.24293,114.77822 C 189.13443,121.6128 185.9079,128.44176 181.83955,134.76777 C 178.55854,139.58808 175.09779,144.29679 170.72453,148.20208 C 169.0434,149.85631 166.7293,151.55835 165.80712,153.57669 C 165.12208,155.07598 167.73431,157.5354 169.20515,156.79124 C 171.27121,155.74593 172.85435,153.42324 174.42915,151.63481 C 178.08735,146.74543 180.84556,141.26934 183.68991,135.88711 C 187.26393,129.22006 190.88119,122.54463 194.56942,115.94017 C 197.14242,111.01533 200.11038,106.35164 203.31533,101.82003 C 204.60784,99.59422 206.48816,98.06885 208.46708,96.57715 C 209.98579,98.47094 210.69501,100.96763 211.57694,103.21781 C 212.81721,106.43958 213.83239,109.73277 214.75121,113.0577 C 215.62299,116.3684 217.62861,117.72136 220.60318,118.89773 C 222.51382,119.29185 224.32134,118.73594 226.16426,118.29402 C 226.36221,118.11645 226.37701,118.11448 226.45133,118.04282 C 226.34483,118.15466 226.33188,118.22346 226.87278,117.87133 C 231.57008,120.45497 235.43356,124.12767 239.09832,127.98596 C 243.56967,132.97656 246.96719,138.72223 249.93373,144.69539 C 251.28121,147.01979 252.11703,149.50091 252.67948,152.03568 C 252.18067,152.13307 251.66818,152.22645 251.17066,152.32521 C 247.31761,153.56484 247.06279,156.42149 247.90086,159.84704 C 248.38231,161.43555 248.95125,162.98826 249.60082,164.50327 C 248.73319,164.17967 247.8784,163.85184 247.01158,163.52702 C 244.72456,162.79702 242.38229,162.71739 240.01148,162.7467 C 237.41995,162.72022 235.51916,163.77498 233.52759,165.27374 C 232.70516,166.27846 231.76845,167.15862 230.84262,168.04847 C 229.85607,168.65109 228.66504,168.44663 227.55959,168.49918 C 224.24245,168.09412 220.92869,167.92474 217.60133,167.97713 C 213.58384,169.3648 212.63046,172.89916 211.07476,176.48119 C 209.68903,180.05669 207.37415,182.72881 204.53737,185.17502 C 202.49768,186.70222 200.23619,186.64726 197.89016,186.77678 C 195.99175,186.2895 195.36438,184.78849 194.33751,183.29612 C 193.23835,181.19841 192.51079,178.94171 191.67608,176.73252 C 190.72545,173.60667 188.77229,171.34067 186.53957,169.08597 C 183.39139,166.67416 179.97887,166.65342 176.22698,166.74781 C 173.68644,167.02823 171.16751,167.41923 168.62557,167.66731 C 168.66006,167.18608 167.36634,166.01426 166.97796,165.52009 C 165.27171,163.77372 163.34809,163.56177 161.05795,163.39661 C 161.02373,163.396 160.9984,163.40706 160.96475,163.40673 C 160.95353,163.40663 160.94483,163.41018 160.93368,163.4101 C 160.0358,163.26399 159.2703,163.33023 158.88997,163.69483 C 157.61543,164.09898 156.85694,164.96259 155.78765,166.38914 C 155.71192,166.49018 155.74291,166.63473 155.82475,166.73088 C 156.32228,167.31537 156.78243,167.82705 157.2462,168.24255 C 156.80618,169.02023 156.34565,169.77708 155.92217,170.52377 C 152.93111,175.39166 149.22,179.75282 145.40755,183.98721 C 140.2826,189.70658 134.8184,195.093 129.48415,200.61538 C 124.12687,206.28168 118.4771,211.68553 112.92254,217.15567 C 107.41542,222.3313 101.9571,227.55406 96.40834,232.68493 C 91.08131,237.93749 85.55291,242.96737 80.02923,248.01093 C 74.14437,253.6562 67.93211,258.9102 61.47806,263.88706 C 56.3559,267.388 51.12483,270.74833 45.77842,273.88988 C 38.32133,281.75581 47.55269,285.2297 55.02434,283.19637 C 64.00821,280.06142 73.11937,277.58131 82.50205,276.00129 C 87.22138,275.29758 91.98318,274.71919 96.72687,274.70851 C 94.7851,278.40011 92.64762,281.96688 90.91855,285.77502 C 87.87496,292.556 90.58174,298.11607 97.98313,299.31038 C 104.28127,298.31707 110.35393,296.28346 116.63944,295.11614 C 121.64324,294.43582 126.67932,294.19534 131.70644,293.76337 C 137.25201,293.1387 142.78684,292.49575 148.36801,292.3318 C 151.02831,292.00501 153.55751,292.23122 155.93816,292.86163 C 155.82782,293.09713 155.75203,293.28086 155.60848,293.58896 C 152.9937,297.71009 150.22659,301.50333 150.38208,306.54117 C 152.43914,313.16643 158.28298,311.62929 163.34266,309.81778 C 167.38411,308.19622 171.58498,307.42018 175.88327,307.19903 C 177.0877,307.79899 177.41012,308.38388 178.25822,309.67593 C 180.73028,313.10794 184.13846,315.42047 187.72517,317.54391 C 190.93706,319.40611 194.34747,320.35499 197.88365,320.77895 C 197.26377,321.0269 196.66373,321.28004 196.04924,321.54389 C 193.14939,323.28888 191.00921,325.34031 187.85768,326.5824 C 187.7402,326.6287 187.87049,326.96032 187.98798,326.91403 C 191.10245,325.68652 193.95982,325.73392 197.27858,325.33964 C 204.30964,323.73586 211.31477,321.88738 218.51952,321.21058 C 224.4883,320.57953 230.69617,321.00493 236.40497,318.89173 C 240.93897,316.54713 242.21711,313.1527 240.42078,308.39702 C 239.46948,305.53626 238.52154,303.20461 241.16666,301.36922 C 243.9762,299.34051 247.1911,298.00641 250.6602,297.32098 C 260.16804,294.73821 269.74035,292.42517 279.47505,290.86088 C 291.29938,289.06341 303.26656,287.8078 315.13266,290.10183 C 316.85221,290.36161 319.4903,290.75482 321.897,291.31638 C 322.7284,293.07661 323.97774,294.19049 325.39621,295.46294 C 327.48706,296.91356 329.77895,296.86193 332.18753,296.92603 C 339.07977,296.69199 340.90427,286.55356 335.50889,282.64038 C 334.82059,282.4916 334.12927,282.38319 333.4288,282.30039 C 333.46128,282.32881 333.50049,282.35231 333.53212,282.38347 C 333.43451,282.34274 333.33513,282.29565 333.23565,282.25849 C 331.68715,282.08813 330.12542,282.07181 328.53914,282.13967 C 329.06982,281.72693 329.78491,281.48648 330.66665,281.46864 C 330.99232,281.5472 331.32195,281.56562 331.65672,281.61262 C 331.57942,281.57081 331.49669,281.52844 331.42238,281.48089 C 329.19061,280.08218 326.97271,278.68265 325.12587,276.75786 C 321.59381,273.13051 318.34351,269.3174 315.06708,265.465 C 310.20622,259.12788 305.29618,252.80058 301.45427,245.75656 C 295.96499,236.68792 290.65465,227.53079 285.45912,218.29117 C 280.40237,208.92417 275.57249,199.42077 270.30421,190.16876 C 266.44039,183.28983 262.3383,176.55403 258.49137,169.66767 C 256.83069,166.53197 255.46471,163.2295 255.02063,159.7028 C 255.49596,159.57772 255.95348,159.45144 256.42275,159.29911 C 259.56924,157.60132 261.37139,155.42641 259.75469,151.77054 C 257.49519,148.74785 254.80618,146.10843 252.52602,143.09376 C 248.42517,137.71848 244.63822,132.11642 240.50595,126.76441 C 237.12528,122.41396 233.54863,118.21318 230.61424,113.53596 C 228.58498,111.51457 227.10542,110.14194 224.03649,110.85521 C 223.38563,111.00325 222.78352,111.27481 222.10285,111.28516 C 221.57209,111.02992 220.72498,111.0635 220.51043,110.51503 C 218.7917,107.68667 217.31743,104.75586 216.36419,101.56649 C 215.4283,98.26921 214.79459,94.81652 213.22436,91.7543 C 211.35636,90.41591 209.75486,89.52132 208.06683,89.70521 z "
       id="path3558" />
    <path
       style="fill:#000000;fill-opacity:1;fill-rule:nonzero;stroke:none;stroke-width:1px;stroke-linecap:butt;stroke-linejoin:miter;stroke-opacity:1"
       d="M 321.0342,294.22935 C 321.50087,294.55135 322.02364,294.78531 322.5342,295.04185 C 322.5983,295.05603 322.65775,295.08966 322.7217,295.10435 C 322.25537,294.59751 321.65362,294.38596 321.0342,294.22935 z "
       id="path3556" />
    <path
       style="fill:#000000;fill-opacity:1;fill-rule:nonzero;stroke:none;stroke-width:1px;stroke-linecap:butt;stroke-linejoin:miter;stroke-opacity:1"
       d="M 218.9717,96.72935 C 220.12752,96.95236 219.46529,96.85543 218.87795,96.79185 C 218.91043,96.77259 218.93919,96.74862 218.9717,96.72935 z "
       id="path3554" />
    <path
       style="fill:#000000;fill-opacity:1;fill-rule:nonzero;stroke:none;stroke-width:1px;stroke-linecap:butt;stroke-linejoin:miter;stroke-opacity:1"
       d="M 256.56545,157.8856 C 256.60272,158.31517 256.66388,158.73675 256.69045,159.16685 C 255.86724,159.18368 256.1473,158.53409 256.56545,157.8856 z "
       id="path3552" />
    <path
       style="fill:#000000;fill-opacity:1;fill-rule:nonzero;stroke:none;stroke-width:1px;stroke-linecap:butt;stroke-linejoin:miter;stroke-opacity:1"
       d="M 44.12796,260.72935 C 44.18736,261.28588 43.9533,261.81898 43.03421,262.16685 C 43.38975,261.68481 43.75586,261.19709 44.12796,260.72935 z "
       id="path3548" />
    <path
       style="fill:#000000;fill-opacity:1;fill-rule:nonzero;stroke:none;stroke-width:1px;stroke-linecap:butt;stroke-linejoin:miter;stroke-opacity:1"
       d="M 91.90922,262.54185 C 92.40697,262.63064 92.91378,262.71804 93.40922,262.8231 C 92.88767,263.02686 92.38403,262.86346 91.90922,262.54185 z "
       id="path3537" />
    <path
       style="fill:#000000;fill-opacity:1;fill-rule:nonzero;stroke:none;stroke-width:1px;stroke-linecap:butt;stroke-linejoin:miter;stroke-opacity:1"
       id="path3562"
       d="M 272.92181,168.83528 C 273.5757,167.50769 274.40073,166.19743 275.17165,164.88445 C 276.33325,162.93898 277.98869,161.41011 279.62284,159.87564 C 282.35185,157.53799 285.27022,155.44161 288.18803,153.35025 C 291.06679,151.29939 294.23386,149.84129 297.50159,148.56384 C 300.75206,147.38904 303.89474,147.95041 307.17363,148.53353 C 310.38284,149.24747 313.37784,150.65748 316.36076,152.0028 C 319.46679,153.64575 322.6716,155.08016 325.89283,156.47805 C 329.47554,157.98304 333.24605,158.86451 337.02668,159.6884 C 340.58339,160.44771 344.20547,160.83869 347.81212,161.27745 C 351.04357,161.54126 354.27326,161.81923 357.50101,162.12411 C 360.93504,162.48829 364.27921,163.35911 367.62511,164.1753 C 370.83975,164.91845 373.87984,166.17764 376.86993,167.53285 C 379.19867,168.47615 381.21388,169.90037 383.18026,171.42891 C 384.66571,172.43669 385.36892,173.89251 386.16812,175.39694 C 386.4645,177.98898 385.45005,178.66366 383.1636,179.39821 C 380.35481,179.51652 377.59731,178.84607 374.85234,178.33853 C 371.63122,177.80072 368.42799,177.18969 365.19207,176.73331 C 363.08761,176.47409 360.87367,176.31715 358.84428,176.24561 C 357.87505,177.60766 355.95097,178.09425 354.44395,178.78943 C 351.38872,180.58315 348.16246,181.31083 344.73069,181.82644 C 340.43855,181.86477 336.4112,180.42518 332.40156,179.07861 C 329.59577,178.13548 326.79184,177.19565 323.92647,176.46087 C 322.22488,176.17378 320.55502,176.4791 318.87437,176.70987 C 316.76825,177.25838 314.64807,177.71582 312.50356,178.09826 C 309.6273,178.714 306.77301,178.39982 303.91476,177.94542 C 301.84825,177.28221 299.73119,177.15648 297.60225,176.9262 C 295.56502,176.83629 293.53599,176.63731 291.5033,176.49714 C 289.15262,176.38224 286.79461,176.393 284.4408,176.40887 C 282.19572,176.14968 279.94081,176.01654 277.6863,175.91633 C 275.89174,175.83687 274.19307,175.14173 272.50449,174.57697 C 271.17527,174.05695 270.98303,172.98968 270.26491,171.92483 C 270.19431,171.82014 270.21418,171.65104 270.31164,171.57076 L 270.31164,171.57076 C 271.27322,170.77869 271.77643,169.79603 273.1481,169.64142 C 274.8188,169.48044 276.52165,169.21641 278.19232,169.41243 C 280.26397,169.5781 282.3268,169.754 284.39802,169.41193 C 286.63553,169.37482 288.88125,169.3029 291.0908,168.91695 C 293.10449,168.55678 295.10598,168.13442 297.12763,167.81345 C 299.52344,167.50998 301.88204,167.05016 304.27124,166.69684 C 306.02303,166.42822 307.7888,166.2408 309.47612,165.67367 C 311.79256,164.86733 314.07631,163.93611 316.5063,163.51518 C 320.06234,163.01483 323.5883,162.66383 327.1321,163.61126 C 330.3948,164.63929 333.57996,165.80191 336.70026,167.2323 C 339.16891,168.12712 341.62441,169.14358 344.28221,169.27737 C 346.53017,169.37091 348.69376,169.33304 350.87312,168.59487 C 354.13588,167.80931 357.36003,166.73028 360.70857,167.67222 C 362.95011,168.76824 365.08724,169.9565 367.02761,171.54609 C 369.74171,173.1699 372.47764,174.72499 375.48136,175.76737 C 377.77534,176.34142 379.92187,176.9332 382.23735,176.04568 C 382.30228,176.13685 382.44863,176.20848 382.43214,176.31918 C 382.07847,175.42026 382.11754,174.30618 381.11286,173.63077 C 379.51932,172.05425 377.9743,170.44155 375.92882,169.40684 C 373.10727,168.00615 370.31456,166.53915 367.21855,165.81979 C 363.93647,165.07967 360.64429,164.37262 357.2884,164.04431 C 354.0537,163.71413 350.80629,163.50609 347.58382,163.05956 C 343.95212,162.49613 340.35866,161.76583 336.74525,161.09548 C 332.8598,160.30473 328.94486,159.57111 325.26536,158.03466 C 321.96339,156.76836 318.67737,155.46811 315.43524,154.05298 C 312.59287,152.84844 309.77213,151.55799 306.71594,150.97524 C 303.90679,150.63628 301.11603,150.41333 298.34318,151.19935 C 295.25544,152.23091 292.20106,153.35433 289.52426,155.27502 C 286.77451,157.29168 284.07442,159.3545 282.01503,162.12709 C 280.7927,163.70617 279.54217,165.26595 278.4452,166.9363 C 277.71364,168.11986 276.92049,169.34482 276.28327,170.51588 C 275.6482,171.683 272.33472,170.02725 272.92181,168.83528 z " />
    <path
       style="fill:#000000;fill-opacity:1;fill-rule:nonzero;stroke:none;stroke-width:1px;stroke-linecap:butt;stroke-linejoin:miter;stroke-opacity:1"
       id="path3564"
       d="M 26.18592,157.2823 C 27.84229,156.3787 29.46034,155.37312 31.11503,154.44861 C 34.18645,152.97764 37.09381,151.20402 40.00569,149.4475 C 42.89045,147.66271 45.92162,146.15678 48.95129,144.64001 C 51.73269,143.24348 54.68076,142.56555 57.70838,142.07282 C 60.69694,142.04789 63.21792,143.47908 65.81126,144.7672 C 68.07327,146.08675 70.50322,147.04419 72.95194,147.94273 C 75.69852,148.74198 78.52023,148.7024 81.34695,148.67649 C 84.02422,148.37859 86.65024,148.44292 89.31798,148.72221 C 92.3744,149.34108 95.31662,150.43579 98.27946,151.39571 C 102.06206,152.53475 105.87606,153.55386 109.70799,154.51246 C 113.31923,155.44334 117.00003,156.02465 120.67464,156.63649 C 124.38712,157.2755 128.15444,157.27692 131.90677,157.34324 C 135.20295,157.47495 138.43175,157.05867 141.64919,156.42844 C 142.76137,156.26347 143.71733,155.52886 144.67989,154.9478 C 145.39114,156.46048 144.79316,158.33621 145.32558,159.92069 C 143.40242,160.7339 141.53179,161.64968 139.60651,162.46058 C 136.48406,163.95253 133.04386,164.43854 129.66721,165.01577 C 124.95997,165.92342 120.14472,165.75763 115.38116,165.54137 C 112.18918,165.22705 109.13363,165.15168 106.00853,165.78232 C 103.44216,166.58993 101.03087,167.79894 98.60278,168.94079 C 94.3164,170.69709 89.83244,170.40017 85.32264,170.07097 C 80.37714,169.64572 75.42733,169.32649 70.47787,168.95491 C 67.44189,168.73275 64.43452,168.56526 61.39707,168.79335 C 59.43701,169.13153 57.60974,169.89463 55.75599,170.56833 C 53.61344,171.70132 51.26897,172.34535 48.94177,172.94956 C 46.75106,173.56991 44.75953,173.16585 42.6179,172.70541 C 41.30603,172.38227 40.02272,171.96862 38.73472,171.57732 C 37.26539,171.35088 35.94936,170.6088 34.6022,170.0516 C 33.79918,169.03277 32.45007,168.86622 31.24375,168.48003 C 29.81538,167.56968 28.09069,167.43133 26.46236,167.1124 C 24.44146,166.94332 23.4008,165.4216 21.72074,164.43329 C 22.13074,163.52938 20.30077,163.59395 20.14834,163.50385 C 20.03964,163.43959 20.03827,163.19183 20.15623,163.14679 L 20.15623,163.14679 C 20.78015,162.90857 21.64702,163.3672 22.02798,162.43213 C 23.93841,162.14339 25.50225,161.15867 27.41592,161.70165 C 29.25574,162.00345 31.10421,162.42763 32.96813,162.47166 C 34.40477,162.779 35.83632,163.31508 37.31362,163.15989 C 38.10969,163.312 38.82521,163.74467 39.66332,163.60886 C 40.53199,163.36829 41.46428,163.22495 42.27618,162.78972 C 43.3234,162.23284 44.31911,161.63421 45.45882,161.28601 C 47.27857,160.55111 49.06295,159.72774 50.90039,159.02927 C 53.80363,157.89533 56.70387,156.71803 59.82415,156.30734 C 63.81681,155.95669 67.75424,155.8661 71.71804,156.72764 C 76.31306,157.3179 80.90543,157.93459 85.55134,157.88702 C 88.51879,157.68935 91.51901,157.54558 94.42753,156.89879 C 97.72152,156.08914 100.92254,154.94014 104.24972,154.24186 C 108.45382,154.01492 112.51962,154.18355 116.59219,155.46054 C 120.64841,156.28383 124.70989,157.01208 128.8726,156.9465 C 131.96481,156.81098 135.06185,156.61059 138.16017,156.6507 C 139.84889,156.47746 141.64206,156.57128 143.17806,155.77365 C 146.26046,154.10317 149.06435,154.91956 147.8319,159.1322 C 145.8841,159.52564 143.96333,159.9235 141.90847,159.52323 C 138.5398,159.38209 135.15689,159.36584 131.80629,158.95719 C 128.04601,158.51157 124.29353,158.01225 120.53446,157.556 C 116.82506,156.96256 113.14693,156.24388 109.53042,155.20685 C 105.71441,154.18533 101.89482,153.15498 98.0111,152.42042 C 95.0362,151.79536 92.06264,151.16124 89.06957,150.62918 C 86.53217,150.3326 83.98022,150.12025 81.42784,150.41218 C 78.39392,150.60742 75.31647,150.96011 72.31039,150.32645 C 69.60439,149.61576 66.98375,148.75117 64.5215,147.37217 C 62.38943,146.35515 60.26404,145.24969 57.87313,145.03757 C 55.13272,145.22874 52.56848,145.91942 50.05518,147.09309 C 47.05072,148.40241 44.10022,149.83923 41.33977,151.61925 C 38.55463,153.39655 35.7268,155.14916 33.40455,157.53603 C 32.25682,158.75378 30.98314,159.91986 30.27277,161.46172 C 29.40797,163.33878 24.37164,158.27204 26.18592,157.2823 z " />
  </g>
</svg>
